<svg width="209" height="235" viewBox="0 0 209 235" fill="none" xmlns="http://www.w3.org/2000/svg">
<path fill-rule="evenodd" clip-rule="evenodd" d="M22.3404 162.29C10.2648 156.147 7.36561 146.317 22.3404 132.975C-11.8403 159.919 -2.70162 176.65 22.3404 184.833V235H186.643C186.643 222.058 186.664 164.828 186.643 153.133C180.437 147.59 171.845 146.351 163.941 144.942V211.994H45.0547V189.571C63.5043 191.951 136.588 192.368 136.454 171.797C136.731 167.74 135.29 163.878 131.878 161.58C128.916 159.532 125.458 159.119 122.114 160.434C92.5673 171.065 51.1093 174.56 22.3404 162.29Z" fill="#FFFAFE"/>
<path fill-rule="evenodd" clip-rule="evenodd" d="M130.571 68.5247H78.4244C77.2143 47.5961 78.3025 24.4877 104.496 23.0573C130.685 24.492 131.79 47.6046 130.571 68.5247ZM186.655 141.247C198.731 147.39 201.63 157.216 186.655 170.562C220.849 143.618 211.697 126.887 186.643 118.705V68.5247H153.286C164.084 -22.8741 44.8865 -22.8103 55.7101 68.5247H22.3403C22.3403 81.4667 22.3403 138.705 22.3403 150.404C28.5672 155.93 37.1344 157.195 45.0588 158.595V91.5436C80.5924 91.5436 128.408 91.5436 163.941 91.5436V113.979C145.496 111.587 72.4034 111.17 72.542 131.741C72.2647 135.793 73.7017 139.655 77.1176 141.958C80.0798 144.006 83.5504 144.419 86.8823 143.116C116.42 132.469 157.895 128.973 186.655 141.247Z" fill="#FFFAFE"/>
</svg>
