<svg width="214" height="194" viewBox="0 0 214 194" fill="none" xmlns="http://www.w3.org/2000/svg">
<path opacity="0.07" d="M83.1495 20.4742C70.7914 21.1988 58.4358 20.3966 45.6828 22.3271C29.978 24.7054 13.5013 32.7796 4.97452 46.8317C-5.56797 64.2093 2.22798 83.8876 13.6552 98.7187C23.9746 112.111 36.902 123.461 46.5162 137.392C61.6132 159.262 71.4812 180.827 98.6081 189.812C138.942 203.173 186.643 177.005 186.969 131.197C187.038 121.614 184.912 112.026 186.056 102.51C188.51 82.0838 206.928 68.5078 211.87 49.0237C217.607 26.4108 200.674 8.95296 180.535 2.59972C153.736 -5.85747 130.592 8.3241 105.645 16.551C98.09 19.0405 90.6198 20.0368 83.1495 20.4742Z" fill="#AE1C9A"/>
<g clip-path="url(#clip0_108_812)">
<path d="M89.7344 124.732C88.6739 124.732 87.7441 124.75 86.8143 124.729C83.0951 124.64 80.2284 122.523 79.3848 119.258C78.5085 115.857 79.9819 112.708 83.2703 110.781C83.6268 110.573 84.0041 109.968 83.9655 109.586C83.1991 101.52 82.3732 93.4612 81.5622 85.3989C80.9087 78.9111 80.2611 72.4234 79.6046 65.9326C79.5244 65.1498 79.4234 64.367 79.3165 63.4597C75.8735 63.4597 72.4752 63.4597 68.9966 63.4597C68.9996 61.9682 68.9996 60.6013 68.9996 59.1157C73.7317 59.1157 78.4996 59.1157 83.3921 59.1157C83.7338 62.3893 84.0724 65.6658 84.4319 69.135C93.2308 69.135 102.015 69.135 110.977 69.135C109.542 76.7584 111.236 83.3085 116.945 88.4323C122.622 93.5234 129.264 94.5672 136.768 92.3255C136.028 99.7503 135.303 107.03 134.558 114.487C133.916 114.487 133.337 114.487 132.761 114.487C117.753 114.487 102.746 114.487 87.7381 114.49C87.144 114.49 86.538 114.457 85.9617 114.567C84.5655 114.831 83.6031 116.05 83.6238 117.423C83.6417 118.822 84.6012 119.949 86.0419 120.189C86.6242 120.284 87.2242 120.275 87.8183 120.275C102.728 120.278 117.637 120.278 132.544 120.278C133.171 120.278 133.797 120.278 134.498 120.278C134.498 121.832 134.498 123.19 134.498 124.747C132.725 124.747 131.02 124.747 129.211 124.747C130.206 128.497 129.511 131.572 126.356 133.692C123.831 135.389 121.092 135.439 118.517 133.811C115.192 131.709 114.414 128.578 115.415 124.821C111.479 124.821 107.638 124.821 103.625 124.821C104.436 127.952 104.065 130.766 101.626 133.005C100.093 134.41 98.2571 135.045 96.1776 134.911C91.4187 134.609 88.8373 130.65 89.7344 124.732ZM111.66 99.9638C110.134 99.9638 108.773 99.9638 107.401 99.9638C107.401 101.446 107.401 102.834 107.401 104.216C108.883 104.216 110.24 104.216 111.66 104.216C111.66 102.766 111.66 101.408 111.66 99.9638ZM101.397 99.9549C99.9384 99.9549 98.5779 99.9549 97.1787 99.9549C97.1787 101.426 97.1787 102.81 97.1787 104.192C98.6611 104.192 100.01 104.192 101.397 104.192C101.397 102.712 101.397 101.357 101.397 99.9549ZM121.924 99.9697C120.433 99.9697 119.072 99.9697 117.667 99.9697C117.667 101.426 117.667 102.781 117.667 104.225C119.111 104.225 120.465 104.225 121.924 104.225C121.924 102.798 121.924 101.443 121.924 99.9697Z" fill="#AE1C9A"/>
<path d="M129.942 88.9987C121.624 88.9898 114.946 82.3241 114.94 74.0276C114.934 65.6777 121.684 58.9646 130.052 59.0001C138.307 59.0357 145.018 65.7933 145 74.0661C144.985 82.3241 138.245 89.0075 129.942 88.9987ZM120.801 74.2737C123.124 76.5924 125.445 78.9082 127.652 81.1084C131.282 77.4879 135.048 73.7311 138.869 69.9208C137.93 68.9987 136.923 68.0113 135.717 66.8282C132.969 69.5887 130.233 72.3345 127.31 75.2729C126.089 73.9297 124.901 72.625 123.695 71.3026C122.587 72.4412 121.636 73.4197 120.801 74.2737Z" fill="#AE1C9A"/>
</g>
<defs>
<clipPath id="clip0_108_812">
<rect width="76" height="76" fill="white" transform="translate(69 59)"/>
</clipPath>
</defs>
</svg>
