<svg width="300" height="257" viewBox="0 0 300 257" fill="none" xmlns="http://www.w3.org/2000/svg">
<g clip-path="url(#clip0_54_1092)">
<path d="M88.7931 256.796C88.209 250.143 91.5164 243.285 97.0845 239.584C102.66 235.883 110.269 235.482 116.201 238.585C117.642 234.74 119.114 230.827 121.67 227.61C124.227 224.393 128.073 221.926 132.184 222.077V256.796H88.7931Z" fill="#EBEBEB"/>
<path d="M155.018 173.243H244.911L261.706 149.447L279.313 173.917L300 173.584L277.697 143.619L177.472 144.035L155.018 173.243Z" fill="#E0E0E0"/>
<path d="M199.972 173.583V257H289.736V173.583H279.45L261.706 149.446L244.85 173.22L199.972 173.583Z" fill="#F5F5F5"/>
<path d="M233.654 220.836H212.656V257H233.654V220.836Z" fill="#E0E0E0"/>
<path d="M279.313 219.814H246.239V240.257H279.313V219.814Z" fill="#E0E0E0"/>
<path d="M256.161 219.814H255.402V240.447H256.161V219.814Z" fill="#EBEBEB"/>
<path d="M269.922 219.814H269.163V240.447H269.922V219.814Z" fill="#EBEBEB"/>
<path d="M269.535 230.38H255.782V231.137H269.535V230.38Z" fill="#EBEBEB"/>
<path d="M279.313 178.904H246.239V199.348H279.313V178.904Z" fill="#E0E0E0"/>
<path d="M256.161 178.904H255.402V199.537H256.161V178.904Z" fill="#EBEBEB"/>
<path d="M269.922 178.904H269.163V199.537H269.922V178.904Z" fill="#EBEBEB"/>
<path d="M269.535 189.463H255.782V190.22H269.535V189.463Z" fill="#EBEBEB"/>
<path d="M231.461 179.086H210.6V198.795H231.461V179.086Z" fill="#E0E0E0"/>
<path d="M199.972 173.583H163.537V256.992H199.972V173.583Z" fill="#E0E0E0"/>
<path d="M221.41 179.086H220.651V198.795H221.41V179.086Z" fill="#EBEBEB"/>
<path d="M231.461 189.047H210.6V189.804H231.461V189.047Z" fill="#EBEBEB"/>
<path d="M261.653 169.784C264.096 169.784 266.076 167.809 266.076 165.372C266.076 162.935 264.096 160.959 261.653 160.959C259.211 160.959 257.231 162.935 257.231 165.372C257.231 167.809 259.211 169.784 261.653 169.784Z" fill="#E0E0E0"/>
<path d="M230.103 159.96L235.687 153.087V136.564H223.997V160.088L230.103 159.96Z" fill="#F5F5F5"/>
<path d="M230.103 159.96V136.564H235.687V153.087L230.103 159.96Z" fill="#EBEBEB"/>
<path d="M236.476 134.135H222.7V136.564H236.476V134.135Z" fill="#EBEBEB"/>
<path d="M199.972 210.073H132.185V257H199.972V210.073Z" fill="#F5F5F5"/>
<path d="M174.628 210.073H132.185V257H174.628V210.073Z" fill="#E0E0E0"/>
<path d="M168.309 225.203H140.552V256.917H168.309V225.203Z" fill="#F5F5F5"/>
<path d="M196.24 225.074H178.36V229.616H196.24V225.074Z" fill="#EBEBEB"/>
<path d="M155.018 173.243V175.657H244.85V173.22L155.018 173.243Z" fill="#EBEBEB"/>
<path d="M244.85 175.657L261.653 152.126L261.706 149.446L244.911 173.243L244.85 175.657Z" fill="#EBEBEB"/>
<path d="M299.568 173.583H279.45V175.143H299.568V173.583Z" fill="#EBEBEB"/>
<path d="M226.493 215.295H219.066V218.111H226.493V215.295Z" fill="#E0E0E0"/>
<path d="M161.633 37.4582C144.83 14.4035 120.404 3.6482 94.9073 3.65577C94.9073 3.65577 32.4828 3.65577 13.996 59.4154C7.18383 79.9648 8.69342 102.278 16.9621 122.29C19.822 129.208 23.6225 136.716 28.6216 143.929C44.7417 167.158 94.9073 230.592 94.9073 230.592H105.816C119.819 211.186 155.071 146.722 165.631 126.059C178.883 100.106 180.924 63.934 161.633 37.4582ZM105.315 140.599C75.8667 140.599 51.9938 116.78 51.9938 87.3899C51.9938 58.0076 75.8667 34.1885 105.315 34.1885C134.764 34.1885 158.637 58.0076 158.637 87.3899C158.644 116.78 134.771 140.599 105.315 140.599Z" fill="#AE1C9A"/>
<path opacity="0.4" d="M161.633 37.4582C144.83 14.4035 120.404 3.6482 94.9073 3.65577C94.9073 3.65577 32.4828 3.65577 13.996 59.4154C7.18383 79.9648 8.69342 102.278 16.9621 122.29C19.822 129.208 23.6225 136.716 28.6216 143.929C44.7417 167.158 94.9073 230.592 94.9073 230.592H105.816C119.819 211.186 155.071 146.722 165.631 126.059C178.883 100.106 180.924 63.934 161.633 37.4582ZM105.315 140.599C75.8667 140.599 51.9938 116.78 51.9938 87.3899C51.9938 58.0076 75.8667 34.1885 105.315 34.1885C134.764 34.1885 158.637 58.0076 158.637 87.3899C158.644 116.78 134.771 140.599 105.315 140.599Z" fill="black"/>
<path d="M172.61 37.8899C155.807 14.8352 131.373 4.0874 105.884 4.0874C105.884 4.0874 43.4596 4.0874 24.9728 59.8471C18.1606 80.3965 19.6702 102.709 27.9389 122.721C30.7988 129.639 34.5993 137.148 39.5984 144.361C55.7185 167.59 105.884 231.024 105.884 231.024C105.884 231.024 163.848 151.46 176.608 126.491C189.868 100.537 191.901 64.3732 172.61 37.8899ZM105.391 141.038C75.806 141.106 51.9559 117.529 52.0697 87.8291C52.1759 58.4468 75.9425 34.6277 105.391 34.6277C134.84 34.6277 158.735 58.4468 158.712 87.8291C158.69 117.31 134.771 140.977 105.391 141.038Z" fill="#AE1C9A"/>
<path d="M105.315 34.1885C82.1174 34.1885 62.3865 48.978 55.0509 69.6182C62.2272 53.8221 78.1576 42.8321 96.6672 42.8321C121.898 42.8321 142.357 63.2377 142.357 88.4192C142.357 113.593 121.906 134.006 96.6672 134.006C82.0188 134.006 68.9862 127.119 60.6265 116.416C70.1393 130.971 86.5931 140.606 105.315 140.606C134.764 140.606 158.637 116.787 158.637 87.3974C158.644 58.0152 134.771 34.1885 105.315 34.1885Z" fill="#AE1C9A"/>
<path opacity="0.4" d="M105.315 34.1885C82.1174 34.1885 62.3865 48.978 55.0509 69.6182C62.2272 53.8221 78.1576 42.8321 96.6672 42.8321C121.898 42.8321 142.357 63.2377 142.357 88.4192C142.357 113.593 121.906 134.006 96.6672 134.006C82.0188 134.006 68.9862 127.119 60.6265 116.416C70.1393 130.971 86.5931 140.606 105.315 140.606C134.764 140.606 158.637 116.787 158.637 87.3974C158.644 58.0152 134.771 34.1885 105.315 34.1885Z" fill="black"/>
<path d="M211.647 111.792C209.5 110.331 206.898 109.695 204.311 109.983C199.942 110.482 193.608 111.118 193.608 111.118L193.63 111.322L163.036 113.199L153.675 94.2319L139.475 103.564C139.475 103.564 141.341 106.546 149.298 121.215C152.477 127.073 158.993 130.335 165.6 129.374L201.633 124.129V124.061C205.351 123.849 209.386 123.501 209.97 122.971C211.086 121.949 212.102 118.24 212.102 118.24C212.102 118.24 218.52 122.047 219.756 122.138C221 122.222 221.22 121.192 221.986 120.102C222.525 119.353 215.903 114.683 211.647 111.792Z" fill="#FFBE9D"/>
<path d="M155.557 93.0057C155.557 93.0057 149.609 81.5843 144.163 70.7988C137.472 57.5533 122.71 54.9042 122.71 54.9042L101.333 52.1037C101.333 52.1037 83.4678 44.0353 66.8167 64.0549L53.1317 79.2834L56.0371 81.8871L69.5856 94.0427L72.2634 96.442L78.3928 90.1447L75.5405 106.1L70.511 128.337C70.5186 128.345 70.5186 128.345 70.5262 128.352L81.3968 127.043L88.7551 82.1974L130.197 85.4974L126.943 113.775C127.61 113.676 132.624 112.685 134.255 105.888C134.893 103.216 134.695 100.953 134.293 99.2954L136.691 105.419L155.557 93.0057Z" fill="#FFBB38"/>
<path d="M88.7551 82.167L81.3968 127.012L70.5262 128.322C79.8644 136.352 92.0171 141.219 105.315 141.219C111.96 141.219 118.317 140.001 124.181 137.783L126.943 113.737L130.197 85.4594L88.7551 82.167Z" fill="#263238"/>
<path d="M91.213 49.8786L90.3102 86.3074L97.2286 87.3973L98.1541 50.4841C98.1541 50.4841 95.7266 49.3412 91.213 49.8786Z" fill="#263238"/>
<path d="M120.464 86.504L126.161 55.2144C126.487 54.8662 131.168 56.5389 132.571 58.136L127.458 87.1625L120.464 86.504Z" fill="#263238"/>
<path d="M97.479 82.0388C97.5093 82.0388 97.5472 82.2583 97.5852 82.6594C97.6155 83.0606 97.6686 83.651 97.6079 84.3851C97.5472 85.1117 97.35 86.02 96.7507 86.8299C96.4549 87.231 96.0528 87.6095 95.5446 87.8441C95.0363 88.0787 94.4294 88.162 93.8529 88.0485C92.6847 87.8214 91.7744 87.0569 91.2585 86.2092C90.7427 85.354 90.5606 84.4608 90.4923 83.7342C90.4241 83 90.462 82.4097 90.4999 82.0085C90.5379 81.6074 90.5834 81.3803 90.6061 81.3879C90.682 81.3879 90.591 82.2961 90.773 83.7039C90.8716 84.4003 91.0765 85.2404 91.5695 86.02C92.055 86.7769 92.9047 87.4657 93.9288 87.6624C94.9604 87.8744 95.939 87.3446 96.47 86.6104C97.0314 85.8838 97.2514 85.0512 97.3424 84.3549C97.479 82.9471 97.4031 82.0388 97.479 82.0388Z" fill="#FFBB38"/>
<path d="M93.3826 85.2551C92.5709 84.9296 92.1764 84.0138 92.5026 83.2115C92.8288 82.4016 93.7467 82.0081 94.5508 82.3335C95.3625 82.659 95.7569 83.5748 95.4308 84.3771C95.1121 85.187 94.1942 85.5805 93.3826 85.2551Z" fill="#FFBB38"/>
<path d="M125.812 85.4523C125.812 86.3227 125.107 87.0266 124.234 87.0266C123.362 87.0266 122.657 86.3227 122.657 85.4523C122.657 84.5818 123.362 83.8779 124.234 83.8779C125.107 83.8779 125.812 84.5818 125.812 85.4523Z" fill="#FFBB38"/>
<path d="M127.936 84.3621C127.974 84.3697 127.921 85.0811 127.572 86.2013C127.383 86.7538 127.087 87.4199 126.518 87.9876C125.972 88.5704 125.061 88.9715 124.121 88.8656C123.188 88.7747 122.368 88.3055 121.845 87.6924C121.321 87.0793 121.071 86.3905 120.957 85.8077C120.844 85.2249 120.874 84.7405 120.919 84.4226C120.965 84.0972 121.033 83.9307 121.056 83.9307C121.132 83.9382 120.973 84.6573 121.23 85.7472C121.367 86.2846 121.625 86.9128 122.118 87.4502C122.596 87.98 123.339 88.3887 124.159 88.472C124.985 88.5552 125.752 88.2373 126.267 87.7227C126.791 87.2231 127.102 86.6176 127.314 86.0954C127.716 85.0509 127.868 84.347 127.936 84.3621Z" fill="#FFBB38"/>
<path d="M93.2839 99.3257C93.2308 99.3181 93.2081 99.0229 93.2232 98.5461C93.2308 98.3115 93.246 98.0239 93.2688 97.7135C93.2839 97.547 93.2915 97.3805 93.3067 97.2215L93.3294 96.9642L93.3446 96.828L93.3522 96.7598V96.7296V96.7144V96.7069V96.6993C93.155 96.8734 93.6177 96.4571 93.5722 96.5025C95.0287 96.6615 96.2045 96.8734 96.1893 96.9794C96.1742 97.0853 94.9908 97.0475 93.5267 96.8885C93.4812 96.9339 93.9439 96.5176 93.7467 96.6917V96.6993V96.7069V96.722V96.7598L93.7391 96.828L93.7239 96.9642L93.6936 97.2291C93.6708 97.3956 93.6556 97.5546 93.6329 97.7287C93.5874 98.0466 93.5494 98.3342 93.5039 98.5688C93.4129 99.0381 93.337 99.3257 93.2839 99.3257Z" fill="#FFBB38"/>
<path d="M92.1764 109.755C92.0702 109.74 92.1081 108.567 92.2598 107.129C92.4116 105.691 92.624 104.533 92.7377 104.541C92.844 104.556 92.806 105.729 92.6543 107.167C92.495 108.613 92.2826 109.771 92.1764 109.755Z" fill="#FFBB38"/>
<path d="M93.7087 118.785C93.6632 118.884 92.5557 118.437 91.2433 117.786C91.2661 117.832 91.0385 117.415 91.1371 117.589V117.582V117.574V117.559V117.529L91.1447 117.461L91.1598 117.325L91.1902 117.06C91.213 116.901 91.2357 116.734 91.2509 116.568C91.2964 116.257 91.3419 115.97 91.3798 115.735C91.4633 115.266 91.5467 114.971 91.5998 114.978C91.6529 114.986 91.6681 115.281 91.6529 115.765C91.6453 116.008 91.6302 116.288 91.6074 116.605C91.5922 116.772 91.5771 116.939 91.5695 117.097L91.5467 117.362L91.5316 117.499L91.524 117.567V117.597V117.612V117.62V117.627C91.6226 117.801 91.395 117.385 91.4178 117.43C92.7377 118.081 93.7618 118.687 93.7087 118.785Z" fill="#FFBB38"/>
<path d="M100.718 122.259C100.673 122.358 99.8457 122.047 98.8747 121.571C97.9038 121.094 97.1603 120.624 97.2134 120.526C97.2589 120.428 98.0858 120.738 99.0568 121.215C100.028 121.692 100.771 122.161 100.718 122.259Z" fill="#FFBB38"/>
<path d="M109.063 124.174C109.101 124.273 108.038 124.803 106.673 125.355C106.347 125.34 106.582 125.355 106.514 125.347H106.506L106.499 125.34L106.483 125.332L106.453 125.317L106.392 125.287L106.271 125.226L106.036 125.105C105.892 125.03 105.748 124.954 105.596 124.871C105.315 124.719 105.065 124.583 104.86 124.462C104.443 124.22 104.2 124.038 104.223 123.993C104.246 123.947 104.534 124.031 104.981 124.212C105.201 124.303 105.467 124.417 105.755 124.545C105.907 124.621 106.059 124.689 106.21 124.757L106.445 124.871L106.567 124.931L106.628 124.961L106.658 124.977L106.673 124.984L106.681 124.992H106.688C106.62 124.992 106.848 124.999 106.529 124.984C107.887 124.439 109.025 124.076 109.063 124.174Z" fill="#FFBB38"/>
<path d="M114.729 121.888C114.767 121.987 114.168 122.327 113.387 122.645C112.605 122.963 111.938 123.137 111.892 123.039C111.854 122.94 112.454 122.6 113.235 122.282C114.024 121.957 114.691 121.782 114.729 121.888Z" fill="#FFBB38"/>
<path d="M120.297 117.105C120.404 117.113 120.373 118.308 120.221 119.762C119.979 120.087 120.153 119.853 120.1 119.928H120.093H120.085L120.07 119.936L120.039 119.951L119.979 119.974L119.85 120.027L119.607 120.125C119.455 120.186 119.304 120.239 119.144 120.299C118.848 120.413 118.575 120.503 118.348 120.579C117.893 120.723 117.597 120.791 117.574 120.738C117.551 120.685 117.809 120.534 118.242 120.314C118.454 120.208 118.719 120.087 119.008 119.958C119.167 119.89 119.311 119.822 119.463 119.762L119.706 119.663L119.827 119.61L119.888 119.588L119.918 119.572L119.933 119.565H119.941H119.948C119.895 119.641 120.07 119.406 119.827 119.724C119.979 118.271 120.191 117.097 120.297 117.105Z" fill="#FFBB38"/>
<path d="M121.314 107.303C121.42 107.311 121.397 108.424 121.253 109.778C121.117 111.133 120.912 112.223 120.806 112.208C120.699 112.2 120.722 111.088 120.866 109.733C121.003 108.378 121.208 107.288 121.314 107.303Z" fill="#FFBB38"/>
<path d="M119.455 99.4772C119.47 99.3713 120.661 99.4091 122.118 99.5681C122.467 99.9995 122.217 99.6892 122.292 99.7876V99.7951V99.8027V99.8178V99.8481L122.285 99.9162L122.27 100.052L122.239 100.317C122.217 100.476 122.201 100.643 122.179 100.809C122.133 101.127 122.095 101.407 122.05 101.642C121.966 102.119 121.883 102.406 121.83 102.399C121.777 102.391 121.754 102.096 121.769 101.612C121.777 101.369 121.792 101.089 121.815 100.772C121.83 100.605 121.845 100.438 121.852 100.272L121.875 100.007L121.89 99.8708L121.898 99.8027V99.7724V99.7573V99.7497V99.7421C121.974 99.8405 121.723 99.5226 122.072 99.9541C120.616 99.8027 119.44 99.5832 119.455 99.4772Z" fill="#FFBB38"/>
<path d="M110.147 98.4782C110.163 98.3722 111.209 98.3949 112.499 98.5311C113.781 98.6674 114.813 98.8718 114.805 98.9777C114.79 99.0837 113.743 99.061 112.454 98.9247C111.164 98.7809 110.132 98.5841 110.147 98.4782Z" fill="#FFBB38"/>
<path d="M100.839 97.4713C100.855 97.3654 101.901 97.3881 103.191 97.5243C104.473 97.6606 105.505 97.8649 105.497 97.9709C105.482 98.0768 104.435 98.0541 103.146 97.9179C101.856 97.7816 100.824 97.5849 100.839 97.4713Z" fill="#FFBB38"/>
<path d="M52.0621 84.6499C52.0166 85.5581 51.9938 86.4739 51.9938 87.3973C51.9938 91.0607 52.3655 94.6407 53.071 98.0997C53.0786 98.1375 53.0862 98.1678 53.0938 98.2056C53.1848 98.6446 53.291 99.0761 53.3972 99.5151C53.8145 101.226 54.3 102.913 54.8461 104.571C54.9144 104.775 54.9827 104.987 55.0585 105.192C57.0157 104.753 62.6976 99.8557 69.229 93.7249L55.6958 81.5845C53.7993 83.4691 52.6766 84.4379 52.0621 84.6499Z" fill="#FFBE9D"/>
<path d="M137.495 6.04004C137.965 11.2701 143.943 15.6752 149.2 15.5162C152.097 15.4254 155.033 14.1387 157.825 14.941C162.498 16.2883 164.387 22.7975 169.173 23.6679C172.754 24.3188 176.061 21.4275 179.687 21.2307C182.358 21.0869 184.876 22.419 187.084 23.9176C189.291 25.4163 191.415 27.1495 193.941 28.0048C196.475 28.8601 198.796 27.3388 201.353 26.5667C201.99 28.194 202.4 30.1846 203.211 31.9103C204.031 33.6285 205.009 36.7014 203.568 37.3675C203.568 37.3675 199.54 39.4489 197.211 39.3354C199.062 41.2427 201.99 42.0374 204.554 41.3184C205.199 45.2088 205.684 49.6895 203.052 52.6263C201.876 53.9281 200.222 54.7228 198.516 55.1618C190.057 57.3416 181.227 51.4455 172.648 53.0577C169.128 53.7162 165.904 55.6159 162.346 56.0776C158.849 56.5318 155.177 55.5024 152.439 53.2847C149.056 50.5524 146.727 45.9808 142.433 45.2693C140.529 44.9515 138.602 45.4964 136.736 46.0187C134.877 46.5409 132.928 47.0405 131.039 46.6469C129.15 46.2457 127.367 44.6411 127.458 42.7186" fill="#263238"/>
<path d="M120.692 56.8421C121.64 51.5666 122.732 46.0338 122.732 46.0338C122.732 46.0338 129.742 46.1019 132.723 37.481C135.56 29.2612 137.616 9.48385 137.616 9.48385C128.513 3.76938 116.429 4.38246 108.061 10.9901L101.075 53.9432C100.263 58.9311 103.912 63.6011 109.275 64.4261C114.669 65.2587 119.789 61.8602 120.692 56.8421Z" fill="#FFBE9D"/>
<path d="M132.397 24.2962C132.313 24.9017 131.729 25.3255 131.092 25.2499C130.462 25.1742 130.015 24.6216 130.098 24.0161C130.182 23.4106 130.766 22.9868 131.396 23.0625C132.033 23.1381 132.48 23.6907 132.397 24.2962Z" fill="#263238"/>
<path d="M134.468 23.35C134.301 23.4711 133.55 22.6839 132.321 22.472C131.1 22.2449 130.083 22.7142 129.977 22.5401C129.924 22.4644 130.114 22.2222 130.554 22.0027C130.986 21.7832 131.699 21.6243 132.458 21.7605C133.224 21.8967 133.815 22.2903 134.134 22.646C134.468 23.0018 134.551 23.297 134.468 23.35Z" fill="#263238"/>
<path d="M119.797 22.3055C119.713 22.911 119.129 23.3348 118.492 23.2591C117.862 23.1834 117.415 22.6309 117.498 22.0254C117.582 21.4199 118.166 20.996 118.795 21.0717C119.44 21.1474 119.888 21.6999 119.797 22.3055Z" fill="#263238"/>
<path d="M121.595 21.5412C121.428 21.6623 120.677 20.8752 119.448 20.6633C118.226 20.4362 117.21 20.9055 117.104 20.7314C117.051 20.6557 117.24 20.4135 117.68 20.194C118.113 19.9821 118.826 19.8155 119.584 19.9518C120.35 20.088 120.942 20.4816 121.261 20.8373C121.587 21.2006 121.67 21.4883 121.595 21.5412Z" fill="#263238"/>
<path d="M124.439 31.4031C124.447 31.335 125.228 31.335 126.495 31.3956C126.814 31.4183 127.125 31.4107 127.208 31.2063C127.322 30.9944 127.254 30.6311 127.163 30.2451C127.003 29.4352 126.836 28.5875 126.654 27.702C125.964 24.0916 125.524 21.1398 125.676 21.1095C125.82 21.0868 126.495 23.9932 127.185 27.6036C127.345 28.4967 127.504 29.3444 127.648 30.1543C127.701 30.5327 127.838 30.9717 127.595 31.4107C127.466 31.6302 127.208 31.7589 126.996 31.774C126.783 31.7967 126.609 31.774 126.45 31.7513C125.205 31.5999 124.432 31.4713 124.439 31.4031Z" fill="#263238"/>
<path d="M122.732 46.0338C122.732 46.0338 116.686 45.3677 111.391 40.7734C111.391 40.7734 113.205 47.3735 122.247 48.1076L122.732 46.0338Z" fill="#EB996E"/>
<path d="M123.4 34.2568C123.059 33.5983 122.346 33.1442 121.564 33.0912C121.018 33.0533 120.442 33.2199 120.039 33.5907C119.637 33.9692 119.463 34.5671 119.683 35.0288C119.933 35.5511 120.608 35.7781 121.223 35.7176C121.837 35.657 122.406 35.3618 122.952 35.0591C123.104 34.9758 123.256 34.8926 123.37 34.7563C123.476 34.6277 123.529 34.4384 123.446 34.3022" fill="#EB996E"/>
<path d="M120.684 31.615C120.889 31.6377 120.654 32.9698 121.625 34.1127C122.596 35.2556 124.037 35.3615 124.022 35.5432C124.03 35.6264 123.658 35.7475 123.059 35.6567C122.467 35.5735 121.64 35.2329 121.048 34.5365C120.457 33.8326 120.29 33.0152 120.343 32.4627C120.381 31.895 120.593 31.5923 120.684 31.615Z" fill="#263238"/>
<path d="M114.062 4.6472C116.436 9.87727 124.136 16.2351 130.076 18.4906C129.537 17.4158 126.192 14.3807 125.653 13.2984C128.05 15.9021 131.517 19.4291 135.181 20.3071C135.613 20.4131 136.091 20.4963 136.493 20.345C137.039 20.1406 137.252 19.5805 137.404 19.0734C138.048 16.9541 138.602 13.2151 138.655 11.005C138.716 8.79492 138.132 6.47129 136.531 4.68504C134.506 2.41439 131.198 1.32448 128.02 0.65085C125.35 0.0831867 122.558 -0.280118 119.926 0.226995C117.293 0.734107 114.836 2.24787 114.047 4.47311" fill="#263238"/>
<path d="M99.8912 24.3339C99.8761 21.9573 99.9292 19.7169 100.119 18.2561C100.718 13.6391 102.159 -3.14097 117.688 1.18084L116.034 5.47994C116.034 5.47994 117.225 16.2807 109.26 22.0784C109.26 22.0784 109.298 32.8564 103.775 36.7468C103.775 36.7468 99.9216 29.4353 99.8912 24.3339Z" fill="#263238"/>
<path d="M109.586 21.344C108.668 20.9958 107.659 20.8444 106.696 21.0261C105.732 21.2077 104.814 21.7375 104.268 22.555C103.722 23.3724 103.578 24.4169 103.745 25.3857C103.912 26.3545 104.375 27.2552 104.943 28.0575C105.353 28.6328 105.839 29.1777 106.468 29.5032C107.098 29.8286 107.894 29.9043 108.501 29.5486" fill="#FFBE9D"/>
<path d="M108.046 26.998C108.152 27.0509 107.636 27.5505 106.81 27.1645C106.408 26.9828 106.066 26.5438 105.899 26.0367C105.732 25.5296 105.664 24.9846 105.702 24.3791C105.748 23.7736 105.99 23.1681 106.4 22.7821C106.794 22.381 107.348 22.1993 107.781 22.2674C108.676 22.4037 108.843 23.0697 108.744 23.0697C108.661 23.1303 108.372 22.7518 107.758 22.7897C107.181 22.7972 106.491 23.4709 106.445 24.4473C106.377 25.4388 106.597 26.4 107.075 26.7179C107.568 27.0888 108.001 26.9071 108.046 26.998Z" fill="#EB996E"/>
<path d="M199.464 22.0708C199.464 22.0708 199.373 22.3206 199.047 22.6915C198.72 23.0548 198.114 23.5165 197.196 23.7511C196.293 23.9933 195.079 24.0085 193.835 23.5165C192.576 23.0472 191.339 22.1541 190.042 21.1399C188.737 20.1559 187.281 18.9903 185.415 18.5892C184.489 18.4151 183.488 18.4378 182.509 18.7178C181.531 18.9828 180.56 19.4218 179.589 19.9062C178.618 20.3906 177.632 20.9355 176.577 21.4124C175.523 21.8816 174.377 22.2828 173.148 22.3282C171.919 22.3812 170.66 22.0103 169.613 21.2988C168.559 20.5949 167.724 19.6185 166.958 18.6119C165.441 16.591 164.212 14.4112 162.361 12.9731C161.451 12.2541 160.366 11.8151 159.259 11.6713C158.151 11.5123 157.043 11.6258 155.974 11.8151C153.842 12.2086 151.855 12.8823 149.898 13.1245C147.94 13.3591 146.082 13.1547 144.489 12.6552C141.265 11.6864 139.141 9.83203 137.95 8.43936C136.759 7.00885 136.372 6.04004 136.372 6.04004C136.379 6.04004 136.417 6.08545 136.486 6.19142C136.562 6.31252 136.66 6.47146 136.782 6.65312C137.039 7.06183 137.457 7.64463 138.064 8.3334C139.285 9.68065 141.401 11.4669 144.572 12.3827C146.135 12.852 147.956 13.0336 149.86 12.7914C151.771 12.5417 153.744 11.8605 155.913 11.4442C156.998 11.2398 158.143 11.1263 159.312 11.2852C160.48 11.4291 161.633 11.8983 162.596 12.6476C164.546 14.1538 165.775 16.3639 167.277 18.3545C168.028 19.3461 168.84 20.2846 169.833 20.9507C170.82 21.6167 171.988 21.9649 173.133 21.9195C174.286 21.8816 175.394 21.5032 176.425 21.0491C177.465 20.5874 178.443 20.05 179.422 19.5656C180.401 19.0812 181.394 18.6346 182.418 18.3697C183.435 18.0896 184.504 18.0669 185.483 18.2562C187.455 18.7027 188.919 19.9137 190.217 20.9128C191.506 21.9346 192.712 22.8277 193.919 23.3046C195.117 23.8041 196.285 23.8041 197.165 23.5998C198.061 23.3954 198.652 22.964 198.994 22.6309C199.327 22.2903 199.441 22.0633 199.464 22.0708Z" fill="#263238"/>
<path d="M24.7377 172.426L10.9768 200.12L15.0884 200.272L3.42883 222.282H9.55066L0 241.832H53.3972L41.6391 222.282L47.2754 222.032L36.0027 200.037L40.1674 199.795L24.7377 172.426Z" fill="#FFBB38"/>
<path d="M27.0665 204.548C27.1727 204.548 27.0893 216.28 26.8769 230.744C26.6644 245.208 26.4065 256.932 26.2927 256.932C26.1865 256.932 26.27 245.208 26.4824 230.736C26.6948 216.272 26.9603 204.548 27.0665 204.548Z" fill="#263238"/>
<path d="M33.6132 211.67C33.6511 211.701 33.3552 212.177 32.7863 212.889C32.2173 213.6 31.3677 214.516 30.3891 215.485C29.4106 216.454 28.5382 217.332 27.9237 217.99C27.3093 218.641 26.9376 219.058 26.892 219.027C26.8541 218.997 27.15 218.52 27.7189 217.809C28.2878 217.097 29.1375 216.181 30.116 215.213C31.0946 214.244 31.967 213.366 32.5815 212.715C33.1883 212.049 33.5601 211.633 33.6132 211.67Z" fill="#263238"/>
<path d="M26.9376 219.3C26.8693 219.383 25.4963 218.429 23.8729 217.173C22.2495 215.909 20.9902 214.819 21.0509 214.728C21.1192 214.645 22.4847 215.599 24.1156 216.863C25.739 218.119 27.0059 219.217 26.9376 219.3Z" fill="#263238"/>
<path d="M26.5734 232.886C26.4976 232.969 25.0183 231.682 23.1522 230.169C21.2861 228.647 19.7234 227.467 19.7916 227.376C19.8523 227.292 21.5212 228.337 23.4025 229.866C25.2838 231.387 26.6417 232.81 26.5734 232.886Z" fill="#263238"/>
<path d="M34.1821 224.492C34.2807 224.568 32.718 226.588 30.5181 228.829C29.494 229.896 28.5685 230.865 27.7493 231.72C27.0438 232.462 26.619 232.931 26.5734 232.893C26.4748 232.818 28.0375 230.797 30.2374 228.556C31.2615 227.489 32.187 226.52 33.0063 225.673C33.7042 224.923 34.1366 224.454 34.1821 224.492Z" fill="#263238"/>
</g>
<defs>
<clipPath id="clip0_54_1092">
<rect width="300" height="257" fill="white"/>
</clipPath>
</defs>
</svg>
