<svg width="296" height="225" viewBox="0 0 296 225" fill="none" xmlns="http://www.w3.org/2000/svg">
<g clip-path="url(#clip0_58_17828)">
<path d="M178.1 121.086C176.655 121.684 175.152 122.141 173.62 122.468L173.277 127.675C175.372 126.009 177.994 123.492 179.195 120.6C178.913 120.735 178.626 120.868 178.331 120.993C178.255 121.025 178.176 121.054 178.1 121.086Z" fill="#E9BB8D"/>
<path d="M164.988 98.5321C163.323 97.2862 161.182 96.653 159.13 96.8484C159.06 97.1376 159.025 97.4416 159.029 97.7594C159.029 97.7708 159.029 97.7834 159.031 97.7948C159.072 99.5059 160.385 100.273 161.902 100.559C163.382 100.837 164.775 101.555 165.874 102.587C166.73 103.392 167.546 104.366 168.761 104.316C168.147 102.041 166.864 99.9368 164.988 98.5321Z" fill="#AE1C9A"/>
<path d="M159.13 96.8498C161.181 96.6532 163.323 97.2876 164.988 98.5334C166.864 99.9382 168.149 102.042 168.761 104.318C168.919 104.311 169.083 104.288 169.256 104.244C170.97 103.807 171.696 102.12 171.706 100.418C170.21 99.0158 166.416 96.0314 160.27 94.9204C159.719 95.445 159.31 96.0966 159.13 96.8498Z" fill="#9A442D"/>
<path d="M163.992 93.4595C162.655 93.4583 161.244 93.991 160.269 94.9202C166.415 96.0312 170.209 99.0156 171.705 100.418C171.711 99.4305 171.475 98.4384 171.049 97.6817C169.677 95.246 166.803 93.4618 163.992 93.4595Z" fill="white"/>
<path d="M176.579 155.106L198.329 154.73C199.449 154.711 200.398 155.385 200.854 156.345L201.092 155.095C201.438 153.277 200.049 151.597 198.226 151.627L175.675 152.004C172.454 152.058 169.748 154.476 169.286 157.714L167.06 173.326C167.566 173.14 168.128 172.983 168.752 172.859L170.417 160.794C170.863 157.569 173.473 155.16 176.579 155.106Z" fill="#1A3139"/>
<path d="M198.329 154.73L176.579 155.106C173.472 155.16 170.863 157.57 170.417 160.794L168.752 172.86C170.832 172.448 173.603 172.425 177.301 173.101C177.301 173.101 189.564 175.31 191.325 176.429C191.325 176.429 194.141 175.866 197.171 175.718L197.717 172.85L199.383 164.084L200.854 156.344C200.398 155.385 199.449 154.711 198.329 154.73Z" fill="#14252B"/>
<path d="M172.6 122.667C172.208 122.734 171.815 122.797 171.422 122.847C171.26 122.868 171.097 122.884 170.935 122.902C162.454 123.833 153.482 120.81 148.077 114.061C148.112 115.545 148.47 117.043 148.932 118.444C150.064 121.875 152.142 124.933 154.823 127.332C157.265 129.518 160.131 131.236 163.205 132.451C165.749 131.434 168.422 130.404 170.259 129.8C170.259 129.8 171.599 129.01 173.278 127.674L173.621 122.467C173.281 122.54 172.941 122.607 172.6 122.667Z" fill="#F2C94C"/>
<path d="M74.025 165.281C81.0664 157.844 75.9024 142.202 75.9024 142.202C72.8354 132.641 65.2737 128.993 60.8496 127.647C58.9427 127.293 57.3682 126.993 56.1933 126.766C55.6264 126.656 55.1528 126.563 54.7816 126.49C51.4869 134.67 42.9838 141.554 42.9838 141.554C42.9838 141.554 51.4881 134.67 54.7816 126.49C54.9046 126.184 55.0218 125.875 55.13 125.566C61.6306 116.552 68.3407 107.66 75.3935 99.0742C80.2638 93.1455 85.3482 87.3219 90.4542 81.5977C95.3587 76.101 100.672 70.7221 106.816 66.6198C107.864 65.9203 108.941 65.2619 110.053 64.671C110.053 64.671 116.449 67.2393 121.113 60.5608C120.987 58.2919 121.044 56.1625 121.16 54.4114C118.301 58.8703 114.014 62.2856 114.014 62.2856C114.014 62.2856 118.3 58.8703 121.16 54.4114C121.256 52.9472 121.394 51.7471 121.5 50.9607C117.811 50.164 116.613 48.5135 116.613 48.5135C119.837 47.1076 121.67 43.09 122.97 40.053C124.713 35.9817 125.424 31.5411 127.246 27.5246C126.921 27.5463 126.716 27.5554 126.716 27.5554C124.72 27.5554 121.906 30.4198 121.906 30.4198C121.906 30.4198 124.72 27.5554 126.716 27.5554C126.716 27.5554 126.921 27.5452 127.246 27.5246C127.361 27.2708 127.479 27.0182 127.604 26.7691C127.959 26.057 128.351 25.3632 128.778 24.6934C126.23 25.1471 124.019 25.4352 124.019 25.4352C121.086 25.4946 119.56 27.8995 119.56 27.8995C115.922 33.5459 100.548 49.4714 100.548 49.4714C97.7506 50.2509 95.6558 51.1962 94.3033 51.9128C93.2764 52.4569 92.36 53.185 91.5824 54.0502C83.1453 63.448 68.4056 70.7324 68.4056 70.7324C42.4259 80.5062 25.2033 100.417 25.2033 100.417C24.1468 102.406 12.3523 114.059 12.3523 114.059C-2.25871 127.924 2.31791 137.31 2.31791 137.31C3.89126 142.338 17.3262 150.05 22.3025 152.762C23.3874 153.353 24.4098 154.054 25.349 154.858C34.2085 162.455 52.4888 166.559 52.4888 166.559C53.7752 166.699 55.3691 166.881 57.0665 167.079C61.7741 167.632 67.2774 168.312 69.2515 168.556C72.0248 167.333 74.025 165.281 74.025 165.281Z" fill="#E9BB8D"/>
<path d="M194.902 60.5994C192.106 60.3754 189.306 59.8713 186.66 58.9203C183.569 57.8105 180.776 56.0182 178.761 53.3825C178.165 52.6018 177.642 51.764 177.204 50.8827C176.786 50.0426 176.538 49.1385 176.145 48.2961C175.465 46.8399 174.724 45.4203 173.693 44.1767C173.063 43.4178 172.332 42.7228 171.468 42.2405C171.468 42.2405 166.056 38.712 160.347 42.5902C158.115 41.5227 155.475 40.9946 153.095 41.4735C143.351 43.4383 142.261 56.24 142.394 64.2444C142.449 67.518 142.615 70.8315 141.937 74.0571C141.701 75.1784 141.084 76.6357 139.983 77.1421C138.765 77.7033 137.618 76.8152 137.075 75.7636C136.555 74.7555 136.359 73.5999 136.306 72.4443C134.423 69.4645 131.061 67.4734 127.472 67.7009C125.738 67.8106 124.132 68.445 122.774 69.4336C120.861 70.8258 119.441 72.9221 118.854 75.2561C117.739 79.7001 119.959 84.3018 124.106 86.2369C125.962 87.1033 128.091 87.3502 130.1 86.9742C130.641 86.8724 131.174 86.725 131.689 86.533C131.174 86.725 130.641 86.8724 130.1 86.9742L128.824 118.366L128.758 119.991L128.824 118.366C128.645 118.35 128.396 118.331 128.085 118.321C128.079 120.681 128.02 123.051 128.387 125.389C128.594 126.708 129.495 127.81 130.737 128.283C134.609 129.758 144.462 133.587 148.41 135.865C148.864 136.127 149.376 136.268 149.9 136.276C151.493 136.302 154.85 136.255 155.911 135.457C155.911 135.457 159.412 133.969 163.204 132.452C160.13 131.237 157.264 129.519 154.822 127.334C152.141 124.934 150.063 121.875 148.931 118.446C148.469 117.044 148.11 115.546 148.076 114.062C153.481 120.812 162.454 123.833 170.934 122.903C171.096 122.885 171.259 122.869 171.42 122.848C171.814 122.798 172.207 122.735 172.599 122.668C172.94 122.608 173.28 122.541 173.619 122.469C175.151 122.142 176.654 121.685 178.099 121.087C178.176 121.055 178.255 121.026 178.331 120.993C178.626 120.868 178.913 120.736 179.195 120.6C181.1 119.687 182.722 118.55 184.107 117.229C187.916 113.605 189.944 108.605 191.16 103.074C193.133 94.1008 193.628 84.8893 194.393 75.7567C194.522 74.2263 194.643 72.6946 194.759 71.163C195.023 67.6574 195.246 64.1473 195.427 60.636C195.253 60.6234 195.078 60.6131 194.902 60.5994ZM128.407 73.4822C126.862 74.2583 125.165 75.8665 125.027 79.2029C125.165 75.8676 126.862 74.2583 128.407 73.4822C126.928 72.4626 125.62 72.3003 125.62 72.3003C125.62 72.3003 126.928 72.4626 128.407 73.4822C129.665 74.3486 131.046 75.8356 131.857 78.3754C131.047 75.8356 129.665 74.3486 128.407 73.4822ZM155.792 62.5093C156.232 60.5834 158.436 59.5215 160.168 59.0609C161.959 58.5854 163.886 58.4871 165.647 59.0609C166.169 59.2312 166.69 59.4712 167.044 59.8919C167.398 60.3125 167.543 60.9491 167.266 61.4246C166.909 62.0407 166.076 62.131 165.367 62.1802C164.236 62.259 163.11 62.4133 161.998 62.6396C161.297 62.7825 160.603 62.9551 159.916 63.1563C159.035 63.4146 156.13 64.7622 155.764 63.1929C155.713 62.97 155.74 62.7345 155.792 62.5093ZM157.99 69.3011C157.99 69.3011 162.087 65.4206 165.852 69.7423C162.087 65.4206 157.99 69.3011 157.99 69.3011ZM164.123 74.6526C163.943 76.9615 162.875 78.7594 161.739 78.6703C160.603 78.5811 159.827 76.6369 160.007 74.328C160.187 72.0191 161.255 70.2212 162.391 70.3103C163.527 70.3995 164.303 72.3437 164.123 74.6526ZM156.107 84.263C154.185 84.0058 152.736 82.9885 152.868 81.9918C153 80.9951 154.666 80.3962 156.586 80.6534C158.508 80.9105 159.957 81.9278 159.825 82.9245C159.693 83.9212 158.028 84.5201 156.107 84.263ZM169.255 104.244C169.082 104.288 168.918 104.311 168.76 104.318C167.545 104.368 166.729 103.395 165.873 102.59C164.774 101.558 163.381 100.84 161.901 100.561C160.384 100.275 159.07 99.5072 159.029 97.7973C159.029 97.7858 159.029 97.7733 159.028 97.7618C159.024 97.4441 159.06 97.14 159.128 96.8509C159.308 96.0976 159.718 95.4461 160.268 94.9215C161.243 93.9911 162.653 93.4596 163.991 93.4607C166.803 93.463 169.677 95.2472 171.049 97.683C171.475 98.4396 171.711 99.4318 171.705 100.419C171.695 102.12 170.968 103.807 169.255 104.244ZM173.282 90.7564L176.829 90.0008C175.464 85.4745 175.191 69.3068 175.191 69.3068C175.191 69.3068 175.465 85.4745 176.829 90.0008L173.282 90.7564ZM179.866 63.0294C179.658 62.5196 179.891 61.9093 180.299 61.5435C180.708 61.1766 181.258 61.012 181.797 60.9171C183.621 60.596 185.517 60.9651 187.223 61.6875C188.873 62.387 190.907 63.7484 191.075 65.7166C191.094 65.9464 191.088 66.1829 191.005 66.3978C190.425 67.8997 187.736 66.1567 186.9 65.7772C186.248 65.4811 185.584 65.2137 184.91 64.9725C183.841 64.5908 182.748 64.2799 181.638 64.0433C180.946 63.8958 180.134 63.6901 179.866 63.0294ZM187.993 72.0694C187.993 72.0694 184.991 67.2848 180.27 70.5252C184.991 67.2837 187.993 72.0694 187.993 72.0694ZM185.495 76.1065C185.315 78.4154 184.247 80.2133 183.111 80.1242C181.975 80.035 181.2 78.0908 181.38 75.7819C181.56 73.473 182.627 71.6751 183.764 71.7642C184.901 71.8534 185.676 73.7976 185.495 76.1065ZM193.219 84.7967C193.086 85.7934 191.421 86.3924 189.5 86.1352C187.579 85.878 186.129 84.8608 186.261 83.8641C186.393 82.8674 188.059 82.2684 189.98 82.5256C191.901 82.7828 193.351 83.8 193.219 84.7967Z" fill="#E9BB8D"/>
<path d="M228.093 213.334C227.697 212.479 227.139 211.374 226.521 210.189C224.557 206.429 221.975 201.861 221.975 201.861C220.88 195.93 217.985 193.142 217.985 193.142C217.281 191.335 214.827 184.06 214.827 184.06C215.092 177.347 213.485 175.693 213.176 175.438C213.143 175.41 213.125 175.399 213.125 175.399C213.125 175.399 210.787 173.739 206.836 174.407C210.786 173.739 213.125 175.399 213.125 175.399C213.125 175.399 213.143 175.41 213.176 175.438C213.244 174.442 213.267 172.268 212.391 170.597C212.391 170.597 211.004 168.136 210.383 166.899C210.28 168.277 209.762 169.647 208.518 170.362C209.762 169.649 210.28 168.278 210.383 166.899C210.413 166.505 210.41 166.111 210.379 165.73C210.211 163.711 208.219 162.211 206.328 161.916C204.533 161.637 201.792 162.834 200.077 163.715C199.82 163.847 199.588 163.971 199.384 164.082L197.718 172.849C197.894 172.979 198.096 173.114 198.322 173.247C199.866 174.152 202.53 174.904 205.976 172.715C202.529 174.903 199.866 174.152 198.322 173.247C198.096 173.114 197.894 172.979 197.718 172.849L197.172 175.717C197.405 175.705 197.638 175.697 197.873 175.692C199.249 175.656 200.628 175.721 201.772 175.976C200.628 175.721 199.249 175.657 197.873 175.692C197.639 175.697 197.405 175.705 197.172 175.717C194.142 175.864 191.326 176.428 191.326 176.428C189.566 175.309 177.302 173.099 177.302 173.099C173.604 172.424 170.833 172.447 168.753 172.858C168.129 172.982 167.567 173.139 167.061 173.325C165.44 173.919 164.397 174.788 163.727 175.655C163.603 175.815 163.49 175.975 163.39 176.134C162.639 177.325 163.263 178.906 164.617 179.276C175.75 182.316 188.509 187.681 188.509 187.681C188.509 187.681 192.44 188.545 195.531 188.074C195.531 188.074 201.125 187.57 203.002 188.214C201.125 187.57 195.531 188.074 195.531 188.074C192.44 188.545 188.509 187.681 188.509 187.681C188.509 187.681 175.75 182.318 164.617 179.276C163.263 178.906 162.639 177.325 163.39 176.134C163.49 175.975 163.603 175.815 163.727 175.655C160.6 174.258 158.169 174.839 156.633 175.624C155.565 176.171 155.294 177.58 156.092 178.478L157.736 180.331L163.56 186.897C163.917 187.298 164.34 187.633 164.813 187.885L178.976 195.464C179.73 195.868 180.557 196.114 181.407 196.187L189.273 196.87C193.321 197.313 202.299 200.228 202.299 200.228C202.299 200.228 193.321 197.313 189.273 196.87L181.407 196.187C180.557 196.113 179.73 195.867 178.976 195.464L164.813 187.885C164.34 187.633 163.917 187.298 163.56 186.897L157.736 180.331C157.462 180.611 157.341 181.031 157.466 181.438L159.464 187.97L160.385 190.979C160.626 191.766 161.1 192.458 161.745 192.966L173.729 202.389C174.796 203.228 176.085 203.733 177.436 203.843L184.08 204.381C186.457 204.381 191.473 206.856 191.473 206.856C191.473 206.856 186.457 204.381 184.08 204.381L177.436 203.843C176.086 203.733 174.797 203.228 173.729 202.389L161.745 192.966C161.1 192.458 160.626 191.766 160.385 190.979L159.464 187.97C158.81 187.879 158.221 187.901 157.752 187.959C157.17 188.032 156.836 188.664 157.094 189.193L161.482 198.207C161.987 199.244 162.74 200.14 163.673 200.816L170.973 206.099C171.666 206.601 172.445 206.97 173.27 207.188L184.687 210.215C184.687 210.215 192.285 213.445 195.572 213.131C195.572 213.131 197.97 213.147 200.677 212.67C202.914 212.276 205.36 211.544 206.838 210.185C205.36 211.545 202.914 212.276 200.677 212.67C201.143 213.125 201.814 213.886 202.3 214.898C202.3 214.898 204.251 219.033 205.662 223.284H234.355L229.499 215.87C228.966 215.062 228.499 214.213 228.093 213.334Z" fill="#E9BB8D"/>
<path d="M127.246 27.5255C125.424 31.5432 124.713 35.9838 122.97 40.054C121.67 43.0898 119.837 47.1075 116.613 48.5145C116.613 48.5145 117.811 50.165 121.5 50.9617C122.068 51.084 122.693 51.188 123.384 51.26C122.693 51.1868 122.068 51.084 121.5 50.9617C121.394 51.7481 121.256 52.9482 121.16 54.4124C121.043 56.1635 120.987 58.294 121.113 60.5617C121.276 63.4695 121.739 66.5991 122.772 69.4337C124.13 68.445 125.736 67.8107 127.47 67.7009C131.059 67.4746 134.42 69.4646 136.303 72.4444C136.357 73.6011 136.553 74.7555 137.073 75.7637C137.616 76.8164 138.764 77.7033 139.981 77.1421C141.082 76.6346 141.699 75.1773 141.934 74.0572C142.613 70.8316 142.447 67.5169 142.392 64.2445C142.259 56.2401 143.348 43.4384 153.092 41.4736C155.473 40.9935 158.113 41.5216 160.344 42.5903C166.054 38.7121 171.466 42.2406 171.466 42.2406C172.33 42.7229 173.062 43.4179 173.691 44.1768C174.722 45.4204 175.463 46.84 176.143 48.2962C176.537 49.1397 176.784 50.0438 177.202 50.8828C177.64 51.7629 178.162 52.6007 178.759 53.3825C180.773 56.0183 183.567 57.8105 186.658 58.9204C189.303 59.8702 192.104 60.3754 194.9 60.5995C195.075 60.6132 195.251 60.6246 195.426 60.636C196.535 60.7138 197.652 60.7538 198.762 60.7046C197.652 60.7538 196.535 60.7126 195.426 60.636C195.245 64.1473 195.022 67.6564 194.758 71.1631C210.951 48.79 202.088 34.2647 199.076 30.4219C198.833 30.7442 198.569 31.0369 198.284 31.2837C198.57 31.0369 198.833 30.7442 199.076 30.4219C200.85 28.0696 201.494 24.0943 201.494 24.0943C197.104 25.5162 192.007 24.4703 188.526 21.4322C186.38 19.56 184.883 17.0625 182.983 14.94C178.044 9.42611 170.198 6.79034 163.029 8.90261C157.989 10.3874 153.343 14.0518 150.441 18.4421C146.653 16.7882 142.058 16.3413 138.073 17.4306C134.085 18.521 130.958 21.2802 128.778 24.6932C128.35 25.363 127.959 26.0568 127.604 26.7689C127.48 27.0203 127.361 27.2718 127.246 27.5255ZM176.784 35.1802C165.241 28.8206 160.563 39.926 160.563 39.926C160.563 39.926 165.242 28.8206 176.784 35.1802ZM160.233 37.2136C160.233 37.2136 161.177 28.3417 151.518 18.5873C161.177 28.3417 160.233 37.2136 160.233 37.2136Z" fill="#1A3139"/>
<path d="M247.517 208.617C246.899 206.642 246.249 204.676 245.579 202.717C245.538 202.771 245.494 202.822 245.447 202.871C240.457 208.009 229.804 209.759 226.52 210.189C227.139 211.373 227.697 212.478 228.092 213.334C228.498 214.213 228.965 215.062 229.496 215.872L234.351 223.285H250.886C250.828 221.093 250.701 218.902 250.152 216.767C249.44 213.999 248.371 211.342 247.517 208.617Z" fill="#E9BB8D"/>
<path d="M160.006 74.328C159.826 76.6368 160.602 78.5799 161.738 78.6702C162.874 78.7594 163.942 76.9614 164.122 74.6526C164.302 72.3437 163.526 70.4006 162.39 70.3103C161.254 70.2212 160.187 72.0191 160.006 74.328Z" fill="#1A3139"/>
<path d="M183.765 71.7644C182.629 71.6753 181.561 73.4732 181.381 75.7821C181.201 78.0909 181.976 80.034 183.112 80.1243C184.249 80.2135 185.317 78.4155 185.496 76.1067C185.676 73.7978 184.901 71.8536 183.765 71.7644Z" fill="#1A3139"/>
<path d="M159.825 82.9245C159.957 81.9278 158.508 80.9105 156.586 80.6533C154.665 80.3962 153 80.9951 152.868 81.9918C152.736 82.9885 154.185 84.0058 156.107 84.2629C158.028 84.5201 159.693 83.9212 159.825 82.9245Z" fill="#E8A28F"/>
<path d="M189.98 82.5259C188.058 82.2687 186.393 82.8677 186.261 83.8644C186.129 84.8611 187.579 85.8783 189.5 86.1355C191.422 86.3927 193.086 85.7937 193.219 84.7971C193.351 83.8004 191.901 82.7831 189.98 82.5259Z" fill="#E8A28F"/>
<path d="M159.917 63.1576C160.604 62.9564 161.298 62.785 162 62.641C163.111 62.4135 164.237 62.2604 165.368 62.1815C166.078 62.1323 166.909 62.042 167.267 61.426C167.544 60.9505 167.399 60.3138 167.045 59.8932C166.691 59.4726 166.171 59.2325 165.648 59.0622C163.887 58.4884 161.959 58.5856 160.169 59.0622C158.439 59.5229 156.233 60.5847 155.793 62.5107C155.742 62.7347 155.714 62.9713 155.767 63.1953C156.131 64.7624 159.036 63.4148 159.917 63.1576Z" fill="#1A3139"/>
<path d="M184.912 64.9735C185.586 65.2136 186.25 65.4822 186.902 65.7782C187.738 66.1577 190.427 67.9008 191.008 66.3988C191.091 66.184 191.096 65.9474 191.077 65.7176C190.91 63.7494 188.875 62.3869 187.226 61.6885C185.519 60.965 183.624 60.597 181.8 60.9181C181.26 61.013 180.71 61.1776 180.302 61.5445C179.893 61.9114 179.661 62.5206 179.868 63.0304C180.136 63.6911 180.947 63.8968 181.643 64.0454C182.749 64.2809 183.843 64.5918 184.912 64.9735Z" fill="#1A3139"/>
<path d="M178.584 161.734C178.871 160.513 178.117 159.289 176.901 159.001C175.685 158.712 174.466 159.469 174.178 160.69C173.891 161.911 174.644 163.135 175.861 163.424C177.077 163.712 178.296 162.956 178.584 161.734Z" fill="#F7F3E2"/>
<path d="M175.716 223.287H205.659C204.248 219.036 202.297 214.9 202.297 214.9C201.811 213.889 201.14 213.126 200.673 212.673C197.967 213.149 195.568 213.133 195.568 213.133C192.283 213.448 184.683 210.218 184.683 210.218L176.799 208.127L173.652 211.207L175.716 223.287Z" fill="#AE1C9A"/>
<path d="M245.879 201.341C245.744 200.742 245.555 199.872 245.362 198.902C245.172 194.632 244.663 189.449 244.663 189.449C245.25 163.881 238.033 145.353 238.033 145.353C236.625 138.107 232.487 136.517 232.487 136.517C228.527 130.508 207.403 124.408 207.403 124.408C202.249 120.934 190.068 118.34 184.109 117.229C182.722 118.549 181.101 119.686 179.196 120.599C177.995 123.491 175.373 126.007 173.278 127.674C171.6 129.009 170.259 129.8 170.259 129.8C168.422 130.404 165.749 131.434 163.205 132.451C159.413 133.968 155.912 135.456 155.912 135.456C154.851 136.255 151.494 136.302 149.901 136.276C149.378 136.268 148.865 136.126 148.411 135.864C144.463 133.586 134.612 129.757 130.739 128.282C129.495 127.809 128.595 126.707 128.388 125.388C128.02 123.051 128.079 120.68 128.086 118.32C126.405 118.261 122.983 118.417 119.825 120.255C119.825 120.255 118.241 121.227 116.129 121.227C116.129 121.227 114.867 121.139 114.163 122.022C114.163 122.022 109.879 122.287 107.59 123.584C107.59 123.584 104.363 122.932 102.016 124.407C102.016 124.407 89.7233 123.08 83.6496 124.407C83.6496 124.407 74.9358 122.199 71.8551 123.525C71.8551 123.525 68.3897 121.002 65.3989 121.407C64.8103 121.487 64.2502 121.709 63.7527 122.036C63.0548 122.493 61.7376 123.449 61.2925 124.408C61.2925 124.408 57.7792 124.411 56.1945 126.766C57.3694 126.993 58.9438 127.294 60.8508 127.647C58.8414 127.035 57.4786 126.899 57.4786 126.899C57.4786 126.899 58.8414 127.035 60.8508 127.647C65.2748 128.993 72.8365 132.641 75.9035 142.202C75.9035 142.202 81.0676 157.844 74.0262 165.281C74.0262 165.281 72.0259 167.334 69.2537 168.56C67.3252 169.413 65.0232 169.866 62.7588 168.948C65.0221 169.867 67.3241 169.413 69.2537 168.56C67.2797 168.315 61.7763 167.634 57.0688 167.083C58.7901 168.502 62.3831 170.69 68.2656 170.826C68.3475 170.828 68.4272 170.832 68.5092 170.833C68.5092 170.833 75.6678 169.372 78.2499 169.455C75.6678 169.372 68.5092 170.833 68.5092 170.833C68.4261 170.832 68.3475 170.827 68.2656 170.826C70.4617 172.121 75.0906 174.789 77.7285 175.841C77.7285 175.841 81.548 178.236 83.3661 181.753C83.0644 177.322 83.0838 174.463 83.1293 173.066C83.1464 172.522 83.2056 171.981 83.3103 171.446C85.0066 162.76 81.5366 144.027 81.5366 144.027C81.5366 144.027 85.0066 162.759 83.3103 171.446C83.2056 171.981 83.1475 172.521 83.1293 173.066C83.0838 174.463 83.0644 177.322 83.3661 181.753C83.7122 186.831 84.4795 193.972 86.1132 203.354C86.1132 203.354 87.287 212.898 87.0525 217.022L87.0775 223.287H130.002L132.066 211.206L111.273 190.856L124.392 188.943C110.629 165.556 106.182 141.554 106.182 141.554C106.182 141.554 110.629 165.556 124.392 188.943L135.803 187.279C112.853 165.541 106.182 127.415 106.182 127.415C106.182 127.415 112.853 165.541 135.803 187.279L140.008 186.665L152.859 160.522L159.886 174.815C161.007 174.796 162.292 175.018 163.724 175.658C164.395 174.79 165.438 173.921 167.059 173.327L169.285 157.716C169.747 154.479 172.453 152.059 175.674 152.006L198.224 151.628C200.047 151.597 201.436 153.278 201.091 155.096L200.853 156.347L199.382 164.086C199.586 163.974 199.818 163.85 200.074 163.719C201.79 162.837 204.531 161.641 206.326 161.92C208.217 162.214 210.209 163.714 210.376 165.734C210.408 166.114 210.41 166.508 210.381 166.902C211.001 168.14 212.389 170.601 212.389 170.601C213.265 172.272 213.242 174.446 213.173 175.442C213.483 175.697 215.09 177.35 214.824 184.063C214.824 184.063 217.279 191.339 217.982 193.146C217.982 193.146 220.877 195.935 221.973 201.864C221.973 201.864 224.555 206.433 226.519 210.192C229.803 209.764 240.456 208.013 245.445 202.875C245.493 202.826 245.537 202.774 245.578 202.721C245.875 202.328 245.989 201.826 245.879 201.341ZM100.372 125.566C100.372 125.566 93.6829 130.242 98.0841 145.618C93.6829 130.243 100.372 125.566 100.372 125.566ZM78.8954 137.312C73.0858 126.089 67.0417 123.704 67.0417 123.704C67.0417 123.704 73.0869 126.089 78.8954 137.312ZM58.5636 126.53C58.5636 126.53 68.6265 122.404 78.2499 138.606C68.6265 122.405 58.5636 126.53 58.5636 126.53ZM82.7104 171.855C81.6436 166.9 78.0757 166.397 77.0454 166.357C76.7926 166.347 76.5433 166.301 76.3031 166.223C75.1817 165.858 74.9654 165.454 74.9654 165.454C74.9654 165.454 75.1817 165.858 76.3031 166.223C76.5433 166.302 76.7926 166.347 77.0454 166.357C78.0745 166.397 81.6425 166.9 82.7104 171.855ZM113.047 211.189C106.006 200.408 96.5848 165.281 96.5848 165.281C89.9806 144.648 79.6001 128.121 79.6001 128.121C79.6001 128.121 89.9806 144.647 96.5848 165.281C96.5848 165.281 106.006 200.407 113.047 211.189ZM124.372 133.247C120.265 127.12 108.53 124.408 108.53 124.408C108.53 124.408 120.265 127.12 124.372 133.247C124.372 133.247 133.996 150.213 139.512 152.806C133.995 150.213 124.372 133.247 124.372 133.247ZM150.095 149.738C148.745 148.884 147.539 147.82 146.522 146.585C138.897 137.33 125.545 133.247 125.545 133.247C125.545 133.247 138.897 137.33 146.522 146.585C147.539 147.82 148.745 148.884 150.095 149.738C154.563 152.563 164.351 158.904 167.011 161.876C164.352 158.904 154.563 152.563 150.095 149.738ZM234.6 143.851C234.6 143.851 227.911 167.888 222.542 173.102C227.911 167.888 234.6 143.851 234.6 143.851ZM216.732 189.096C218.845 183.205 223.539 169.066 224.478 161.76C225.418 154.455 232.225 137.841 232.225 137.841C232.225 137.841 225.418 154.455 224.478 161.76C223.539 169.066 218.844 183.205 216.732 189.096ZM218.317 191.04C230.528 185.987 232.684 178.139 232.908 177.176C232.934 177.064 232.963 176.952 232.994 176.841C234.106 172.878 237.065 165.28 237.065 165.28C237.065 165.28 234.106 172.878 232.994 176.841C232.963 176.952 232.934 177.062 232.908 177.176C232.684 178.139 230.527 185.987 218.317 191.04ZM224.478 200.231C243.402 192.719 243.314 171.776 243.314 171.776C243.314 171.776 243.402 192.719 224.478 200.231Z" fill="#AE1C9A"/>
<path d="M140.008 186.664L135.803 187.278C136.136 187.594 136.472 187.907 136.812 188.215C136.472 187.907 136.136 187.594 135.803 187.278L124.392 188.942C129.202 197.117 135.15 205.216 142.445 212.19C135.15 205.216 129.202 197.117 124.392 188.942L111.273 190.856L132.066 211.206L130.002 223.286H175.716L173.652 211.206L176.799 208.125L173.267 207.189C172.442 206.97 171.663 206.601 170.97 206.1L163.67 200.817C162.736 200.142 161.984 199.245 161.478 198.208L157.091 189.194C156.833 188.665 157.167 188.033 157.749 187.961C158.218 187.902 158.806 187.882 159.461 187.971L157.463 181.439C157.339 181.032 157.458 180.612 157.733 180.332L156.089 178.479C155.292 177.581 155.562 176.172 156.63 175.625C157.462 175.2 158.558 174.838 159.883 174.814L152.857 160.521L140.008 186.664Z" fill="#F6CF67"/>
<path opacity="0.15" d="M23.787 153.251C23.787 153.251 36.6869 163.401 55.492 161.735C67.7555 160.648 74.9939 147.269 69.0283 136.456C66.8243 132.462 63.4396 128.956 58.2596 127.161C58.2596 127.161 73.696 127.226 82.6421 151.13C82.6421 151.13 84.7938 164.089 83.1862 172.251L82.9187 180.973C82.9187 180.973 80.8592 177.693 77.7285 175.84C77.7285 175.84 70.6461 172.4 68.8462 171.167C68.8462 171.167 60.3738 170.208 57.0688 167.083C57.0688 167.083 37.9802 165.83 23.787 153.251Z" fill="black"/>
<path opacity="0.15" d="M109.916 64.409C109.916 64.409 113.245 64.2387 117.203 59.3249C117.203 59.3249 120.17 56.0171 118.759 50.0518C118.759 50.0518 120.351 50.7536 121.501 50.9604C121.501 50.9604 120.742 56.8892 121.115 60.5605C121.115 60.5617 117.551 66.9419 109.916 64.409Z" fill="black"/>
<path opacity="0.15" d="M92.04 152.905C92.04 152.905 97.1494 176.342 97.2508 183.656C97.2508 183.656 99.1714 217.129 103.115 223.285H119.191C119.191 223.285 105.477 199.799 100.506 178.838C100.504 178.84 93.3436 154.841 92.04 152.905Z" fill="black"/>
<path opacity="0.15" d="M227.69 149.949C227.69 149.949 224.509 161.364 226.397 166.22C226.397 166.22 224.225 171.888 221.705 173.715L224.478 162.477C224.477 162.478 225.682 153.184 227.69 149.949Z" fill="black"/>
<path opacity="0.15" d="M218.716 182.691C218.716 182.691 217.906 189.915 220.744 189.936C220.744 189.936 219.894 199.327 227.69 198.905C227.69 198.905 233.294 210.5 244.021 204.378C244.021 204.378 229.543 210.759 229.937 216.155L221.974 201.862C221.974 201.862 219.96 194.304 217.714 193.425L216.703 189.557L218.716 182.691Z" fill="black"/>
<path opacity="0.15" d="M197.715 172.851L197.17 175.719C197.17 175.719 200.581 175.551 201.77 175.979C201.77 175.979 205.623 174.622 207.703 174.295C207.703 174.295 207.367 173.243 209.693 169.21C212.019 165.176 209.956 169.971 205.832 172.807C205.83 172.807 201.422 175.35 197.715 172.851Z" fill="black"/>
<path opacity="0.15" d="M206.65 210.349C206.65 210.349 203.412 214.889 204.457 218.937L201.648 213.807L200.674 212.672C200.673 212.671 205.693 211.683 206.65 210.349Z" fill="black"/>
<path opacity="0.15" d="M202.298 200.231C202.298 200.231 191.381 198.536 187.336 199.423C187.336 199.423 182.537 197.813 180.89 196.494C180.89 196.494 189.909 195.837 202.298 200.231Z" fill="black"/>
<path opacity="0.15" d="M214.527 183.459C214.527 183.459 215.531 187.221 214.527 189.097C214.527 189.097 215.271 194.119 214.75 195.742C214.75 195.742 213.219 198.13 213.016 199.423C213.016 199.423 216.151 196.35 216.151 195.335C216.151 195.335 215.784 186.91 214.527 183.459Z" fill="black"/>
<path opacity="0.15" d="M159.426 130.638C159.426 130.638 164.427 132.332 165.417 134.65C165.417 134.65 194.367 145.288 207.268 124.608C207.268 124.608 204.009 120.938 184.109 117.229C184.109 117.229 179.504 121.208 173.612 122.579L173.42 125.513L169.554 127.637C169.554 127.637 164.462 128.721 159.426 130.638Z" fill="black"/>
<path d="M164.31 68.0403C163.657 67.5956 162.859 67.3282 162.051 67.3007C161.241 67.2767 160.445 67.4813 159.75 67.8357C159.059 68.1957 158.437 68.6803 157.989 69.301C158.653 68.9375 159.314 68.6335 159.99 68.4186C160.664 68.2026 161.348 68.086 162.024 68.1054C162.699 68.1328 163.364 68.2963 163.998 68.5912C164.634 68.8849 165.236 69.2941 165.851 69.7422C165.491 69.0712 164.961 68.4872 164.31 68.0403Z" fill="#1A3139"/>
<path d="M186.653 70.2074C186.069 69.6907 185.347 69.2918 184.558 69.1135C183.768 68.9386 182.929 68.9981 182.188 69.2644C181.447 69.5353 180.788 69.9674 180.27 70.5251C180.976 70.244 181.661 69.9982 182.351 69.8748C183.04 69.7479 183.724 69.7559 184.384 69.8999C185.043 70.0519 185.676 70.3354 186.275 70.7137C186.875 71.0921 187.441 71.5504 187.994 72.0693C187.714 71.355 187.234 70.7286 186.653 70.2074Z" fill="#1A3139"/>
<path d="M167.33 103.636C166.927 103.289 166.582 102.869 166.193 102.461C165.409 101.62 164.418 100.948 163.328 100.544C163.055 100.442 162.775 100.362 162.494 100.29C162.353 100.256 162.21 100.224 162.068 100.197L161.674 100.122C161.164 100.02 160.678 99.8431 160.256 99.5814C160.042 99.4522 159.862 99.2819 159.7 99.0956C159.538 98.9082 159.409 98.6898 159.322 98.4464C159.13 97.9652 159.091 97.4063 159.13 96.8496C158.92 97.3708 158.836 97.9606 158.944 98.5527C159.047 99.1459 159.405 99.7105 159.887 100.088C160.364 100.481 160.934 100.703 161.496 100.862C161.791 100.94 162.046 100.979 162.298 101.052C162.551 101.123 162.802 101.201 163.047 101.299C164.032 101.672 164.951 102.214 165.761 102.917C166.174 103.273 166.602 103.657 167.101 103.959C167.596 104.257 168.204 104.439 168.76 104.318C168.199 104.253 167.724 103.99 167.33 103.636Z" fill="#E8A28F"/>
<path d="M171.213 42.8155C171.611 43.0624 171.944 43.3356 172.274 43.6545C172.6 43.9699 172.91 44.3117 173.196 44.6797C173.771 45.4101 174.256 46.2194 174.691 47.0698C174.906 47.4973 175.119 47.9282 175.324 48.3682C175.43 48.5957 175.522 48.7946 175.608 49.0094C175.694 49.2243 175.778 49.4484 175.863 49.6781C176.032 50.1376 176.207 50.6268 176.439 51.1194C176.669 51.5995 176.913 52.0487 177.183 52.4956C177.729 53.3791 178.357 54.2158 179.07 54.9748C179.786 55.7292 180.566 56.4195 181.408 57.0173C183.098 58.2038 184.968 59.0976 186.909 59.6714C188.841 60.2669 190.83 60.6041 192.816 60.7755C193.811 60.8487 194.804 60.8921 195.796 60.8841C196.789 60.8795 197.783 60.8372 198.764 60.7046C197.776 60.6578 196.798 60.5629 195.823 60.4383C194.848 60.3137 193.878 60.1777 192.919 59.9914C190.999 59.6416 189.116 59.1467 187.31 58.4804C186.411 58.1375 185.538 57.7523 184.696 57.3122C183.857 56.8653 183.057 56.3578 182.308 55.7863C180.809 54.6444 179.524 53.258 178.549 51.6521C178.304 51.2566 178.07 50.8394 177.868 50.4302C177.673 50.0313 177.505 49.5901 177.329 49.1249C177.24 48.8917 177.148 48.6528 177.047 48.4117C176.947 48.1693 176.828 47.9202 176.722 47.7007C176.504 47.2481 176.277 46.7932 176.025 46.3485C175.527 45.4581 174.959 44.5826 174.28 43.7848C173.942 43.387 173.579 43.003 173.174 42.6555C172.773 42.3114 172.314 41.9868 171.856 41.7422C170.019 40.7181 167.936 40.254 165.885 40.3912L165.503 40.4186C165.375 40.4266 165.25 40.4575 165.124 40.4758C164.872 40.5215 164.619 40.5535 164.371 40.6107C163.879 40.749 163.385 40.861 162.924 41.0759L162.575 41.2187L162.4 41.2907L162.234 41.381L161.574 41.7411C161.351 41.852 161.155 42.0131 160.951 42.1549L160.349 42.5915C161.233 42.1446 162.117 41.7171 163.063 41.4976C163.525 41.357 164.004 41.2999 164.475 41.2233C164.711 41.1959 164.952 41.1936 165.188 41.1776C165.307 41.1742 165.425 41.1582 165.544 41.1639L165.9 41.1787C166.846 41.205 167.785 41.3616 168.682 41.6474C169.574 41.9388 170.445 42.3069 171.213 42.8155Z" fill="#3C545E"/>
<path d="M163.583 36.2316C164.759 35.1892 166.122 34.3765 167.609 33.9627C168.347 33.7421 169.115 33.6198 169.89 33.6038L170.181 33.589L170.472 33.597C170.667 33.605 170.861 33.6004 171.056 33.6187C171.443 33.6644 171.835 33.6861 172.221 33.7638C173.773 34.0233 175.292 34.5479 176.784 35.18C175.453 34.2542 173.954 33.5398 172.346 33.1478C170.746 32.742 169.009 32.7214 167.389 33.1889C166.583 33.4278 165.806 33.7684 165.093 34.2085C164.385 34.6554 163.727 35.1777 163.153 35.7778C162.004 36.97 161.096 38.385 160.563 39.9258C161.394 38.5336 162.413 37.2831 163.583 36.2316Z" fill="#3C545E"/>
<path d="M160.312 34.5538L160.253 33.8875L160.16 33.2257C160.106 32.781 160.002 32.3478 159.908 31.9112C159.825 31.4712 159.693 31.0448 159.568 30.6162C159.502 30.4024 159.45 30.1841 159.372 29.975L159.146 29.344L158.913 28.7154C158.834 28.5062 158.735 28.3062 158.646 28.1016C158.459 27.697 158.292 27.2809 158.088 26.8843L157.449 25.7081L157.289 25.4144L157.111 25.1321L156.753 24.5686C156.283 23.8108 155.747 23.0998 155.201 22.4003C154.939 22.0425 154.642 21.7111 154.345 21.3819L153.454 20.3966C152.826 19.7725 152.176 19.1725 151.517 18.5884C152.048 19.2982 152.618 19.9657 153.156 20.6561L153.935 21.7133C154.193 22.0654 154.468 22.4037 154.698 22.7763C154.937 23.141 155.178 23.5033 155.425 23.861L155.608 24.1308L155.775 24.412L156.106 24.9732L156.443 25.531L156.612 25.8087L156.764 26.0968L157.37 27.2489C158.143 28.8011 158.799 30.4093 159.302 32.0724C159.788 33.7377 160.161 35.4511 160.229 37.217C160.381 36.3392 160.368 35.4419 160.312 34.5538Z" fill="#3C545E"/>
<path d="M201.439 23.9182C199.062 24.6337 196.5 24.644 194.119 24.0074C191.731 23.3787 189.55 22.0814 187.861 20.2926C186.15 18.5072 184.817 16.3412 183.066 14.4564L182.4 13.7592C182.177 13.5283 181.93 13.3214 181.695 13.102C181.233 12.6539 180.713 12.2756 180.213 11.8721C179.953 11.6835 179.686 11.5063 179.422 11.3235L179.024 11.0514L178.611 10.8045L177.782 10.3153L176.924 9.88099C176.78 9.81013 176.639 9.7324 176.492 9.66839L176.049 9.4798C175.753 9.3575 175.462 9.22148 175.161 9.11175C174.555 8.90487 173.956 8.67284 173.331 8.52311C173.02 8.44653 172.715 8.34251 172.398 8.28879L171.455 8.10477C171.142 8.03733 170.819 8.01904 170.503 7.97332C170.184 7.93675 169.868 7.88645 169.547 7.8796L168.587 7.83159C168.267 7.82359 167.946 7.84188 167.626 7.84645L167.146 7.85788C166.986 7.86588 166.827 7.8876 166.667 7.90131L165.712 8.00075L164.767 8.17335L164.296 8.2625L163.831 8.38595L162.905 8.63512L161.997 8.94145C159.602 9.82727 157.381 11.1394 155.431 12.7625C153.487 14.3913 151.771 16.2967 150.441 18.4444C151.902 16.387 153.659 14.5559 155.648 13.0368C157.634 11.5189 159.829 10.2685 162.183 9.47523L163.071 9.20091L163.973 8.98374L164.423 8.87629L164.881 8.80314L165.796 8.66027L166.72 8.58597C166.873 8.57454 167.027 8.55511 167.181 8.55054L167.644 8.54597C167.953 8.54597 168.261 8.53225 168.57 8.54368L169.493 8.60197C169.802 8.61112 170.107 8.66484 170.413 8.7037C170.718 8.75171 171.027 8.77228 171.327 8.842L172.233 9.0306C172.537 9.08546 172.829 9.19062 173.128 9.2672C173.728 9.41351 174.304 9.64096 174.887 9.84099C175.176 9.94843 175.455 10.081 175.741 10.1999L176.167 10.3828C176.308 10.4456 176.442 10.5211 176.581 10.5897L177.405 11.0114L178.201 11.4858L178.597 11.7247L178.978 11.9887C179.23 12.1659 179.488 12.3373 179.737 12.5202C180.215 12.9111 180.721 13.2689 181.166 13.6986C181.391 13.9089 181.63 14.1067 181.846 14.3273L182.49 14.9948C184.183 16.7984 185.531 18.9679 187.342 20.8024C188.238 21.7236 189.272 22.5352 190.392 23.173C191.515 23.8096 192.73 24.2714 193.979 24.5697C196.373 25.1389 198.918 25.0989 201.26 24.3651C201.165 24.9138 201.05 25.4635 200.91 26.0053C200.745 26.6466 200.55 27.2821 200.32 27.9039C200.089 28.5245 199.815 29.1303 199.487 29.7064C199.159 30.2802 198.781 30.8357 198.286 31.2849C198.806 30.8654 199.219 30.327 199.584 29.7658C199.945 29.2 200.245 28.5977 200.507 27.9793C200.767 27.3598 200.99 26.7266 201.184 26.0842C201.379 25.4407 201.546 24.7937 201.678 24.1262L201.737 23.8302L201.439 23.9182Z" fill="#3C545E"/>
<path d="M201.05 152.892C200.625 152.146 199.896 151.563 199.05 151.358C198.632 151.246 198.173 151.253 197.812 151.261L196.662 151.274L187.461 151.406L178.261 151.582L175.962 151.635L175.674 151.642L175.371 151.662L175.068 151.683C174.968 151.693 174.868 151.714 174.768 151.729C174.567 151.758 174.368 151.792 174.173 151.849C173.976 151.897 173.78 151.947 173.593 152.021C172.059 152.543 170.743 153.639 169.93 155.029C169.521 155.721 169.236 156.485 169.085 157.271C169.007 157.671 168.967 158.047 168.916 158.43L168.767 159.575L168.171 164.157C167.802 167.214 167.406 170.268 167.061 173.33C167.585 170.295 168.059 167.252 168.559 164.213L169.268 159.647L169.444 158.507C169.504 158.128 169.557 157.739 169.635 157.384C169.79 156.663 170.069 155.972 170.457 155.35C171.23 154.103 172.442 153.146 173.819 152.69C173.989 152.625 174.165 152.584 174.342 152.543C174.517 152.493 174.696 152.466 174.876 152.442C174.966 152.429 175.054 152.412 175.144 152.404L175.415 152.389L175.686 152.375L175.974 152.371L178.275 152.347L187.476 152.216L196.676 152.041L197.826 152.015C198.229 152.003 198.547 151.996 198.874 152.076C199.527 152.224 200.103 152.669 200.443 153.252C200.615 153.544 200.729 153.868 200.777 154.205C200.784 154.289 200.796 154.374 200.801 154.458L200.797 154.713C200.78 154.883 200.761 155.045 200.723 155.243L200.319 157.517L198.704 166.613C198.194 169.65 197.657 172.682 197.171 175.725C197.836 172.717 198.45 169.699 199.09 166.687L200.925 157.634L201.384 155.37C201.423 155.192 201.455 154.971 201.478 154.759L201.486 154.437C201.482 154.329 201.469 154.222 201.46 154.115C201.403 153.681 201.263 153.266 201.05 152.892Z" fill="#3C545E"/>
<path d="M173.282 90.7562C173.888 90.6991 174.49 90.6236 175.092 90.5482C175.692 90.4636 176.294 90.3882 176.892 90.2922L177.181 90.2453L177.114 89.9138C176.78 88.2633 176.644 86.5374 176.496 84.8252L176.114 79.6622C175.999 77.9375 175.865 76.2138 175.722 74.4879C175.569 72.7619 175.414 71.0349 175.19 69.3066C175.034 71.0429 174.983 72.7802 174.965 74.5164C174.957 76.2527 174.988 77.99 175.076 79.7251C175.161 81.4602 175.301 83.1953 175.503 84.9258C175.624 85.7899 175.726 86.6563 175.898 87.517C175.968 87.9479 176.079 88.3776 176.17 88.8074C176.213 89.0223 176.278 89.2349 176.347 89.4486L176.454 89.7961C175.974 89.9298 175.496 90.0704 175.018 90.2076C174.44 90.3847 173.859 90.5608 173.282 90.7562Z" fill="#A0724A"/>
<path d="M170.094 123.278C171.132 123.227 172.165 123.085 173.186 122.894C173.307 122.872 173.424 122.848 173.543 122.824C173.475 123.136 173.42 123.447 173.38 123.759C173.318 124.191 173.281 124.624 173.249 125.059C173.239 125.252 173.231 125.443 173.223 125.636C173.212 125.878 173.207 126.119 173.209 126.364C173.209 126.8 173.225 127.234 173.278 127.675C173.391 127.248 173.463 126.816 173.519 126.384C173.566 126.051 173.598 125.715 173.628 125.382C173.634 125.283 173.642 125.186 173.65 125.086C173.673 124.651 173.695 124.216 173.693 123.781C173.691 123.456 173.677 123.131 173.65 122.804C174.514 122.629 175.372 122.406 176.215 122.143C177.049 121.88 177.876 121.576 178.68 121.222C178.831 121.16 178.98 121.093 179.127 121.023C180.078 120.585 180.999 120.078 181.874 119.489C182.744 118.906 183.567 118.251 184.332 117.531C185.091 116.806 185.795 116.024 186.44 115.195C187.713 113.525 188.738 111.677 189.538 109.745C189.942 108.784 190.281 107.795 190.586 106.798C190.897 105.801 191.159 104.794 191.391 103.782C191.846 101.756 192.224 99.7207 192.547 97.677C192.868 95.6299 193.133 93.5782 193.357 91.5242C193.587 89.4691 193.767 87.4129 193.924 85.352L194.81 73.003C194.96 70.9456 195.034 68.8802 195.141 66.8205C195.246 64.7574 195.34 62.6977 195.427 60.6357C195.061 64.7471 194.803 68.8654 194.416 72.971L193.311 85.2983C192.904 89.4017 192.5 93.5005 191.826 97.5593C191.139 101.609 190.374 105.678 188.798 109.436C188.031 111.319 187.052 113.113 185.835 114.727C185.22 115.527 184.545 116.285 183.823 116.986C183.093 117.682 182.303 118.315 181.469 118.882C179.8 120.018 177.937 120.858 176.006 121.479C175.041 121.788 174.056 122.04 173.061 122.233C172.066 122.438 171.06 122.596 170.046 122.663C165.999 123.015 161.861 122.466 158.044 121.025C156.133 120.311 154.301 119.368 152.619 118.2C150.938 117.028 149.4 115.64 148.08 114.061C150.589 117.342 154.071 119.833 157.902 121.39C161.747 122.931 165.95 123.563 170.094 123.278Z" fill="#A0724A"/>
<path d="M132.614 68.7008C131.077 67.7956 129.267 67.3041 127.453 67.3944C125.636 67.4687 123.862 68.1556 122.407 69.2415C120.942 70.3239 119.79 71.8075 119.048 73.4706C118.86 73.8866 118.707 74.3175 118.578 74.7553C118.447 75.1931 118.369 75.6457 118.286 76.0949C118.153 77.0013 118.156 77.9237 118.269 78.8301C118.375 79.7399 118.649 80.6223 119.013 81.4556C119.381 82.2877 119.847 83.0798 120.438 83.7713C121.023 84.464 121.692 85.0835 122.436 85.5967C122.817 85.8367 123.193 86.0893 123.605 86.2733C124.004 86.4814 124.422 86.6494 124.847 86.7911C126.543 87.3626 128.379 87.4164 130.093 87.0472C129.819 89.7675 129.622 92.4913 129.452 95.2151C129.359 96.5889 129.295 97.9651 129.218 99.339L129.028 103.465L128.881 107.594C128.847 108.97 128.799 110.346 128.779 111.723C128.726 114.477 128.702 117.233 128.757 119.991C129.036 117.246 129.235 114.499 129.406 111.75C129.499 110.376 129.562 109 129.64 107.626L129.829 103.5L129.975 99.371C130.009 97.9948 130.057 96.6187 130.076 95.2413C130.128 92.5107 130.154 89.7801 130.101 87.046C130.105 87.0449 130.109 87.0449 130.113 87.0437L130.101 87.0449L130.114 87.0437C130.656 86.9226 131.183 86.7466 131.69 86.5328C131.167 86.7031 130.628 86.8231 130.089 86.9043L130.094 86.9031L130.087 86.9043C129.228 87.0323 128.355 87.0529 127.499 86.9569C126.643 86.8563 125.801 86.6608 125.003 86.3522C124.605 86.1979 124.216 86.0207 123.848 85.8047C123.467 85.6104 123.121 85.3601 122.769 85.1235C122.086 84.6171 121.48 84.0136 120.956 83.3495C120.425 82.6889 120.003 81.9459 119.68 81.1676C119.356 80.388 119.13 79.5674 119.035 78.7295C118.937 77.894 118.94 77.0448 119.067 76.2126C119.148 75.8 119.221 75.3851 119.344 74.9816C119.469 74.5793 119.608 74.1804 119.778 73.794C120.45 72.2441 121.525 70.8725 122.857 69.8404C124.187 68.8048 125.808 68.1453 127.492 68.007C129.178 67.8722 130.905 68.2425 132.43 69.0346C133.97 69.8107 135.294 71.0097 136.305 72.4442C135.439 70.9125 134.145 69.6164 132.614 68.7008Z" fill="#A0724A"/>
<path d="M125.554 75.6479C125.25 76.192 125.051 76.7898 124.962 77.3945C124.881 78.0014 124.893 78.6129 125.028 79.2027C125.226 78.6278 125.379 78.0757 125.572 77.5465C125.764 77.0184 125.988 76.5166 126.253 76.0434C126.52 75.5702 126.829 75.1245 127.19 74.7038C127.476 74.3701 127.796 74.058 128.135 73.7368C128.543 74.0455 128.926 74.3781 129.284 74.7404C129.794 75.2559 130.251 75.8251 130.671 76.4355C131.092 77.047 131.463 77.6996 131.855 78.374C131.78 77.5956 131.549 76.8367 131.217 76.12C130.874 75.4079 130.416 74.7415 129.854 74.1723C129.294 73.602 128.629 73.1333 127.908 72.8007C127.188 72.4761 126.405 72.2601 125.621 72.2989C126.34 72.5927 126.992 72.9482 127.603 73.3551C127.722 73.434 127.838 73.5174 127.953 73.6008C127.528 73.7437 127.126 73.9643 126.761 74.2398C126.271 74.6181 125.858 75.1039 125.554 75.6479Z" fill="#A0724A"/>
<path d="M231.099 218.016L229.463 215.393C229.201 214.955 228.956 214.507 228.729 214.051C228.502 213.596 228.304 213.126 228.07 212.661C227.616 211.73 227.172 210.791 226.709 209.866L225.25 207.13C224.281 205.328 223.323 203.521 222.344 201.726C222.264 201.344 222.19 200.961 222.101 200.582C221.993 200.184 221.909 199.78 221.779 199.388C221.55 198.595 221.255 197.822 220.936 197.061C220.599 196.306 220.216 195.571 219.779 194.865C219.561 194.512 219.328 194.168 219.078 193.834C218.842 193.524 218.607 193.23 218.322 192.931C218.047 192.217 217.788 191.483 217.527 190.754L216.722 188.491L215.148 184.006C215.174 182.721 215.152 181.432 215.016 180.146C214.945 179.493 214.84 178.842 214.689 178.198C214.539 177.556 214.342 176.917 214.035 176.317C213.886 176.015 213.702 175.727 213.465 175.469C213.403 175.405 213.342 175.343 213.261 175.284C213.246 175.272 213.233 175.265 213.218 175.255C213.397 174.558 213.46 173.835 213.433 173.111C213.4 172.323 213.242 171.524 212.918 170.773C212.74 170.38 212.55 170.073 212.357 169.739C212.163 169.411 211.963 169.086 211.755 168.765C211.405 168.232 211.04 167.707 210.631 167.201C210.678 166.916 210.705 166.626 210.716 166.338C210.724 166.136 210.724 165.933 210.714 165.729C210.693 165.52 210.678 165.302 210.621 165.095C210.527 164.676 210.359 164.274 210.134 163.915C209.685 163.189 209.036 162.626 208.323 162.206C207.593 161.805 206.8 161.533 205.94 161.5C205.094 161.497 204.304 161.681 203.551 161.934C202.05 162.449 200.666 163.197 199.384 164.084C200.823 163.493 202.261 162.919 203.728 162.538C204.46 162.365 205.204 162.217 205.91 162.262C206.252 162.286 206.605 162.358 206.946 162.467C207.288 162.579 207.616 162.731 207.927 162.907C208.552 163.258 209.109 163.741 209.497 164.328C209.7 164.616 209.849 164.936 209.943 165.271C210.001 165.437 210.014 165.609 210.047 165.784C210.07 165.968 210.085 166.153 210.093 166.34C210.119 167.084 210.053 167.837 209.815 168.544C209.585 169.252 209.15 169.899 208.519 170.363C209.241 170.055 209.825 169.424 210.177 168.695C210.358 168.315 210.488 167.913 210.576 167.503C210.759 168.035 210.973 168.55 211.198 169.061C211.353 169.412 211.519 169.758 211.689 170.101C211.855 170.442 212.053 170.795 212.186 171.098C212.468 171.751 212.666 172.457 212.81 173.186C212.947 173.841 213.039 174.514 213.142 175.205C213.107 175.184 213.074 175.166 213.039 175.146C212.892 175.064 212.743 174.992 212.593 174.923C211.988 174.655 211.355 174.469 210.712 174.349C210.069 174.23 209.417 174.183 208.767 174.19C208.115 174.199 207.472 174.294 206.837 174.408C208.119 174.246 209.422 174.273 210.667 174.565C211.287 174.712 211.893 174.923 212.457 175.208C212.597 175.28 212.736 175.356 212.868 175.438C213.01 175.525 213.103 175.593 213.2 175.712C213.39 175.94 213.546 176.212 213.673 176.495C213.937 177.061 214.106 177.677 214.228 178.3C214.352 178.924 214.432 179.558 214.478 180.196C214.578 181.473 214.569 182.76 214.508 184.045L214.506 184.101L214.525 184.161C215.016 185.688 215.528 187.207 216.036 188.729L216.807 191.008C217.072 191.767 217.336 192.521 217.624 193.282L217.651 193.354L217.717 193.422C217.965 193.676 218.221 193.994 218.451 194.304C218.685 194.619 218.905 194.945 219.109 195.283C219.523 195.954 219.881 196.661 220.206 197.382C220.515 198.11 220.803 198.851 221.027 199.615C221.154 199.991 221.236 200.382 221.343 200.763C221.436 201.15 221.512 201.541 221.596 201.929L221.611 201.997L221.64 202.05C222.628 203.86 223.638 205.658 224.637 207.46L226.146 210.16C226.63 211.068 227.092 211.985 227.567 212.899C227.806 213.35 228.029 213.824 228.28 214.285C228.528 214.745 228.794 215.195 229.078 215.634C229.654 216.502 230.238 217.344 230.825 218.195C232 219.893 233.163 221.598 234.356 223.284C233.283 221.518 232.185 219.77 231.099 218.016Z" fill="#A0724A"/>
<path d="M198.565 173.607C198.881 173.821 199.221 174.005 199.578 174.153C200.297 174.439 201.086 174.572 201.865 174.539C202.646 174.508 203.411 174.312 204.107 173.995C204.802 173.674 205.437 173.247 205.974 172.718C205.259 172.961 204.583 173.216 203.894 173.399C203.209 173.585 202.52 173.705 201.83 173.734C201.14 173.762 200.451 173.701 199.766 173.551C199.425 173.468 199.08 173.38 198.742 173.256C198.396 173.145 198.076 172.978 197.715 172.85C197.973 173.122 198.251 173.389 198.565 173.607Z" fill="#A0724A"/>
<path d="M204.328 211.768C205.241 211.381 206.122 210.878 206.836 210.186C206.082 210.834 205.182 211.264 204.266 211.612C203.346 211.956 202.389 212.189 201.425 212.372C200.459 212.552 199.482 212.666 198.506 212.752C197.53 212.835 196.542 212.879 195.572 212.869H195.566L195.546 212.87C194.654 212.924 193.724 212.768 192.818 212.569C191.909 212.366 191.005 212.118 190.113 211.829C189.219 211.542 188.33 211.24 187.45 210.91C186.571 210.581 185.691 210.235 184.833 209.869L184.809 209.858L184.781 209.851C181.552 208.979 178.322 208.111 175.086 207.259L173.873 206.94L173.272 206.781C173.081 206.729 172.894 206.667 172.709 206.597C172.34 206.458 171.983 206.284 171.645 206.08C171.474 205.977 171.313 205.869 171.148 205.749L170.638 205.382L166.55 202.464L164.503 201.008C164.164 200.763 163.809 200.53 163.504 200.285C163.193 200.033 162.905 199.753 162.643 199.449C162.382 199.145 162.148 198.817 161.944 198.471C161.745 198.13 161.567 197.742 161.375 197.37L160.236 195.125C159.481 193.627 158.711 192.136 157.942 190.644L157.366 189.525C157.276 189.339 157.156 189.151 157.108 188.977C157.064 188.794 157.088 188.593 157.179 188.424C157.269 188.254 157.423 188.116 157.607 188.052C157.787 187.99 158.011 187.981 158.212 187.958C158.541 187.931 158.873 187.934 159.205 187.957C159.385 188.59 159.565 189.223 159.743 189.856L160.087 191.046C160.208 191.469 160.396 191.881 160.64 192.251C160.885 192.623 161.189 192.959 161.536 193.238L162.501 194.011C163.788 195.04 165.069 196.077 166.365 197.097L170.246 200.16L172.193 201.681L173.168 202.443C173.483 202.691 173.836 202.971 174.211 203.185C174.957 203.631 175.782 203.939 176.633 204.094C177.06 204.174 177.495 204.198 177.897 204.227L179.129 204.31C180.772 204.415 182.413 204.53 184.057 204.621L184.072 204.622H184.077C184.69 204.613 185.329 204.746 185.953 204.895C186.58 205.046 187.204 205.23 187.82 205.441C188.437 205.649 189.05 205.872 189.656 206.113C190.262 206.355 190.871 206.593 191.47 206.856C190.893 206.548 190.31 206.249 189.716 205.972C189.122 205.694 188.521 205.433 187.913 205.185C187.305 204.935 186.687 204.71 186.054 204.516C185.419 204.33 184.773 204.163 184.077 204.14L184.096 204.141C182.459 203.967 180.821 203.814 179.182 203.654L177.954 203.539C177.536 203.501 177.148 203.471 176.767 203.392C176.002 203.237 175.265 202.947 174.605 202.534C174.27 202.329 173.975 202.094 173.645 201.831L172.676 201.064L170.737 199.53L166.845 196.482C165.549 195.463 164.239 194.463 162.934 193.456L161.955 192.702C161.654 192.473 161.388 192.199 161.169 191.888C160.949 191.577 160.779 191.234 160.662 190.867L160.281 189.689C159.764 188.12 159.256 186.548 158.721 184.984L157.925 182.638L157.524 181.465C157.409 181.18 157.43 180.848 157.571 180.569L159.305 182.574L161.914 185.574L163.224 187.07C163.446 187.332 163.712 187.589 163.994 187.805C164.272 188.024 164.606 188.209 164.887 188.357L171.878 192.123L178.897 195.853C179.523 196.17 180.198 196.387 180.889 196.492C181.061 196.519 181.237 196.538 181.408 196.551L181.902 196.59L182.89 196.669L186.844 196.974L188.822 197.123C189.486 197.164 190.112 197.265 190.765 197.369C192.058 197.589 193.346 197.882 194.63 198.189C197.202 198.793 199.749 199.51 202.296 200.227C201.049 199.782 199.794 199.36 198.532 198.96C197.27 198.557 196.003 198.17 194.728 197.806C193.451 197.451 192.167 197.117 190.861 196.849C190.213 196.719 189.533 196.599 188.878 196.542L186.902 196.347L182.952 195.965L181.964 195.873L181.47 195.826C181.31 195.81 181.159 195.793 181.004 195.765C180.389 195.662 179.793 195.46 179.242 195.172L172.255 191.411L165.243 187.684C164.938 187.526 164.69 187.393 164.442 187.206C164.196 187.022 163.979 186.821 163.769 186.581L162.439 185.103L159.772 182.155L157.095 179.214L156.423 178.482L156.258 178.3C156.215 178.243 156.163 178.191 156.125 178.13C156.047 178.01 155.975 177.882 155.934 177.743C155.739 177.196 155.887 176.536 156.296 176.11C156.348 176.057 156.398 176.003 156.459 175.959C156.515 175.91 156.576 175.868 156.641 175.831C156.766 175.752 156.922 175.679 157.063 175.609C157.355 175.469 157.659 175.354 157.966 175.253C158.584 175.057 159.23 174.945 159.881 174.918C161.052 174.869 162.227 175.104 163.341 175.509C163.269 175.606 163.196 175.703 163.13 175.805C162.938 176.075 162.772 176.435 162.708 176.791C162.639 177.152 162.653 177.528 162.748 177.881C162.932 178.588 163.441 179.204 164.107 179.508C164.188 179.55 164.273 179.582 164.36 179.61C164.447 179.64 164.534 179.668 164.602 179.685L165.043 179.809L165.924 180.057C166.513 180.218 167.097 180.395 167.681 180.57C170.019 181.273 172.344 182.024 174.657 182.811C179.277 184.404 183.877 186.08 188.414 187.9L188.439 187.91L188.456 187.914C189.668 188.148 190.878 188.297 192.102 188.366C193.319 188.434 194.569 188.38 195.76 188.194C196.965 188.08 198.175 187.995 199.387 187.964C199.992 187.948 200.598 187.949 201.204 187.971C201.808 187.997 202.417 188.041 203.001 188.211C202.425 188.013 201.814 187.941 201.209 187.888C200.603 187.835 199.995 187.809 199.386 187.806C198.169 187.795 196.953 187.838 195.737 187.912C194.522 188.058 193.332 188.064 192.128 187.961C190.936 187.868 189.741 187.695 188.578 187.446C184.071 185.529 179.516 183.741 174.897 182.115C172.587 181.294 170.255 180.53 167.906 179.817C167.319 179.638 166.732 179.458 166.14 179.294L165.255 179.042L164.812 178.916C164.732 178.896 164.674 178.874 164.617 178.854C164.558 178.836 164.499 178.814 164.445 178.785C163.995 178.578 163.65 178.158 163.525 177.675C163.46 177.435 163.45 177.181 163.496 176.939C163.543 176.69 163.635 176.478 163.795 176.247C164.419 175.281 165.35 174.536 166.4 174.029C167.452 173.517 168.619 173.232 169.8 173.082C172.174 172.786 174.612 172.994 176.999 173.399C179.401 173.822 181.811 174.255 184.204 174.745C185.402 174.988 186.596 175.244 187.782 175.528C188.376 175.668 188.966 175.821 189.549 175.987C189.838 176.075 190.134 176.151 190.413 176.257C190.553 176.309 190.699 176.355 190.833 176.411L191.219 176.595L191.303 176.635L191.363 176.622C192.212 176.444 193.076 176.296 193.939 176.167C194.803 176.04 195.671 175.936 196.542 175.861C197.412 175.787 198.286 175.747 199.159 175.751C200.032 175.757 200.909 175.807 201.77 175.975C200.917 175.767 200.039 175.676 199.162 175.629C198.285 175.591 197.405 175.603 196.527 175.647C195.649 175.692 194.774 175.766 193.901 175.864C193.05 175.961 192.204 176.077 191.356 176.222L190.993 176.036C190.847 175.971 190.7 175.923 190.555 175.864C190.263 175.745 189.967 175.663 189.673 175.567C189.084 175.385 188.492 175.218 187.897 175.065C186.709 174.753 185.516 174.472 184.319 174.202C181.926 173.666 179.531 173.162 177.117 172.713C174.692 172.278 172.2 172.026 169.705 172.314C168.463 172.467 167.216 172.763 166.059 173.32C165.022 173.816 164.06 174.544 163.356 175.488C162.872 175.278 162.373 175.097 161.86 174.964C161.214 174.799 160.548 174.709 159.878 174.705C159.207 174.703 158.534 174.788 157.882 174.962C157.557 175.054 157.235 175.159 156.923 175.292C156.766 175.36 156.617 175.421 156.458 175.51C156.377 175.552 156.299 175.6 156.228 175.657C156.151 175.708 156.085 175.772 156.018 175.835C155.488 176.344 155.271 177.166 155.497 177.883C155.546 178.063 155.631 178.233 155.729 178.393C155.776 178.474 155.839 178.543 155.894 178.619L156.057 178.811L156.705 179.565L157.556 180.549C157.385 180.823 157.33 181.175 157.429 181.494L157.752 182.69L158.406 185.081C158.664 186.036 158.932 186.988 159.201 187.939C158.872 187.898 158.542 187.873 158.21 187.881C157.997 187.892 157.794 187.884 157.573 187.942C157.357 188.002 157.17 188.156 157.054 188.35C156.937 188.546 156.895 188.786 156.939 189.013C156.995 189.249 157.104 189.419 157.185 189.615L157.71 190.759C158.41 192.284 159.108 193.811 159.821 195.328L160.885 197.609C161.067 197.987 161.231 198.368 161.444 198.756C161.656 199.138 161.903 199.5 162.18 199.839C162.457 200.176 162.765 200.49 163.098 200.774C163.44 201.062 163.78 201.295 164.114 201.548L166.137 203.037L170.187 206.009L170.695 206.378C170.868 206.504 171.055 206.632 171.243 206.745C171.62 206.975 172.018 207.17 172.43 207.329C172.636 207.408 172.846 207.479 173.059 207.538L173.67 207.703L174.881 208.027C178.107 208.888 181.336 209.733 184.567 210.573C185.443 210.93 186.318 211.261 187.204 211.577C188.099 211.896 189.003 212.196 189.916 212.464C190.828 212.736 191.756 212.968 192.695 213.155C193.633 213.332 194.588 213.486 195.584 213.392C196.583 213.37 197.563 213.292 198.547 213.176C199.295 213.09 200.039 212.97 200.777 212.82C201.315 213.579 201.773 214.359 202.089 215.192C202.441 216.107 202.812 217.016 203.191 217.919C203.572 218.822 203.96 219.721 204.37 220.615C204.774 221.51 205.189 222.402 205.659 223.283C205.506 222.295 205.252 221.335 204.954 220.39C204.66 219.444 204.313 218.517 203.93 217.606C203.546 216.695 203.128 215.8 202.655 214.928C202.217 214.089 201.592 213.357 200.854 212.803C201.065 212.759 201.275 212.715 201.485 212.666C202.453 212.44 203.411 212.159 204.328 211.768Z" fill="#A0724A"/>
<path d="M56.6977 166.92L52.5184 166.413C50.1379 165.834 47.7778 165.142 45.4428 164.393C43.1079 163.634 40.7888 162.821 38.521 161.885C37.9484 161.665 37.3882 161.416 36.8247 161.174C36.2634 160.93 35.6942 160.699 35.1443 160.428L33.4833 159.643L31.8564 158.791C31.3077 158.518 30.7886 158.196 30.2615 157.887C29.7366 157.574 29.2004 157.279 28.704 156.924C28.202 156.578 27.6863 156.249 27.1944 155.891L25.7634 154.759C24.8219 153.954 23.7973 153.198 22.7066 152.584C21.6228 151.982 20.5595 151.386 19.4962 150.766C17.3741 149.531 15.2793 148.248 13.2335 146.896C11.1911 145.54 9.1874 144.122 7.31577 142.559C6.38223 141.778 5.48398 140.955 4.66543 140.075C3.86737 139.19 3.10915 138.224 2.75737 137.174L2.74712 137.144L2.73118 137.108C2.65718 136.945 2.57863 136.716 2.51488 136.51C2.45226 136.295 2.39648 136.077 2.34866 135.857C2.25075 135.416 2.19155 134.963 2.15171 134.509C2.07657 133.599 2.0982 132.678 2.20521 131.765C2.31223 130.851 2.50463 129.945 2.75737 129.056C3.00441 128.164 3.32888 127.295 3.69774 126.443C5.18457 123.031 7.42051 119.968 9.95017 117.213C10.2576 116.86 10.5945 116.532 10.9156 116.191L11.4028 115.685L11.9072 115.193C12.5789 114.54 13.262 113.865 13.9302 113.2C15.2725 111.864 16.609 110.522 17.9365 109.171C19.2651 107.82 20.5857 106.461 21.8881 105.08C22.5393 104.389 23.1859 103.694 23.8212 102.982C24.1411 102.63 24.4508 102.259 24.7638 101.897L25.2215 101.323C25.2978 101.234 25.3729 101.118 25.4469 101.006L25.6108 100.755C28.5367 97.5331 31.7312 94.4916 35.0419 91.6272C38.3571 88.7492 41.8339 86.0597 45.4372 83.5576C47.2166 82.2718 49.0893 81.1288 50.9257 79.9298L53.7593 78.2598C54.234 77.9855 54.6997 77.6952 55.1801 77.4323L56.6316 76.6608C57.6016 76.151 58.5613 75.6206 59.5404 75.1291L62.5129 73.7267C63.0104 73.4969 63.5 73.25 64.0032 73.034L65.523 72.4111L68.5639 71.1652L68.5957 71.1526L68.606 71.1481C71.517 69.661 74.3211 68.0242 77.0682 66.2777C79.8073 64.5221 82.4759 62.6521 85.0226 60.6187L85.9698 59.8461C86.2863 59.5889 86.6039 59.334 86.9056 59.0597L87.8244 58.2516C88.1306 57.9818 88.4403 57.7178 88.7306 57.4298L89.614 56.5828C89.9077 56.2993 90.2083 56.0227 90.4827 55.7187L92.1494 53.947C92.6958 53.3858 93.3106 52.892 93.9766 52.4806C94.6403 52.0805 95.3792 51.7262 96.1021 51.397C97.5628 50.7398 99.0792 50.2003 100.623 49.7602L100.703 49.7373L100.757 49.6802C102.715 47.6205 104.66 45.5517 106.577 43.4554C108.495 41.3603 110.398 39.2514 112.272 37.1163C114.144 34.98 115.992 32.8198 117.745 30.5795L118.387 29.7268C118.599 29.4399 118.821 29.1633 119.017 28.8638L119.62 27.9803C119.808 27.6934 120.039 27.4248 120.283 27.1756C121.261 26.1801 122.603 25.5171 124.016 25.4863H124.019H124.022L128.774 24.6953L124.009 25.388C122.574 25.3925 121.174 26.0383 120.156 27.0476C119.899 27.3014 119.661 27.57 119.454 27.874L118.843 28.7404C118.646 29.033 118.419 29.3073 118.204 29.5885L117.552 30.4275C115.771 32.6335 113.893 34.7617 111.99 36.866C110.087 38.9691 108.155 41.0482 106.207 43.1114C104.274 45.1516 102.341 47.1942 100.383 49.2093C98.8367 49.6379 97.3157 50.1637 95.8414 50.8106C95.09 51.1455 94.3591 51.4839 93.6305 51.9136C92.9133 52.3468 92.2496 52.8692 91.6598 53.4647L89.9772 55.2215C89.7051 55.5175 89.4068 55.7884 89.1131 56.065L88.2342 56.8925C87.9462 57.1737 87.6365 57.432 87.3325 57.6961L86.4172 58.4859C86.1167 58.7534 85.799 59.0037 85.4848 59.254L84.541 60.0095C82.0023 61.9983 79.3383 63.8283 76.606 65.5451C75.233 66.3932 73.8509 67.2276 72.4472 68.0231C71.0514 68.8209 69.634 69.597 68.2087 70.316L65.1656 71.5515L63.6286 72.1756C63.1197 72.3917 62.6245 72.6397 62.1224 72.8694L59.1181 74.2765C58.1287 74.7691 57.1588 75.3017 56.1785 75.8127L54.7111 76.5865C54.2249 76.8505 53.7536 77.1408 53.2755 77.4163L50.4122 79.0919C48.5565 80.2944 46.6633 81.4419 44.8668 82.7335C41.226 85.2447 37.7138 87.9456 34.3622 90.8363C31.0072 93.7281 27.7819 96.7502 24.8014 100.073L24.7957 100.079L24.7342 100.171L24.5635 100.425C24.5077 100.51 24.4564 100.594 24.379 100.686L23.9532 101.223C23.6481 101.576 23.3521 101.935 23.0368 102.283C22.4129 102.985 21.7742 103.678 21.1299 104.366C19.84 105.743 18.5273 107.102 17.2067 108.453C15.8861 109.806 14.5564 111.15 13.221 112.487C12.5504 113.159 11.889 113.816 11.2059 114.484L10.697 114.983L10.2018 115.501C9.87503 115.85 9.53463 116.184 9.22155 116.546C6.65091 119.364 4.35918 122.511 2.8234 126.065C2.44201 126.952 2.10617 127.863 1.84888 128.799C1.58589 129.733 1.38666 130.688 1.27623 131.659C1.16466 132.628 1.14417 133.612 1.22841 134.592C1.27281 135.081 1.33885 135.57 1.447 136.055C1.50051 136.297 1.56312 136.538 1.63371 136.778C1.70998 137.016 1.78057 137.233 1.89555 137.49C2.10845 138.128 2.43746 138.686 2.79266 139.207C3.15469 139.744 3.57592 140.219 3.99715 140.691C4.85783 141.614 5.79365 142.444 6.75451 143.236C8.68078 144.813 10.7175 146.226 12.7895 147.573C14.8638 148.917 16.9824 150.187 19.1262 151.407C20.1963 152.018 21.2847 152.614 22.3594 153.197C23.4204 153.783 24.3938 154.486 25.3319 155.272L26.8096 156.418C27.3163 156.78 27.8422 157.11 28.358 157.456C28.868 157.813 29.4133 158.108 29.9484 158.42C30.4857 158.727 31.0163 159.051 31.573 159.32L33.2249 160.166L34.9087 160.942C35.4665 161.21 36.0403 161.437 36.6084 161.678C37.1788 161.915 37.7434 162.164 38.324 162.376C40.6203 163.282 42.9621 164.062 45.3165 164.787C47.6754 165.504 50.0491 166.161 52.4558 166.706L52.4637 166.709L52.4717 166.71L56.6681 167.155L60.8622 167.628L69.2515 168.558L60.8815 167.456L56.6977 166.92Z" fill="#A0724A"/>
<path d="M119.049 62.9904C119.845 62.2737 120.53 61.4485 121.114 60.5615C120.481 61.4142 119.754 62.1949 118.934 62.8532C118.735 63.0258 118.513 63.1664 118.303 63.3253C118.081 63.4648 117.868 63.6179 117.636 63.7402C117.185 64.0054 116.707 64.2191 116.219 64.3963C115.242 64.7541 114.204 64.9175 113.172 64.9186C112.656 64.9164 112.14 64.8764 111.633 64.7872C111.131 64.7003 110.614 64.5723 110.163 64.3963L110.038 64.3471L109.915 64.4089C108.367 65.1884 106.897 66.1097 105.469 67.0801C104.043 68.055 102.66 69.094 101.317 70.1822C98.6409 72.3699 96.1237 74.7439 93.717 77.2151C91.3137 79.6942 89.0334 82.2729 86.736 84.8275C84.4499 87.3958 82.189 89.9881 79.9508 92.601C77.708 95.2094 75.513 97.8623 73.3511 100.539C71.1903 103.217 69.0534 105.916 66.97 108.654C62.7862 114.118 58.7378 119.683 54.793 125.319L54.7577 125.37L54.7372 125.426L54.5266 126.011C54.4583 126.208 54.3866 126.402 54.3012 126.592L53.8105 127.74C53.6352 128.118 53.4371 128.486 53.2515 128.86C53.0717 129.238 52.8588 129.598 52.6482 129.959C52.244 130.693 51.7795 131.39 51.3275 132.097C50.8448 132.783 50.3712 133.479 49.851 134.14C48.8275 135.474 47.7425 136.765 46.5938 138.001C45.4406 139.231 44.252 140.433 42.9838 141.551C44.3089 140.502 45.5772 139.377 46.7862 138.19C47.9953 137.002 49.1519 135.759 50.2335 134.445C50.7845 133.797 51.29 133.112 51.8068 132.435C52.2918 131.734 52.795 131.044 53.2322 130.308C53.4587 129.945 53.6864 129.583 53.8834 129.202C54.086 128.825 54.3001 128.452 54.4925 128.07L55.0344 126.899C55.1289 126.706 55.2097 126.506 55.2871 126.305L55.4977 125.771C59.5871 120.27 63.7208 114.805 67.9445 109.415C70.0689 106.718 72.2012 104.03 74.3677 101.37C76.5331 98.7092 78.7417 96.0849 80.9571 93.4651C83.176 90.8477 85.4279 88.2576 87.6889 85.6744C89.9521 83.0901 92.1915 80.4898 94.5379 78.0049C96.8774 75.5109 99.3091 73.106 101.905 70.8908C104.463 68.6997 107.168 66.6514 110.092 64.9929C110.583 65.1507 111.061 65.2455 111.556 65.313C112.095 65.3861 112.639 65.4079 113.182 65.3896C114.266 65.3507 115.344 65.1255 116.341 64.7072C116.838 64.5003 117.321 64.2557 117.772 63.962C118.003 63.8259 118.214 63.6579 118.434 63.5048C118.639 63.3344 118.857 63.1767 119.049 62.9904Z" fill="#A0724A"/>
<path d="M117.58 58.3373L115.792 60.2873C115.193 60.9388 114.596 61.5949 114.015 62.2864C114.809 61.8532 115.534 61.3172 116.223 60.7422C116.915 60.1707 117.561 59.5444 118.17 58.8826C118.779 58.223 119.344 57.519 119.852 56.7737C120.367 56.0365 120.81 55.2432 121.162 54.4111C120.531 55.0626 119.961 55.7347 119.362 56.3851L117.58 58.3373Z" fill="#A0724A"/>
<path d="M125.645 27.5598C125.12 27.7061 124.632 27.9462 124.182 28.2319C123.734 28.5211 123.32 28.8548 122.937 29.2183C122.555 29.5829 122.199 29.975 121.908 30.4219C122.796 29.847 123.613 29.232 124.469 28.6857C124.897 28.4171 125.33 28.1588 125.783 27.9564C125.896 27.9039 126.011 27.8536 126.128 27.8181C126.244 27.7781 126.361 27.7278 126.484 27.7096C126.722 27.649 126.994 27.6021 127.247 27.5267C126.982 27.4832 126.734 27.4592 126.456 27.4478C126.317 27.4364 126.184 27.4604 126.047 27.4752C125.907 27.4855 125.777 27.5255 125.645 27.5598Z" fill="#A0724A"/>
<path d="M225.187 156.703L224.757 158.336C224.621 158.882 224.509 159.436 224.384 159.986C224.267 160.539 224.19 161.105 224.091 161.664C224.003 162.213 223.929 162.757 223.833 163.303C223.452 165.486 222.94 167.657 222.385 169.815C221.839 171.976 221.23 174.123 220.622 176.27C220.005 178.416 219.368 180.555 218.716 182.692C218.08 184.834 217.397 186.961 216.731 189.096C218.375 184.938 219.875 180.72 221.221 176.452C222.558 172.181 223.812 167.876 224.622 163.441C224.716 162.886 224.79 162.322 224.877 161.767C224.97 161.225 225.04 160.681 225.151 160.14C225.271 159.6 225.377 159.058 225.509 158.518L225.916 156.903C226.487 154.753 227.157 152.627 227.833 150.501C228.52 148.379 229.239 146.265 229.976 144.157C230.698 142.042 231.465 139.945 232.222 137.84C230.409 141.927 228.731 146.077 227.243 150.3C226.495 152.411 225.805 154.544 225.187 156.703Z" fill="#9A442D"/>
<path d="M226.397 166.22C225.864 167.427 225.313 168.627 224.695 169.79C224.079 170.954 223.408 172.095 222.541 173.1C223.538 172.218 224.318 171.109 225.035 169.989C225.742 168.857 226.376 167.682 226.964 166.485C227.555 165.29 228.085 164.068 228.609 162.844C229.119 161.616 229.599 160.374 230.068 159.13C230.521 157.879 230.964 156.626 231.385 155.366C231.796 154.102 232.207 152.837 232.581 151.563C233.34 149.016 234.035 146.45 234.598 143.851L231.987 151.37C231.112 153.871 230.239 156.37 229.316 158.851C228.404 161.332 227.443 163.795 226.397 166.22Z" fill="#9A442D"/>
<path d="M233.313 195.201C233.608 194.958 233.873 194.684 234.154 194.427L234.571 194.035C234.708 193.902 234.835 193.761 234.968 193.623C235.229 193.346 235.499 193.074 235.754 192.79C236.762 191.644 237.67 190.41 238.495 189.126C240.114 186.534 241.325 183.7 242.135 180.768C242.544 179.303 242.843 177.809 243.052 176.307C243.253 174.804 243.371 173.287 243.314 171.775C243.195 173.28 242.972 174.771 242.667 176.241C242.368 177.712 241.989 179.163 241.537 180.589C241.076 182.01 240.552 183.412 239.927 184.765C239.306 186.118 238.624 187.447 237.817 188.696C237.024 189.954 236.147 191.157 235.182 192.287C234.209 193.41 233.161 194.468 232.033 195.438C229.773 197.378 227.203 198.948 224.478 200.229C227.327 199.26 230.044 197.816 232.431 195.924L233.313 195.201Z" fill="#9A442D"/>
<path d="M226.602 186.591C226.876 186.371 227.162 186.164 227.424 185.927C227.942 185.448 228.486 184.997 228.963 184.472C229.956 183.465 230.833 182.338 231.585 181.13C232.322 179.914 232.95 178.619 233.292 177.2C233.621 175.886 234.065 174.55 234.476 173.229L237.064 165.281C235.905 167.82 234.851 170.403 233.884 173.024C233.641 173.679 233.406 174.337 233.184 175.001C232.963 175.671 232.746 176.322 232.554 177.023C232.22 178.314 231.619 179.556 230.903 180.709C230.554 181.295 230.153 181.847 229.748 182.395L229.101 183.189C228.89 183.457 228.64 183.693 228.415 183.95C227.969 184.469 227.451 184.92 226.961 185.4C226.714 185.638 226.439 185.844 226.18 186.07C225.916 186.288 225.665 186.525 225.389 186.73C223.218 188.42 220.815 189.812 218.318 191.042C220.942 190.121 223.471 188.865 225.763 187.231C226.052 187.033 226.32 186.803 226.602 186.591Z" fill="#9A442D"/>
<path d="M58.4885 125.07C58.9359 124.897 59.4004 124.768 59.8706 124.679C60.3396 124.592 60.8235 124.536 61.2925 124.533H61.3699L61.4064 124.461C61.6238 124.032 61.9688 123.664 62.3331 123.33C62.7019 122.997 63.1027 122.696 63.5182 122.417C63.936 122.129 64.3504 121.895 64.8138 121.754C65.0437 121.685 65.276 121.631 65.5173 121.617C65.7587 121.602 66.0001 121.578 66.2437 121.599C67.2193 121.635 68.1802 121.931 69.0921 122.313C70.0006 122.704 70.8852 123.198 71.681 123.765L71.8142 123.86L71.9701 123.797C72.3914 123.628 72.8627 123.54 73.3397 123.488C73.8179 123.435 74.3051 123.426 74.7935 123.434C75.7703 123.452 76.754 123.539 77.7319 123.665C78.711 123.791 79.6866 123.955 80.6589 124.143C81.6289 124.331 82.6022 124.545 83.5551 124.782L83.6417 124.803L83.7304 124.785C85.1979 124.476 86.7201 124.357 88.2388 124.281C89.7597 124.204 91.2876 124.212 92.8154 124.24C94.3432 124.265 95.8721 124.331 97.4 124.425C98.9266 124.517 100.457 124.637 101.974 124.782L102.101 124.793L102.215 124.725C102.597 124.498 103 124.298 103.433 124.161C103.865 124.026 104.31 123.92 104.768 123.866C105.225 123.81 105.687 123.786 106.15 123.795C106.61 123.804 107.086 123.843 107.522 123.919L107.651 123.94L107.758 123.881C108.224 123.621 108.732 123.412 109.254 123.234C109.776 123.054 110.317 122.918 110.861 122.794C111.405 122.669 111.957 122.573 112.512 122.488C113.065 122.404 113.626 122.333 114.179 122.287L114.3 122.277L114.37 122.188C114.707 121.751 115.283 121.517 115.871 121.474C115.944 121.467 116.02 121.466 116.088 121.466C116.169 121.467 116.256 121.461 116.339 121.459C116.51 121.455 116.674 121.438 116.838 121.422C117.167 121.385 117.493 121.331 117.813 121.252C118.455 121.1 119.074 120.871 119.661 120.567L120.498 120.089C120.782 119.949 121.059 119.796 121.352 119.673C122.508 119.149 123.743 118.8 124.999 118.584C126.257 118.38 127.541 118.288 128.822 118.362C127.546 118.223 126.251 118.241 124.972 118.407C123.695 118.577 122.428 118.882 121.226 119.374C120.922 119.488 120.63 119.633 120.334 119.767L119.482 120.212C118.921 120.482 118.324 120.69 117.715 120.818C117.411 120.885 117.102 120.928 116.793 120.957C116.638 120.967 116.482 120.981 116.331 120.98C116.255 120.98 116.182 120.984 116.103 120.982C116.012 120.979 115.925 120.98 115.838 120.984C115.494 121.004 115.15 121.076 114.821 121.212C114.532 121.336 114.259 121.523 114.039 121.762C113.497 121.797 112.966 121.851 112.432 121.918C111.864 121.993 111.298 122.078 110.735 122.193C110.171 122.309 109.609 122.436 109.054 122.612C108.54 122.776 108.028 122.968 107.535 123.226C107.071 123.147 106.626 123.108 106.168 123.092C105.673 123.076 105.177 123.096 104.682 123.152C104.185 123.204 103.693 123.314 103.21 123.459C102.769 123.593 102.345 123.789 101.938 124.019C100.441 123.856 98.9483 123.743 97.4501 123.642C95.9131 123.541 94.3739 123.468 92.8325 123.436C91.291 123.401 89.7472 123.409 88.2012 123.49C86.6859 123.572 85.1661 123.695 83.6553 124.011C82.7024 123.781 81.7529 123.589 80.7944 123.413C79.8073 123.235 78.8157 123.08 77.8161 122.964C76.8177 122.851 75.8113 122.763 74.7958 122.772C74.288 122.777 73.778 122.797 73.2657 122.865C72.8058 122.926 72.3424 123.021 71.8882 123.196C71.0605 122.649 70.1998 122.197 69.2891 121.828C68.3282 121.453 67.3127 121.163 66.2573 121.147C65.9944 121.131 65.7314 121.16 65.4672 121.184C65.2031 121.208 64.9401 121.275 64.6874 121.357C64.4347 121.443 64.1899 121.549 63.9599 121.682C63.7265 121.814 63.5171 121.966 63.3099 122.115C62.8943 122.417 62.4936 122.742 62.1224 123.104C61.7741 123.45 61.4428 123.828 61.2162 124.287C60.7438 124.312 60.2872 124.384 59.8319 124.485C59.3537 124.595 58.8858 124.745 58.435 124.938C57.9841 125.131 57.5629 125.391 57.177 125.689C56.791 125.991 56.47 126.366 56.1956 126.766C56.4905 126.379 56.8263 126.026 57.2214 125.748C57.6153 125.472 58.0411 125.244 58.4885 125.07Z" fill="#9A442D"/>
<path d="M125.811 174.99C124.231 172.595 122.689 170.173 121.308 167.655C119.91 165.148 118.571 162.608 117.362 160.002C114.895 154.815 112.778 149.461 110.908 144.021C109.971 141.302 109.112 138.554 108.327 135.785C107.52 133.021 106.806 130.23 106.182 127.415C106.401 128.84 106.677 130.257 106.979 131.668C107.276 133.079 107.604 134.485 107.947 135.888C108.657 138.686 109.452 141.462 110.322 144.217C111.184 146.974 112.166 149.692 113.204 152.388C114.258 155.079 115.41 157.73 116.638 160.348C119.12 165.566 121.966 170.625 125.307 175.342L126.576 177.097L127.902 178.811C128.125 179.094 128.341 179.383 128.57 179.663L129.266 180.493L129.96 181.323C130.193 181.599 130.418 181.881 130.667 182.142L132.133 183.733C132.374 184.001 132.629 184.257 132.885 184.51L133.65 185.273C134.647 186.315 135.749 187.247 136.812 188.214C132.681 184.203 129.012 179.755 125.811 174.99Z" fill="#9A442D"/>
<path d="M97.0459 134.527L97.0573 134.201L97.0948 133.878L97.2474 132.588L97.4944 131.315C97.5275 131.1 97.6072 130.899 97.6607 130.69L97.8314 130.064C97.9578 129.652 98.1263 129.254 98.2697 128.845L98.5396 128.255L98.675 127.959L98.8344 127.677C99.2397 126.91 99.7395 126.184 100.371 125.565C99.6234 126.047 99.0132 126.734 98.4997 127.467L98.3039 127.744L98.1331 128.035L97.7916 128.621C97.6903 128.822 97.6015 129.029 97.507 129.234C97.4193 129.442 97.3077 129.643 97.2383 129.856C97.0937 130.283 96.9252 130.706 96.8114 131.142L96.4971 132.46L96.3139 133.8L96.2695 134.135L96.2524 134.472L96.2194 135.146C96.1556 136.046 96.2376 136.941 96.2729 137.837C96.2786 138.061 96.3139 138.282 96.3435 138.504L96.4323 139.169C96.4926 139.612 96.5472 140.056 96.6281 140.494C96.8216 141.365 97.0083 142.236 97.2394 143.095C97.5104 143.943 97.7802 144.788 98.0819 145.621C97.9498 144.739 97.7848 143.873 97.622 143.008C97.54 142.576 97.4979 142.136 97.4341 141.701C97.376 141.266 97.3066 140.833 97.244 140.399C97.1962 139.964 97.1734 139.526 97.1279 139.092L97.0687 138.439C97.0493 138.222 97.0243 138.005 97.0277 137.786C97.0197 136.915 96.9423 136.044 97.0197 135.178L97.0459 134.527Z" fill="#9A442D"/>
<path d="M104.67 190.427C103.509 186.874 102.378 183.309 101.306 179.727C100.222 176.148 99.1668 172.559 98.1593 168.957L97.3999 166.257L97.2132 165.582L97.121 165.245C97.088 165.113 97.0482 165.011 97.0117 164.897L96.5598 163.558C96.2546 162.667 95.9666 161.768 95.6456 160.885L94.6733 158.241L94.4286 157.582L94.1679 156.928L93.6476 155.621C93.3003 154.748 92.9577 153.875 92.5843 153.015L91.4834 150.424L90.3244 147.861C87.1845 141.05 83.6587 134.413 79.6001 128.121C81.449 131.375 83.1988 134.681 84.8416 138.039C86.5026 141.387 88.0703 144.78 89.5639 148.202C91.0507 151.629 92.4374 155.096 93.7261 158.598L94.6733 161.232C94.9887 162.109 95.2665 162.995 95.5647 163.876L96.0053 165.2C96.0406 165.309 96.0839 165.426 96.1066 165.522L96.1977 165.862L96.3822 166.541L97.1324 169.251C99.1885 176.46 101.39 183.628 103.886 190.698C104.508 192.466 105.151 194.228 105.819 195.98C106.494 197.729 107.184 199.473 107.914 201.2C108.656 202.923 109.427 204.633 110.257 206.314C111.085 207.994 111.988 209.646 113.049 211.189C111.146 207.964 109.736 204.489 108.396 201.003C107.06 197.513 105.843 193.977 104.67 190.427Z" fill="#9A442D"/>
<path d="M75.4755 162.743C74.8801 163.85 74.131 164.884 73.1792 165.705C72.2331 166.554 71.1971 167.307 70.0894 167.931C68.984 168.557 67.7909 169.042 66.5351 169.263C65.284 169.474 63.969 169.396 62.7577 168.948C63.3474 169.209 63.9759 169.385 64.6191 169.472C65.2635 169.555 65.9192 169.551 66.5659 169.472C67.8603 169.307 69.1103 168.866 70.2727 168.277C71.4339 167.679 72.5178 166.941 73.5207 166.102C73.7712 165.888 74.0171 165.681 74.2562 165.436C74.4748 165.187 74.7013 164.944 74.9119 164.689C75.1078 164.423 75.3138 164.162 75.5005 163.889C75.6736 163.608 75.8603 163.333 76.0208 163.045C76.6709 161.891 77.1388 160.643 77.4587 159.366C77.7809 158.089 77.9653 156.783 78.0541 155.476C78.2214 152.857 78.0051 150.237 77.5907 147.665C77.3767 146.38 77.1012 145.105 76.7756 143.842C76.6082 143.211 76.442 142.584 76.2257 141.957L75.8876 141.034L75.718 140.572L75.6326 140.341L75.5301 140.117C74.4941 137.707 73.0414 135.469 71.2267 133.58C67.5654 129.82 62.5847 127.505 57.4775 126.899C60.014 127.338 62.4583 128.218 64.717 129.409C66.9803 130.598 69.0352 132.16 70.7725 134.013C72.4791 135.896 73.8657 138.062 74.83 140.413L74.9256 140.631L75.0053 140.857L75.167 141.306L75.4903 142.203C75.6929 142.799 75.8557 143.422 76.0163 144.04C76.3305 145.28 76.5946 146.535 76.7995 147.799C77.2219 150.323 77.4348 152.887 77.2982 155.431C77.1661 157.964 76.6527 160.508 75.4755 162.743Z" fill="#9A442D"/>
<path d="M75.7749 169.441C74.9518 169.493 74.1287 169.569 73.3113 169.671C72.4938 169.771 71.6776 169.882 70.8647 170.017C70.0678 170.142 69.2754 170.282 68.4819 170.439C67.4892 170.392 66.4953 170.352 65.5128 170.202C64.5212 170.056 63.533 169.874 62.5665 169.596C61.5976 169.331 60.6493 168.987 59.7294 168.57C58.8073 168.155 57.9215 167.655 57.0677 167.084C57.7986 167.81 58.641 168.422 59.5347 168.948C60.4296 169.474 61.3847 169.899 62.3684 170.236C63.3554 170.563 64.3698 170.818 65.3978 170.974C66.4247 171.146 67.4653 171.205 68.5024 171.227L68.5434 171.229L68.5866 171.219L70.9911 170.728L73.4001 170.248C74.2038 170.092 75.0076 169.937 75.8136 169.794C76.6208 169.652 77.4268 169.517 78.2476 169.453C77.4291 169.364 76.5969 169.392 75.7749 169.441Z" fill="#9A442D"/>
<path d="M86.8965 208.34C86.7599 206.681 86.6051 205.032 86.4252 203.371L85.659 198.445C85.4142 196.805 85.1843 195.164 84.9714 193.52C84.5422 190.234 84.1722 186.941 83.9103 183.64C83.6405 180.342 83.4561 177.032 83.4925 173.733C83.4993 173.318 83.5016 172.91 83.5358 172.516C83.5642 172.111 83.6337 171.734 83.6986 171.318L83.8785 170.064L83.9229 169.751L83.9456 169.436L83.9912 168.809C84.1346 167.135 84.105 165.463 84.0595 163.797C83.7931 157.133 82.8254 150.54 81.5344 144.027C82.0262 147.311 82.4656 150.601 82.7901 153.902C83.1339 157.198 83.4014 160.506 83.4424 163.812L83.4447 165.051L83.4458 165.67L83.4231 166.287L83.3821 167.523C83.3718 167.934 83.3195 168.342 83.291 168.752L83.2398 169.365L83.2136 169.672L83.1669 169.973L82.9791 171.183C82.9108 171.585 82.8265 172.025 82.7924 172.449C82.7514 172.881 82.7445 173.304 82.732 173.719C82.6705 177.061 82.8516 180.389 83.11 183.707C83.3889 187.024 83.7635 190.329 84.22 193.623C84.6856 196.911 85.2116 200.212 85.8161 203.453C86.2362 206.731 86.6051 210.037 86.818 213.339C86.8703 214.164 86.9204 214.992 86.9295 215.817C86.9455 216.23 86.925 216.645 86.925 217.058L86.9523 218.304C86.9853 219.965 87.0286 221.626 87.0775 223.285C87.114 221.626 87.1436 219.966 87.1629 218.308L87.18 217.064C87.1959 216.649 87.2301 216.234 87.2301 215.817C87.2506 214.983 87.2301 214.151 87.2073 213.318C87.1481 211.655 87.0297 209.997 86.8965 208.34Z" fill="#9A442D"/>
<path d="M74.9358 133.302C73.6516 131.646 72.1534 130.144 70.4662 128.87C69.6078 128.254 68.7073 127.69 67.7555 127.225C66.8004 126.768 65.8019 126.391 64.7659 126.163C63.7334 125.927 62.6712 125.823 61.6181 125.866C60.5696 125.926 59.5142 126.099 58.5636 126.531C59.5677 126.27 60.6014 126.211 61.617 126.26C62.6347 126.311 63.6377 126.495 64.61 126.771C66.5556 127.335 68.3566 128.319 69.9915 129.52C70.8021 130.132 71.5922 130.778 72.3242 131.492L72.6054 131.751L72.8752 132.025L73.4148 132.571L74.4542 133.706C75.8067 135.255 77.0431 136.913 78.2499 138.608C77.3289 136.739 76.2234 134.956 74.9358 133.302Z" fill="#9A442D"/>
<path d="M77.9698 135.2C77.6112 134.522 77.2617 133.834 76.8735 133.17C76.0822 131.849 75.2261 130.561 74.2414 129.37L73.8748 128.922L73.4877 128.491C73.2247 128.208 72.9822 127.907 72.7022 127.64L71.8722 126.829C71.5853 126.57 71.2927 126.316 71.0002 126.065C70.6939 125.828 70.3968 125.58 70.0837 125.354C69.7615 125.138 69.4553 124.905 69.1206 124.708C68.4637 124.305 67.7783 123.933 67.044 123.702C67.702 124.094 68.3111 124.546 68.894 125.029C69.1934 125.259 69.4701 125.52 69.7558 125.763L70.5858 126.532C70.8499 126.802 71.114 127.071 71.3838 127.333L72.1523 128.162C72.4107 128.436 72.6498 128.728 72.9003 129.01L73.2714 129.437L73.6232 129.881C73.86 130.175 74.1036 130.463 74.337 130.76L75.0166 131.668L75.3627 132.118L75.6883 132.583C75.9035 132.894 76.1255 133.203 76.3498 133.509L77.6317 135.396C78.045 136.036 78.4548 136.681 78.8988 137.31C78.6096 136.6 78.2897 135.9 77.9698 135.2Z" fill="#9A442D"/>
<path d="M80.175 166.991C79.3736 166.444 78.4229 166.128 77.47 166.076C77.3505 166.069 77.231 166.065 77.1103 166.068C76.9919 166.07 76.9031 166.07 76.7961 166.067C76.5889 166.061 76.3897 166.021 76.1722 165.967C75.9582 165.919 75.7476 165.855 75.5415 165.779C75.3388 165.696 75.1305 165.609 74.9643 165.452C75.0611 165.668 75.2489 165.829 75.4322 165.973C75.6212 166.116 75.8284 166.23 76.0379 166.339C76.2451 166.439 76.4796 166.534 76.7209 166.589C76.8382 166.62 76.9748 166.635 77.0818 166.648C77.1877 166.661 77.2925 166.678 77.3972 166.7C78.2351 166.868 79.0343 167.184 79.7265 167.658C80.4198 168.132 81.0095 168.753 81.4934 169.472C81.9761 170.194 82.3438 171.006 82.7104 171.852C82.6671 170.935 82.4531 170.009 82.033 169.157C81.6209 168.306 80.9765 167.54 80.175 166.991Z" fill="#9A442D"/>
<path d="M246.135 201.541C246.124 201.392 246.089 201.249 246.065 201.129L245.909 200.371L245.6 198.872C245.472 195.719 245.237 192.58 244.962 189.439L244.992 186.649C244.998 185.712 245.029 184.776 244.991 183.84C244.941 181.968 244.909 180.095 244.768 178.227C244.571 174.486 244.145 170.761 243.631 167.052L243.206 164.274L242.71 161.509L242.586 160.818L242.443 160.13L242.16 158.754C241.98 157.835 241.763 156.923 241.552 156.01C240.703 152.369 239.7 148.775 238.403 145.243L238.101 143.938C237.965 143.499 237.847 143.054 237.694 142.62C237.524 142.192 237.386 141.751 237.18 141.337C237.082 141.127 236.99 140.916 236.888 140.708L236.554 140.099C236.09 139.299 235.549 138.535 234.901 137.862C234.574 137.528 234.234 137.206 233.856 136.925C233.504 136.661 233.156 136.427 232.728 136.227C232.023 135.237 231.124 134.466 230.197 133.77C229.235 133.059 228.224 132.429 227.19 131.853C225.119 130.702 222.977 129.707 220.8 128.807C218.622 127.909 216.417 127.086 214.194 126.318C211.98 125.553 209.754 124.838 207.502 124.186C205.76 123.073 203.864 122.29 201.955 121.59C200.025 120.9 198.062 120.321 196.087 119.794C194.111 119.274 192.121 118.809 190.124 118.383C188.129 117.953 186.12 117.58 184.11 117.229C186.111 117.631 188.103 118.073 190.09 118.536C192.076 119.003 194.052 119.507 196.012 120.066C197.971 120.63 199.914 121.249 201.815 121.971C203.712 122.692 205.593 123.501 207.269 124.609L207.3 124.629L207.337 124.641C209.575 125.319 211.801 126.064 214.005 126.856C216.209 127.648 218.395 128.495 220.545 129.414C221.619 129.878 222.684 130.358 223.741 130.858C224.793 131.364 225.832 131.896 226.846 132.467C227.861 133.038 228.846 133.658 229.77 134.347C230.686 135.037 231.561 135.808 232.184 136.72L232.246 136.813L232.357 136.859C232.515 136.927 232.714 137.038 232.888 137.147C233.066 137.263 233.245 137.378 233.411 137.513C233.753 137.769 234.067 138.069 234.367 138.378C234.964 139.005 235.468 139.721 235.903 140.477L236.216 141.053C236.312 141.25 236.398 141.451 236.49 141.65C236.685 142.042 236.815 142.466 236.975 142.874C237.12 143.289 237.23 143.717 237.361 144.138L237.654 145.431L237.662 145.467L237.673 145.498C238.938 148.971 239.914 152.583 240.786 156.197C240.999 157.103 241.218 158.007 241.402 158.921L241.69 160.288L241.833 160.971L241.96 161.658L242.464 164.406L242.896 167.166C243.424 170.852 243.862 174.556 244.074 178.276C244.225 180.133 244.254 181.997 244.325 183.859C244.374 184.789 244.355 185.72 244.361 186.653L244.365 189.449V189.472L244.366 189.486C244.682 192.623 244.956 195.771 245.122 198.919L245.123 198.94L245.127 198.955L245.459 200.475L245.625 201.236C245.654 201.369 245.682 201.478 245.691 201.588C245.702 201.699 245.699 201.812 245.685 201.923C245.655 202.144 245.572 202.36 245.443 202.544C245.324 202.721 245.114 202.892 244.933 203.067L244.376 203.588C244.185 203.755 243.976 203.902 243.777 204.06C242.164 205.31 240.33 206.268 238.437 207.058C236.539 207.846 234.572 208.467 232.579 208.979C230.582 209.478 228.562 209.901 226.521 210.196C228.568 209.951 230.605 209.599 232.616 209.133C234.626 208.661 236.614 208.076 238.543 207.321C240.467 206.562 242.345 205.635 244.022 204.383C244.228 204.223 244.445 204.075 244.644 203.906L245.225 203.375C245.416 203.194 245.619 203.043 245.797 202.795C245.966 202.557 246.078 202.278 246.122 201.988C246.143 201.835 246.148 201.687 246.135 201.541Z" fill="#9A442D"/>
<path d="M124.402 188.189C123.555 186.748 122.764 185.274 121.962 183.806C121.195 182.319 120.409 180.842 119.69 179.332C118.939 177.837 118.243 176.315 117.538 174.798L116.522 172.503C116.182 171.738 115.87 170.961 115.538 170.193C114.236 167.109 113.042 163.978 111.901 160.829C110.766 157.677 109.725 154.49 108.772 151.276C107.796 148.069 106.929 144.826 106.182 141.554C106.461 143.21 106.808 144.854 107.185 146.49C107.56 148.128 107.963 149.759 108.393 151.384C109.271 154.627 110.249 157.845 111.317 161.033C113.464 167.404 116 173.65 118.969 179.688C119.699 181.203 120.494 182.686 121.27 184.177C122.085 185.648 122.876 187.133 123.746 188.573C123.828 188.716 123.914 188.858 123.998 189L124.799 188.883C124.666 188.652 124.532 188.423 124.402 188.189Z" fill="#9A442D"/>
<path d="M135.731 204.724C133.617 202.132 131.587 199.47 129.725 196.69L129.017 195.654C128.782 195.309 128.563 194.953 128.335 194.602L126.974 192.495C126.246 191.293 125.503 190.099 124.798 188.883L123.997 189C124.764 190.309 125.583 191.585 126.382 192.874C127.315 194.271 128.222 195.689 129.22 197.042C131.152 199.793 133.246 202.428 135.43 204.977L137.107 206.856C137.674 207.474 138.266 208.07 138.845 208.677L139.717 209.583C140.013 209.88 140.319 210.167 140.621 210.457L142.444 212.188C140.117 209.777 137.821 207.34 135.731 204.724Z" fill="#B99B4D"/>
<path d="M131.218 21.013C131.04 20.3969 130.796 19.8059 130.47 19.2687C130.143 18.735 129.748 18.2457 129.27 17.8651C129.153 17.7668 129.029 17.68 128.906 17.5931C128.777 17.5142 128.651 17.4319 128.515 17.3668C128.25 17.2296 127.974 17.1245 127.684 17.0627C127.11 16.9302 126.506 16.9302 125.946 17.073C125.667 17.1473 125.399 17.2513 125.154 17.3908C124.912 17.5348 124.692 17.7063 124.504 17.9074C124.131 18.3086 123.916 18.8458 123.868 19.3945C123.82 19.9431 123.936 20.5043 124.222 20.9489C124.5 21.3924 124.963 21.7285 125.474 21.8908C125.986 22.0565 126.547 22.0519 127.017 21.8348C127.493 21.6245 127.895 21.2221 128.148 20.7249C128.276 20.478 128.374 20.2117 128.434 19.9351C128.49 19.6585 128.514 19.375 128.499 19.0939C128.492 19.0241 128.494 18.9533 128.481 18.8835L128.448 18.6755L128.397 18.4663C128.381 18.3966 128.354 18.3292 128.333 18.2595C128.242 17.9851 128.117 17.72 127.964 17.4674C127.657 16.9633 127.237 16.521 126.762 16.1438C126.286 15.7654 125.748 15.4637 125.17 15.2305C124.022 14.7447 122.756 14.5287 121.499 14.3081C122.774 14.3275 124.066 14.4201 125.322 14.8076C125.946 15.0019 126.556 15.2842 127.113 15.6591C127.393 15.8432 127.652 16.0615 127.895 16.2969C128.137 16.5335 128.363 16.7918 128.557 17.0765C128.752 17.3611 128.919 17.6685 129.048 17.9943C129.078 18.0766 129.113 18.1577 129.137 18.2423L129.21 18.4961L129.263 18.7601C129.281 18.8481 129.286 18.9384 129.297 19.0276C129.33 19.3842 129.316 19.7442 129.252 20.0963C129.186 20.4472 129.072 20.7901 128.915 21.1147C128.605 21.7639 128.071 22.3366 127.384 22.6555C127.042 22.8166 126.662 22.8989 126.29 22.9126C125.916 22.9263 125.544 22.8715 125.193 22.7583C124.495 22.5297 123.859 22.0737 123.46 21.4267C123.067 20.7844 122.923 20.022 123.011 19.2996C123.097 18.5795 123.408 17.8743 123.925 17.3531C124.181 17.0947 124.475 16.8787 124.791 16.713C125.111 16.5541 125.448 16.4444 125.79 16.3735C126.132 16.3026 126.481 16.2878 126.825 16.3026C127.17 16.3152 127.51 16.3815 127.838 16.4821C128.166 16.5793 128.482 16.7278 128.769 16.9073C129.058 17.0845 129.326 17.2913 129.564 17.5279C130.042 17.9977 130.415 18.5544 130.689 19.1476C130.822 19.4459 130.937 19.7511 131.026 20.062C131.113 20.3786 131.179 20.6941 131.218 21.013Z" fill="#1A3139"/>
<path d="M150.448 18.0684C150.08 17.7895 149.734 17.4821 149.405 17.1552C149.078 16.8248 148.773 16.4705 148.494 16.0933C147.936 15.3389 147.502 14.4794 147.252 13.5501C147.011 12.6209 146.958 11.6299 147.145 10.664C147.237 10.1817 147.395 9.70735 147.617 9.26044C147.837 8.81467 148.13 8.39176 148.477 8.02714C149.171 7.29676 150.088 6.77098 151.103 6.57667C151.61 6.48066 152.141 6.46694 152.66 6.56524C153.186 6.66582 153.682 6.87956 154.119 7.17217C154.558 7.46478 154.938 7.83969 155.242 8.27403C155.545 8.70837 155.772 9.20557 155.876 9.74393C155.983 10.28 155.954 10.8515 155.795 11.3819C155.637 11.9133 155.346 12.3934 154.986 12.7889C154.622 13.1855 154.188 13.4987 153.716 13.7273C153.245 13.957 152.736 14.1068 152.211 14.1616C151.687 14.2154 151.143 14.1708 150.631 14.0142C150.129 13.861 149.654 13.6187 149.243 13.3044C148.418 12.6769 147.814 11.8162 147.456 10.8778C147.277 10.408 147.153 9.91652 147.102 9.41474C147.053 8.90954 147.072 8.41347 147.142 7.92313C147.284 6.94472 147.629 6.0166 148.114 5.18678C148.602 4.3581 149.216 3.61629 149.906 2.97393C150.6 2.33613 151.358 1.78406 152.151 1.30171C152.547 1.06054 152.95 0.833082 153.356 0.617055C153.766 0.404456 154.177 0.19643 154.594 0.000976562C154.209 0.254723 153.823 0.503898 153.445 0.765645C153.065 1.02396 152.692 1.288 152.327 1.5646C151.965 1.84235 151.608 2.12467 151.267 2.42528C150.928 2.72589 150.604 3.04022 150.3 3.37169C149.688 4.02892 149.164 4.75701 148.768 5.54568C148.377 6.33435 148.102 7.1756 148.024 8.02942C147.984 8.45462 147.99 8.88668 148.05 9.29701C148.109 9.71078 148.225 10.1177 148.388 10.5029C148.715 11.2698 149.227 11.9602 149.883 12.4311C150.21 12.6666 150.57 12.8449 150.946 12.9523C151.315 13.0575 151.702 13.0849 152.09 13.0392C152.864 12.9512 153.633 12.5843 154.15 12.0128C154.41 11.7305 154.606 11.4024 154.713 11.0504C154.821 10.6995 154.842 10.3257 154.774 9.95653C154.645 9.21357 154.152 8.51749 153.514 8.06714C153.194 7.84083 152.833 7.67624 152.458 7.59394C152.076 7.51393 151.673 7.50593 151.275 7.56765C150.878 7.62823 150.486 7.76082 150.118 7.94484C149.749 8.12887 149.404 8.36775 149.103 8.65693C148.499 9.22729 148.09 9.99882 147.869 10.8298C147.647 11.663 147.635 12.5614 147.794 13.429C147.948 14.2999 148.294 15.1435 148.755 15.9207C148.985 16.3105 149.247 16.6842 149.531 17.042C149.815 17.4009 150.124 17.7404 150.448 18.0684Z" fill="#1A3139"/>
<path d="M178.68 121.221C178.135 121.85 177.559 122.419 176.947 122.942C176.554 123.294 176.136 123.619 175.722 123.935C175.304 124.252 174.879 124.556 174.445 124.843C174.176 125.028 173.902 125.205 173.627 125.38C173.494 125.469 173.357 125.552 173.22 125.635C172.749 125.925 172.273 126.204 171.797 126.475C171.348 126.726 170.89 126.967 170.438 127.2L169.756 127.541L169.419 127.702C169.312 127.75 169.187 127.809 169.112 127.835L169.553 127.634C168.224 127.925 166.951 128.251 165.688 128.611C164.428 128.972 163.181 129.353 161.948 129.761C161.118 130.043 160.29 130.332 159.462 130.624C160.335 130.926 165.227 132.698 165.537 134.589L167.576 133.6C168.715 133.049 169.853 132.479 170.963 131.962L171.407 131.76C171.565 131.647 171.666 131.564 171.789 131.468L172.134 131.189C172.362 131.004 172.581 130.811 172.798 130.617C173.234 130.233 173.652 129.833 174.058 129.42C174.875 128.604 175.632 127.725 176.332 126.807C176.674 126.339 177.003 125.864 177.313 125.376C177.615 124.878 177.902 124.379 178.153 123.858C178.595 122.952 178.942 121.991 179.127 121.022C178.98 121.092 178.831 121.159 178.68 121.221Z" fill="white"/>
<path opacity="0.15" d="M178.68 121.221C178.135 121.85 177.559 122.419 176.947 122.942C176.554 123.294 176.136 123.619 175.722 123.935C175.304 124.252 174.879 124.556 174.445 124.843C174.176 125.028 173.902 125.205 173.627 125.38C173.494 125.469 173.357 125.552 173.22 125.635C172.749 125.925 172.273 126.204 171.797 126.475C171.348 126.726 170.89 126.967 170.438 127.2L169.756 127.541L169.419 127.702C169.312 127.75 169.187 127.809 169.112 127.835L169.553 127.634C168.224 127.925 166.951 128.251 165.688 128.611C164.428 128.972 163.181 129.353 161.948 129.761C161.118 130.043 160.29 130.332 159.462 130.624C160.335 130.926 165.227 132.698 165.537 134.589L167.576 133.6C168.715 133.049 169.853 132.479 170.963 131.962L171.407 131.76C171.565 131.647 171.666 131.564 171.789 131.468L172.134 131.189C172.362 131.004 172.581 130.811 172.798 130.617C173.234 130.233 173.652 129.833 174.058 129.42C174.875 128.604 175.632 127.725 176.332 126.807C176.674 126.339 177.003 125.864 177.313 125.376C177.615 124.878 177.902 124.379 178.153 123.858C178.595 122.952 178.942 121.991 179.127 121.022C178.98 121.092 178.831 121.159 178.68 121.221Z" fill="black"/>
<path d="M159.462 130.628C159.448 130.632 159.435 130.637 159.421 130.643C159.039 130.779 158.656 130.912 158.275 131.051C157.055 131.491 155.841 131.948 154.628 132.415L153.938 132.816C153.974 132.784 154.008 132.754 154.048 132.726C154.069 132.713 154.087 132.702 154.109 132.691C154.131 132.677 154.149 132.669 154.149 132.667C154.162 132.651 154.197 132.637 154.197 132.637C154.178 132.637 154.159 132.643 154.141 132.651L154.016 132.678C153.818 132.718 153.55 132.768 153.24 132.796C152.634 132.866 151.93 132.901 151.223 132.917C150.87 132.925 150.509 132.928 150.147 132.928H150.014L149.968 132.925L149.473 132.659C149.075 132.438 148.7 132.273 148.312 132.082C146.79 131.357 145.289 130.752 143.781 130.175C142.272 129.603 140.755 129.079 139.236 128.585C137.712 128.096 136.182 127.64 134.64 127.218C133.869 127.006 133.096 126.804 132.321 126.609L131.738 126.467L131.449 126.398L131.307 126.379C131.117 126.347 130.919 126.286 130.734 126.186C130.37 125.979 130.025 125.647 129.822 125.193C129.766 125.048 129.707 124.847 129.651 124.674C129.596 124.494 129.536 124.314 129.485 124.129C129.376 123.763 129.279 123.39 129.186 123.014C128.795 121.502 128.506 119.91 128.084 118.322C127.656 119.904 127.308 121.484 127.107 123.138C127.059 123.552 127.022 123.968 126.998 124.389C126.984 124.602 126.974 124.813 126.966 125.026C126.964 125.133 126.964 125.239 126.964 125.346C126.966 125.461 126.958 125.547 126.969 125.684C127.001 126.238 127.124 126.799 127.336 127.334C127.55 127.865 127.865 128.365 128.248 128.814C128.636 129.257 129.102 129.646 129.623 129.956L130.808 130.592L132.909 131.697C134.308 132.425 135.713 133.133 137.114 133.837L141.304 135.919C142.689 136.601 144.072 137.294 145.372 137.984C145.686 138.156 146.025 138.333 146.312 138.502L146.761 138.757C147.114 138.964 147.489 139.139 147.874 139.275C148.262 139.408 148.663 139.508 149.067 139.565C149.271 139.595 149.473 139.613 149.679 139.624L150.08 139.632C150.51 139.638 150.938 139.64 151.372 139.632C152.244 139.605 153.119 139.565 154.077 139.434C154.553 139.372 155.064 139.278 155.631 139.135L156.075 139.009C156.246 138.95 156.414 138.892 156.581 138.827C156.763 138.755 156.977 138.652 157.169 138.556C157.212 138.537 157.276 138.5 157.34 138.462L157.479 138.376C158.549 137.903 159.616 137.423 160.681 136.926C161.839 136.391 162.99 135.838 164.138 135.276L165.539 134.596C165.227 132.7 160.335 130.93 159.462 130.628ZM149.978 132.93C149.978 132.93 149.98 132.93 149.983 132.93C149.999 132.932 150.013 132.94 150.026 132.948C150.04 132.954 150.053 132.964 150.064 132.976L149.978 132.93Z" fill="white"/>
<path d="M222.141 68.5696C216.328 62.1928 212.781 53.7003 212.781 44.3745C212.781 24.5754 228.767 8.52539 248.487 8.52539C268.208 8.52539 284.194 24.5754 284.194 44.3745C284.194 64.1736 268.208 80.2236 248.487 80.2236C241.634 80.2236 235.232 78.284 229.795 74.9224L214.621 80.69L222.141 68.5696Z" fill="white"/>
<path d="M222.141 68.5697C219.1 65.2847 216.672 61.4179 215.052 57.2254C213.423 53.0363 212.6 48.5317 212.619 44.0271C212.612 39.5191 213.508 35.0145 215.182 30.8277C216.855 26.6386 219.327 22.773 222.418 19.4891C225.507 16.203 229.213 13.4998 233.292 11.575C237.369 9.64675 241.818 8.5026 246.322 8.242C250.822 7.97225 255.377 8.53232 259.673 9.93021C263.968 11.3247 267.993 13.5501 271.474 16.4362C274.957 19.3211 277.893 22.869 280.081 26.8352C282.274 30.8003 283.698 35.1871 284.272 39.6826C284.843 44.1757 284.607 48.782 283.496 53.178C282.401 57.5763 280.455 61.7539 277.821 65.4298C275.189 69.108 271.867 72.2833 268.08 74.7407C264.294 77.1982 260.043 78.9218 255.626 79.8019C253.418 80.2477 251.166 80.4637 248.918 80.4809L248.497 80.49L248.075 80.482L247.232 80.4637L246.389 80.4169L245.968 80.3929C245.828 80.3837 245.688 80.3677 245.548 80.3563L244.708 80.2786L243.871 80.1734L243.453 80.1197C243.314 80.1003 243.175 80.0751 243.037 80.0534L242.204 79.9174C237.779 79.1116 233.51 77.4668 229.695 75.0882L229.865 75.1042L214.656 80.7838L214.381 80.8867L214.537 80.6398L222.141 68.5697ZM222.141 68.5697L214.704 80.7426L214.585 80.5975L229.727 74.7407L229.814 74.7064L229.896 74.7567C233.692 77.077 237.917 78.6738 242.289 79.4362L243.111 79.5642C243.247 79.5848 243.384 79.6088 243.522 79.6271L243.935 79.6774L244.76 79.7757L245.589 79.8465C245.727 79.858 245.866 79.8717 246.003 79.8797L246.419 79.9002L247.249 79.9403L248.08 79.9517L248.495 79.9574L248.911 79.9448C251.126 79.9117 253.342 79.6842 255.511 79.2293C259.852 78.3343 264.013 76.605 267.715 74.1738C271.422 71.7495 274.669 68.6222 277.236 65.0081C279.808 61.3962 281.686 57.2962 282.759 52.9928C283.841 48.6894 284.066 44.1791 283.502 39.7831C282.937 35.3837 281.531 31.0986 279.392 27.2193C277.256 23.3376 274.387 19.8618 270.982 17.034C267.578 14.2039 263.642 12.0242 259.439 10.6503C255.24 9.26727 250.78 8.70149 246.364 8.94952C241.946 9.18498 237.583 10.304 233.566 12.1636C229.547 14.0256 225.882 16.6568 222.817 19.8709C219.75 23.0827 217.287 26.8775 215.605 31.0003C213.923 35.122 213.014 39.5671 212.961 44.0305C212.89 48.4928 213.655 52.9734 215.226 57.1591C216.795 61.3436 219.153 65.2355 222.141 68.5697Z" fill="#1A3139"/>
<path d="M260.814 53.2855C260.814 54.8675 260.308 56.4688 259.296 58.0919C258.285 59.7149 256.808 61.0591 254.867 62.1255C252.926 63.1908 250.661 63.7234 248.073 63.7234C245.669 63.7234 243.547 63.2777 241.707 62.3873C239.868 61.4969 238.449 60.2853 237.447 58.7537C236.445 57.2221 235.944 55.5567 235.944 53.7588C235.944 52.3426 236.23 51.1024 236.801 50.0371C237.373 48.9719 238.051 48.0517 238.838 47.2768C239.625 46.503 241.036 45.1999 243.072 43.3689C243.637 42.8522 244.088 42.3996 244.429 42.0087C244.769 41.6166 245.023 41.26 245.188 40.9354C245.354 40.6108 245.483 40.285 245.574 39.9604C245.665 39.6358 245.803 39.0655 245.985 38.2505C246.3 36.52 247.288 35.6547 248.946 35.6547C249.809 35.6547 250.536 35.9382 251.125 36.504C251.715 37.0698 252.009 37.9099 252.009 39.0255C252.009 40.4233 251.794 41.6349 251.362 42.6591C250.931 43.682 250.358 44.5816 249.644 45.3554C248.93 46.1292 247.968 47.0482 246.756 48.1146C245.695 49.0473 244.926 49.7491 244.454 50.2246C243.981 50.6989 243.583 51.2281 243.26 51.8111C242.936 52.3929 242.774 53.0261 242.774 53.7096C242.774 55.0412 243.268 56.1636 244.255 57.0803C245.242 57.9959 246.515 58.4542 248.074 58.4542C249.899 58.4542 251.244 57.9913 252.106 57.0666C252.968 56.1419 253.698 54.7795 254.296 52.9792C254.859 51.1024 255.93 50.1629 257.506 50.1629C258.435 50.1629 259.22 50.4909 259.858 51.1493C260.494 51.8076 260.814 52.5197 260.814 53.2855ZM248.672 25.9106C249.685 25.9106 250.567 26.2398 251.323 26.8971C252.078 27.5554 252.456 28.4755 252.456 29.6586C252.456 30.7078 252.092 31.5902 251.361 32.3069C250.631 33.0235 249.735 33.3813 248.673 33.3813C247.628 33.3813 246.748 33.0235 246.035 32.3069C245.321 31.5902 244.965 30.7078 244.965 29.6586C244.965 28.4915 245.339 27.576 246.085 26.9096C246.831 26.2444 247.693 25.9106 248.672 25.9106Z" fill="#D15D3E"/>
<path d="M9.58585 223.287C12.4696 223.187 15.3533 223.115 18.237 223.029L26.8882 222.812C32.6556 222.674 38.4231 222.559 44.1894 222.449C55.7243 222.235 67.258 222.075 78.7929 221.944C101.862 221.692 124.931 221.576 148 221.573C171.069 221.571 194.138 221.688 217.207 221.939C228.742 222.069 240.276 222.231 251.811 222.444C257.578 222.554 263.346 222.671 269.112 222.809L277.763 223.027L282.088 223.153L284.251 223.216L286.414 223.287L284.251 223.357L282.088 223.42L277.763 223.546L269.112 223.764C263.344 223.903 257.577 224.019 251.811 224.129C240.276 224.344 228.742 224.504 217.207 224.634C194.138 224.886 171.069 225.003 148 225C124.931 224.998 101.862 224.881 78.7929 224.63C67.258 224.498 55.7243 224.338 44.1894 224.124C38.4219 224.015 32.6545 223.899 26.8882 223.761L18.237 223.544C15.3533 223.458 12.4696 223.385 9.58585 223.287Z" fill="#F2C94C"/>
</g>
<defs>
<clipPath id="clip0_58_17828">
<rect width="296" height="225" fill="white"/>
</clipPath>
</defs>
</svg>
