<svg width="28" height="28" viewBox="0 0 28 28" fill="none" xmlns="http://www.w3.org/2000/svg">
<path d="M2.69631 15.0372L2.69631 15.0373C2.7001 16.1348 2.69917 17.2331 2.69824 18.3301C2.69782 18.8171 2.69741 19.3039 2.69741 19.7903C2.69741 20.272 2.69664 20.7529 2.69587 21.2333C2.69405 22.3724 2.69223 23.5091 2.70067 24.6482L2.69631 15.0372ZM2.69631 15.0372C2.69252 13.9812 3.10625 13.176 3.96396 12.5581C5.17629 11.6852 6.3873 10.8121 7.59816 9.93899C9.14684 8.82235 10.6953 7.70589 12.2459 6.59058C12.8522 6.15482 13.4381 5.95737 14.0001 5.95703C14.562 5.9567 15.1488 6.15339 15.7569 6.59056L15.7571 6.59065M2.69631 15.0372L15.7571 6.59065M15.7571 6.59065C17.0373 7.51027 18.319 8.43557 19.6013 9.36123C21.066 10.4186 22.5314 11.4765 23.996 12.527L23.9961 12.527M15.7571 6.59065L23.9961 12.527M23.9961 12.527C24.8898 13.1679 25.3103 13.9938 25.3065 15.0952C25.2998 17.0145 25.3009 18.9357 25.302 20.856C25.3027 22.0679 25.3034 23.2794 25.3022 24.4897C25.3012 25.4061 24.9925 26.1415 24.4901 26.6467C23.9879 27.1517 23.2574 27.4619 22.3473 27.4638H22.3472M23.9961 12.527L22.3472 27.4638M22.3472 27.4638C20.3807 27.4682 18.414 27.466 16.4463 27.4638C16.0098 27.4633 15.8375 27.3732 15.7606 27.2959C15.683 27.2178 15.5934 27.0428 15.5929 26.6036C15.5925 26.081 15.5927 25.5574 15.593 25.0333C15.5934 24.2461 15.5938 23.458 15.5918 22.6713L15.5918 22.6711M22.3472 27.4638L15.5918 22.6711M15.5918 22.6711C15.5905 22.2031 15.4628 21.7682 15.1831 21.4396C14.8971 21.1037 14.4917 20.9264 14.0383 20.9158L14.0379 20.9157M15.5918 22.6711L14.0379 20.9157M14.0379 20.9157C13.569 20.9051 13.1436 21.0725 12.8414 21.4117M14.0379 20.9157L12.8414 21.4117M5.49102 27.4606L5.49116 27.4606C7.30897 27.475 9.12682 27.4699 10.9478 27.4647C11.1854 27.464 11.423 27.4634 11.6607 27.4627C11.991 27.4619 12.1538 27.3772 12.2372 27.2934C12.3211 27.2091 12.4053 27.0446 12.4067 26.7136C12.4088 26.0416 12.4083 25.3692 12.4077 24.6956V24.6949C12.4072 24.0218 12.4067 23.3475 12.4088 22.6734L5.49102 27.4606ZM5.49102 27.4606C3.9197 27.4485 2.71289 26.2327 2.70068 24.6483L5.49102 27.4606ZM12.9274 7.57559L12.9279 7.57526C13.2593 7.33741 13.6083 7.15304 14.0122 7.15645C14.4133 7.15984 14.763 7.34783 15.0981 7.5885C16.1423 8.33861 17.1856 9.08922 18.2287 9.83972C19.9182 11.0552 21.6072 12.2704 23.2988 13.4826L12.9274 7.57559ZM12.9274 7.57559C11.7752 8.40456 10.6247 9.2341 9.47447 10.0634C7.8793 11.2136 6.28477 12.3632 4.68702 13.5103L4.68687 13.5104M12.9274 7.57559L4.68687 13.5104M4.68687 13.5104C4.43128 13.6941 4.22532 13.9168 4.08639 14.1905C3.94761 14.464 3.88954 14.7612 3.89022 15.074L3.89022 15.0741M4.68687 13.5104L3.89022 15.0741M3.89022 15.0741C3.89455 16.8541 3.89434 18.6325 3.89412 20.4115C3.89395 21.7808 3.89379 23.1504 3.89569 24.5215C3.89635 25.0135 4.02423 25.4715 4.35909 25.8042C4.6929 26.1358 5.15163 26.2625 5.64245 26.2658L5.64258 26.2658M3.89022 15.0741L5.64258 26.2658M5.64258 26.2658C6.22373 26.2695 6.80092 26.2696 7.3763 26.2698C8.34655 26.2701 9.31163 26.2704 10.2818 26.2876L10.2821 26.2876M5.64258 26.2658L10.2821 26.2876M10.2821 26.2876C10.5004 26.2913 10.8265 26.2644 11.044 25.996M10.2821 26.2876L11.044 25.996M16.7705 25.3141L16.7705 25.3135C16.7922 24.395 16.7847 23.4738 16.7759 22.545C16.7609 20.944 15.5408 19.7272 14.0011 19.7263C12.4606 19.7254 11.2346 20.9464 11.2204 22.539C11.2204 22.5391 11.2204 22.5392 11.2204 22.5393L10.7204 22.5349L16.7705 25.3141ZM16.7705 25.3141C16.7669 25.4778 16.7664 25.7828 16.9726 26.0168C17.1947 26.2688 17.5141 26.2895 17.7195 26.2865L17.7198 26.2865M16.7705 25.3141L17.7198 26.2865M17.7198 26.2865C18.7174 26.2715 19.711 26.2734 20.7098 26.2752M17.7198 26.2865L20.7098 26.2752M12.8414 21.4117C12.546 21.7432 12.4102 22.1906 12.4088 22.6731L12.8414 21.4117ZM24.1154 18.4603C24.1162 18.9013 24.117 19.3427 24.117 19.7849C24.117 20.1756 24.1172 20.5666 24.1174 20.9578C24.118 22.1319 24.1186 23.3073 24.1137 24.4805C24.1137 24.4808 24.1137 24.4811 24.1137 24.4814L23.6137 24.4793L24.1154 18.4603ZM24.1154 18.4603C24.1134 17.3361 24.1115 16.215 24.1224 15.0931M24.1154 18.4603L24.1224 15.0931M24.1224 15.0931C24.1258 14.7643 24.0643 14.4565 23.9187 14.1752M24.1224 15.0931L23.9187 14.1752M23.9187 14.1752C23.7735 13.8947 23.5593 13.6691 23.2991 13.4827L23.9187 14.1752ZM11.044 25.996C11.2352 25.7599 11.2292 25.4584 11.2257 25.3087L11.044 25.996ZM20.7098 26.2752C21.2395 26.2762 21.7707 26.2771 22.3047 26.2756L20.7098 26.2752Z" fill="black" stroke="black"/>
<path d="M14.0114 0C14.7802 0.0273252 15.4462 0.280903 16.0543 0.718106C19.3058 3.05386 22.5595 5.38415 25.8132 7.71663C26.3753 8.11995 26.9429 8.51453 27.4952 8.92987C28.0552 9.35068 28.1525 9.93981 27.7709 10.4502C27.3629 10.9957 26.7581 11.0929 26.1905 10.6852C22.5518 8.07842 18.9154 5.46941 15.2778 2.8604C15.1302 2.75438 14.9825 2.64726 14.8327 2.54452C14.1481 2.07562 13.8396 2.06797 13.1517 2.55873C10.5597 4.4081 7.97318 6.26512 5.38555 8.11995C4.18798 8.97905 2.99478 9.84362 1.79393 10.6973C1.25038 11.0842 0.609483 10.9935 0.244196 10.4972C-0.154995 9.95511 -0.0631263 9.33756 0.507771 8.92768C4.36516 6.158 8.22692 3.39379 12.0876 0.628479C12.6683 0.213136 13.3191 0.0196741 14.0114 0Z" fill="black"/>
</svg>
