<svg width="151" height="42" viewBox="0 0 151 42" fill="none" xmlns="http://www.w3.org/2000/svg">
<path d="M55.3319 19.7816C55.2501 18.9373 54.8992 18.2814 54.2791 17.8139C53.659 17.3464 52.8175 17.1126 51.7545 17.1126C51.0322 17.1126 50.4223 17.2173 49.9249 17.4266C49.4274 17.629 49.0458 17.9116 48.7801 18.2744C48.5212 18.6373 48.3917 19.0489 48.3917 19.5095C48.3781 19.8933 48.4564 20.2282 48.6268 20.5143C48.8039 20.8004 49.0458 21.0481 49.3525 21.2574C49.6591 21.4597 50.0135 21.6377 50.4155 21.7912C50.8175 21.9377 51.2468 22.0633 51.7034 22.168L53.5841 22.6285C54.4972 22.8378 55.3353 23.117 56.0985 23.4658C56.8617 23.8147 57.5227 24.2439 58.0814 24.7532C58.6402 25.2626 59.0729 25.8627 59.3795 26.5535C59.693 27.2443 59.8531 28.0362 59.8599 28.9294C59.8531 30.2412 59.526 31.3786 58.8787 32.3415C58.2381 33.2974 57.3114 34.0406 56.0985 34.5709C54.8924 35.0942 53.4376 35.3559 51.734 35.3559C50.0441 35.3559 48.5723 35.0907 47.3185 34.5604C46.0715 34.0301 45.097 33.2451 44.3952 32.2054C43.7001 31.1588 43.3356 29.8644 43.3015 28.3223H47.5842C47.6319 29.041 47.8329 29.6411 48.1873 30.1226C48.5484 30.5971 49.0288 30.9564 49.6285 31.2006C50.2349 31.4379 50.9197 31.5565 51.6829 31.5565C52.4325 31.5565 53.0832 31.4449 53.6352 31.2216C54.1939 30.9983 54.6266 30.6878 54.9333 30.29C55.2399 29.8923 55.3932 29.4353 55.3932 28.9189C55.3932 28.4375 55.2535 28.0328 54.9742 27.7048C54.7016 27.3769 54.2996 27.0977 53.7681 26.8675C53.2434 26.6372 52.5994 26.4279 51.8362 26.2395L49.5569 25.6534C47.792 25.2138 46.3985 24.5265 45.3764 23.5914C44.3543 22.6564 43.8466 21.3969 43.8535 19.813C43.8466 18.5152 44.1839 17.3813 44.8654 16.4114C45.5536 15.4415 46.4974 14.6844 47.6966 14.1401C48.8959 13.5959 50.2588 13.3237 51.7851 13.3237C53.3388 13.3237 54.6948 13.5959 55.8532 14.1401C57.0184 14.6844 57.9247 15.4415 58.572 16.4114C59.2194 17.3813 59.5533 18.5047 59.5737 19.7816H55.3319Z" fill="#FFFAFE"/>
<path d="M67.1093 25.758V35.0523H62.7551V13.6168H66.9867V21.8121H67.1706C67.525 20.8632 68.0974 20.12 68.8878 19.5827C69.6782 19.0385 70.6697 18.7663 71.8622 18.7663C72.9524 18.7663 73.903 19.0106 74.7139 19.499C75.5316 19.9805 76.1653 20.6748 76.6151 21.5819C77.0716 22.482 77.2965 23.56 77.2897 24.816V35.0523H72.9354V25.6115C72.9422 24.6207 72.6969 23.8496 72.1995 23.2984C71.7089 22.7471 71.0206 22.4715 70.1348 22.4715C69.542 22.4715 69.0173 22.6006 68.5607 22.8588C68.111 23.117 67.7567 23.4938 67.4977 23.9892C67.2456 24.4776 67.1161 25.0672 67.1093 25.758Z" fill="#FFFAFE"/>
<path d="M87.8099 35.3663C86.2222 35.3663 84.8491 35.0209 83.6907 34.3301C82.5391 33.6324 81.6499 32.6625 81.023 31.4204C80.3961 30.1714 80.0826 28.7235 80.0826 27.0768C80.0826 25.4161 80.3961 23.9647 81.023 22.7227C81.6499 21.4737 82.5391 20.5038 83.6907 19.813C84.8491 19.1152 86.2222 18.7663 87.8099 18.7663C89.3976 18.7663 90.7672 19.1152 91.9188 19.813C93.0772 20.5038 93.9698 21.4737 94.5967 22.7227C95.2237 23.9647 95.5371 25.4161 95.5371 27.0768C95.5371 28.7235 95.2237 30.1714 94.5967 31.4204C93.9698 32.6625 93.0772 33.6324 91.9188 34.3301C90.7672 35.0209 89.3976 35.3663 87.8099 35.3663ZM87.8303 31.9124C88.5526 31.9124 89.1556 31.703 89.6395 31.2844C90.1233 30.8587 90.4878 30.2796 90.7331 29.5469C90.9852 28.8143 91.1113 27.9804 91.1113 27.0454C91.1113 26.1104 90.9852 25.2766 90.7331 24.5439C90.4878 23.8112 90.1233 23.2321 89.6395 22.8064C89.1556 22.3808 88.5526 22.168 87.8303 22.168C87.1012 22.168 86.4879 22.3808 85.9905 22.8064C85.4999 23.2321 85.1285 23.8112 84.8764 24.5439C84.6311 25.2766 84.5084 26.1104 84.5084 27.0454C84.5084 27.9804 84.6311 28.8143 84.8764 29.5469C85.1285 30.2796 85.4999 30.8587 85.9905 31.2844C86.4879 31.703 87.1012 31.9124 87.8303 31.9124Z" fill="#FFFAFE"/>
<path d="M98.3684 41.0811V18.9757H102.661V21.6761H102.856C103.046 21.2434 103.322 20.8038 103.683 20.3573C104.051 19.9037 104.528 19.5269 105.114 19.2269C105.707 18.9199 106.443 18.7663 107.322 18.7663C108.467 18.7663 109.523 19.0734 110.491 19.6874C111.458 20.2945 112.232 21.212 112.811 22.4401C113.39 23.6612 113.68 25.1928 113.68 27.0349C113.68 28.8282 113.397 30.3424 112.831 31.5774C112.273 32.8055 111.509 33.737 110.542 34.372C109.581 35 108.504 35.314 107.312 35.314C106.467 35.314 105.748 35.171 105.155 34.8849C104.569 34.5988 104.089 34.2394 103.714 33.8068C103.339 33.3672 103.053 32.9241 102.856 32.4776H102.723V41.0811H98.3684ZM102.631 27.014C102.631 27.97 102.76 28.8038 103.019 29.5155C103.278 30.2272 103.653 30.782 104.143 31.1797C104.634 31.5705 105.23 31.7658 105.932 31.7658C106.641 31.7658 107.24 31.567 107.731 31.1692C108.222 30.7645 108.593 30.2063 108.845 29.4946C109.104 28.7759 109.234 27.949 109.234 27.014C109.234 26.086 109.107 25.2696 108.855 24.5648C108.603 23.8601 108.232 23.3088 107.741 22.9111C107.251 22.5134 106.648 22.3145 105.932 22.3145C105.223 22.3145 104.624 22.5064 104.133 22.8902C103.649 23.274 103.278 23.8182 103.019 24.523C102.76 25.2277 102.631 26.0581 102.631 27.014Z" fill="#FFFAFE"/>
<path d="M129.594 13.6168H134.02V27.5373C134.02 29.1003 133.655 30.468 132.926 31.6402C132.204 32.8125 131.192 33.7266 129.891 34.3825C128.589 35.0314 127.073 35.3559 125.342 35.3559C123.605 35.3559 122.085 35.0314 120.784 34.3825C119.482 33.7266 118.47 32.8125 117.748 31.6402C117.026 30.468 116.664 29.1003 116.664 27.5373V13.6168H121.09V27.1501C121.09 27.9665 121.264 28.6921 121.611 29.3271C121.966 29.9621 122.463 30.461 123.104 30.8238C123.744 31.1867 124.49 31.3681 125.342 31.3681C126.201 31.3681 126.947 31.1867 127.581 30.8238C128.221 30.461 128.715 29.9621 129.063 29.3271C129.417 28.6921 129.594 27.9665 129.594 27.1501V13.6168Z" fill="#FFFAFE"/>
<path d="M150.642 23.56L146.656 23.8112C146.588 23.4624 146.441 23.1484 146.217 22.8692C145.992 22.5832 145.695 22.3564 145.327 22.1889C144.966 22.0145 144.533 21.9273 144.029 21.9273C143.355 21.9273 142.786 22.0738 142.322 22.3668C141.859 22.6529 141.627 23.0367 141.627 23.5182C141.627 23.9019 141.777 24.2264 142.077 24.4916C142.377 24.7567 142.891 24.9695 143.62 25.13L146.462 25.7162C147.988 26.0371 149.126 26.5535 149.876 27.2652C150.625 27.9769 151 28.9119 151 30.0702C151 31.1239 150.697 32.0484 150.09 32.8439C149.491 33.6393 148.666 34.2604 147.617 34.7069C146.574 35.1465 145.372 35.3663 144.009 35.3663C141.93 35.3663 140.275 34.9232 139.041 34.0371C137.815 33.1439 137.096 31.9298 136.885 30.3947L141.167 30.1644C141.297 30.8134 141.61 31.3088 142.108 31.6507C142.605 31.9856 143.242 32.1531 144.019 32.1531C144.782 32.1531 145.395 32.0031 145.859 31.703C146.329 31.396 146.567 31.0018 146.574 30.5203C146.567 30.1156 146.4 29.7842 146.073 29.526C145.746 29.2608 145.242 29.0585 144.561 28.9189L141.842 28.3642C140.309 28.0502 139.167 27.5059 138.418 26.7314C137.675 25.9569 137.304 24.9695 137.304 23.7694C137.304 22.7367 137.576 21.847 138.121 21.1004C138.673 20.3538 139.447 19.7781 140.442 19.3734C141.443 18.9687 142.615 18.7663 143.958 18.7663C145.941 18.7663 147.501 19.1955 148.639 20.0537C149.784 20.912 150.452 22.0808 150.642 23.56Z" fill="#FFFAFE"/>
<g clip-path="url(#clip0_55_17596)">
<path fill-rule="evenodd" clip-rule="evenodd" d="M3.7976 27.6039C1.74477 26.559 1.25193 24.887 3.7976 22.6177C-2.01302 27.2005 -0.459475 30.0463 3.7976 31.438V39.9708H31.7286C31.7286 37.7696 31.7321 28.0354 31.7286 26.0463C30.6736 25.1035 29.2129 24.8928 27.8693 24.6531V36.0578H7.65896V32.2439C10.7953 32.6487 23.2194 32.7197 23.1966 29.2208C23.2437 28.5307 22.9987 27.874 22.4187 27.4829C21.9152 27.1346 21.3273 27.0644 20.7587 27.2882C15.736 29.0962 8.68823 29.6907 3.7976 27.6039Z" fill="#FFFAFE"/>
<path fill-rule="evenodd" clip-rule="evenodd" d="M22.1966 11.6553H13.3317C13.126 8.09558 13.311 4.16514 17.7638 3.92184C22.2159 4.16587 22.4037 8.09703 22.1966 11.6553ZM31.7307 24.0244C33.7835 25.0693 34.2764 26.7406 31.7307 29.0106C37.5435 24.4278 35.9878 21.582 31.7286 20.1903V11.6553H26.058C27.8936 -3.89052 7.6304 -3.87966 9.47037 11.6553H3.79761C3.79761 13.8566 3.79761 23.5922 3.79761 25.582C4.85616 26.5219 6.31257 26.7369 7.65969 26.9752V15.5705C13.7003 15.5705 21.8287 15.5705 27.8694 15.5705V19.3866C24.7337 18.9796 12.3082 18.9086 12.3318 22.4075C12.2846 23.0969 12.5289 23.7536 13.1096 24.1454C13.6132 24.4937 14.2031 24.5639 14.7696 24.3423C19.7909 22.5313 26.8415 21.9368 31.7307 24.0244Z" fill="#FFFAFE"/>
</g>
<defs>
<clipPath id="clip0_55_17596">
<rect width="35.5294" height="39.9706" fill="white"/>
</clipPath>
</defs>
</svg>
