<svg width="29" height="28" viewBox="0 0 29 28" fill="none" xmlns="http://www.w3.org/2000/svg">
<path d="M14.9454 27.9844C12.1565 27.9844 9.36759 27.9877 6.57977 27.9833C2.80943 27.9778 0.26778 24.7445 1.15621 21.0694C2.57309 15.2041 3.99764 9.33989 5.42875 3.47788C5.96268 1.29206 7.61152 0.0072528 9.85228 0.00397244C13.2791 -0.000401384 16.7059 -0.00258723 20.1326 0.00506696C22.2727 0.0105342 23.9577 1.31503 24.4654 3.38931C25.9227 9.3388 27.3801 15.2883 28.8036 21.2454C29.6307 24.7062 27.0355 27.9647 23.4763 27.98C20.6327 27.9953 17.789 27.9844 14.9454 27.9844ZM14.9531 25.7887C14.9531 25.792 14.9531 25.7953 14.9531 25.7986C17.7409 25.7986 20.5287 25.8019 23.3165 25.7975C25.6361 25.7942 27.1854 23.92 26.6514 21.6817C25.2378 15.7618 23.7936 9.84835 22.3493 3.93604C22.0725 2.80213 21.2596 2.19307 20.0867 2.19198C16.661 2.19088 13.2364 2.19416 9.81071 2.20182C8.66298 2.204 7.8577 2.80431 7.58526 3.91745C6.13446 9.84616 4.68256 15.7749 3.26786 21.7123C2.74596 23.9025 4.27664 25.7734 6.536 25.7855C9.34133 25.7997 12.1478 25.7887 14.9531 25.7887Z" fill="black"/>
<path d="M6.5 2.5L2 21.5V23.5L3 26L5 27L25 26.5L27 25L28 23.5L27.5 21L25 10.5L22.5 2L21 1H15H9L6.5 2.5Z" fill="black"/>
<path d="M20.4243 6.99062C20.5151 8.25793 20.2722 9.62147 19.398 10.8396C18.1496 12.5804 15.9132 13.4606 13.818 13.0024C11.6418 12.5257 9.96994 10.8002 9.587 8.64829C9.39334 7.56249 9.50603 6.46904 9.49837 5.37995C9.49509 4.81354 10.0345 4.3707 10.5925 4.37616C11.1833 4.38272 11.6516 4.83104 11.6702 5.45759C11.691 6.16724 11.6735 6.87799 11.6768 7.58764C11.6866 9.47713 13.1363 10.9424 14.9843 10.9314C16.8005 10.9216 18.2273 9.45636 18.2371 7.58764C18.2404 6.91407 18.2306 6.24051 18.2393 5.56694C18.2492 4.85182 18.6824 4.38272 19.3203 4.37507C19.9593 4.36851 20.4079 4.83651 20.4232 5.54397C20.4319 5.96386 20.4243 6.38266 20.4243 6.99062Z" fill="#FFFAFE"/>
</svg>
