<svg width="28" height="28" viewBox="0 0 28 28" fill="none" xmlns="http://www.w3.org/2000/svg">
<path d="M13.9669 27.9844C11.178 27.9844 8.38907 27.9877 5.60125 27.9833C1.83091 27.9778 -0.710735 24.7445 0.177691 21.0694C1.59458 15.2041 3.01912 9.3399 4.45023 3.47788C4.98416 1.29206 6.63301 0.0072528 8.87376 0.00397244C12.3006 -0.000401384 15.7273 -0.00258723 19.1541 0.00506696C21.2942 0.0105342 22.9792 1.31503 23.4869 3.38931C24.9442 9.3388 26.4016 15.2883 27.825 21.2454C28.6522 24.7062 26.0569 27.9647 22.4978 27.98C19.6541 27.9953 16.8105 27.9844 13.9669 27.9844ZM13.9746 25.7887C13.9746 25.792 13.9746 25.7953 13.9746 25.7986C16.7624 25.7986 19.5502 25.8019 22.338 25.7975C24.6576 25.7942 26.2068 23.92 25.6729 21.6817C24.2593 15.7618 22.8151 9.84835 21.3708 3.93604C21.094 2.80213 20.2811 2.19307 19.1082 2.19198C15.6825 2.19088 12.2579 2.19416 8.8322 2.20182C7.68446 2.20401 6.87919 2.80431 6.60675 3.91745C5.15594 9.84616 3.70404 15.7749 2.28934 21.7123C1.76745 23.9025 3.29812 25.7734 5.55748 25.7855C8.36281 25.7997 11.1692 25.7887 13.9746 25.7887Z" fill="black"/>
<path d="M19.4458 6.99062C19.5366 8.25793 19.2937 9.62147 18.4195 10.8396C17.1711 12.5804 14.9347 13.4606 12.8395 13.0024C10.6632 12.5257 8.99142 10.8002 8.60848 8.64829C8.41482 7.56249 8.52752 6.46904 8.51986 5.37995C8.51658 4.81354 9.05598 4.3707 9.61398 4.37616C10.2048 4.38272 10.6731 4.83104 10.6917 5.45759C10.7125 6.16724 10.695 6.87799 10.6983 7.58764C10.7081 9.47713 12.1578 10.9424 14.0058 10.9314C15.822 10.9216 17.2488 9.45636 17.2586 7.58764C17.2619 6.91407 17.252 6.24051 17.2608 5.56694C17.2706 4.85182 17.7039 4.38272 18.3418 4.37507C18.9808 4.36851 19.4293 4.83651 19.4447 5.54397C19.4534 5.96386 19.4458 6.38266 19.4458 6.99062Z" fill="black"/>
</svg>
