<svg width="173" height="157" viewBox="0 0 173 157" fill="none" xmlns="http://www.w3.org/2000/svg">
<path opacity="0.07" d="M67.5333 16.6299C57.4961 17.2185 47.4611 16.5669 37.1031 18.1349C24.3479 20.0665 10.9657 26.6242 4.04026 38.0373C-4.52226 52.1512 1.80955 68.1337 11.0906 80.1795C19.472 91.0565 29.9715 100.275 37.7801 111.59C50.0417 129.352 58.0564 146.867 80.0886 154.165C112.847 165.017 151.59 143.763 151.855 106.558C151.911 98.7745 150.184 90.9872 151.113 83.2587C153.106 66.6687 168.065 55.6424 172.079 39.8176C176.738 21.4516 162.985 7.27249 146.629 2.11244C124.863 -4.75641 106.066 6.76174 85.8039 13.4435C79.6679 15.4655 73.6006 16.2747 67.5333 16.6299Z" fill="#AE1C9A"/>
<path d="M99.2645 115.079C86.859 115.079 74.9683 115.079 63.0017 115.079C63.0017 100.839 63.0017 86.7053 63.0017 72.4096C65.3619 72.4096 67.6391 72.4096 70.1271 72.4096C70.1271 68.2387 69.9681 64.2199 70.1858 60.2218C70.3172 57.7925 70.7076 55.2769 71.5301 52.9997C74.6884 44.2605 83.7213 38.355 92.4604 39.0564C102.478 39.8616 110.575 46.6656 112.447 56.1511C112.966 58.7739 112.803 61.5384 112.869 64.2406C112.931 66.8807 112.883 69.5242 112.883 72.382C115.319 72.382 117.586 72.382 119.905 72.382C119.905 74.4138 119.905 76.2246 119.905 78.0491C106.594 76.3006 101.811 78.0733 94.4509 87.4724C94.1191 87.3411 93.7597 87.2029 93.4004 87.0543C91.1439 86.1317 88.9772 86.7468 87.6123 88.6992C86.2853 90.5963 86.4097 93.067 88.1479 94.6738C88.9772 95.4375 89.1777 96.1943 89.1535 97.2102C89.1051 99.1592 89.1396 101.112 89.1396 102.978C89.347 103.119 89.4437 103.24 89.5198 103.23C91.4376 102.95 92.2462 103.793 92.7887 105.676C93.8427 109.329 96.1475 112.294 99.2645 115.079ZM76.9864 72.2887C86.8279 72.2887 96.2408 72.2887 105.719 72.2887C105.719 68.0314 105.823 63.8882 105.668 59.7518C105.605 58.069 105.232 56.2997 104.569 54.7585C102.057 48.9117 96.1061 45.5598 89.7824 46.2233C84.1083 46.8176 78.5552 51.4032 77.6775 57.1913C76.9311 62.0947 77.1834 67.1502 76.9864 72.2887Z" fill="#AE1C9A"/>
<path d="M112.859 115.027C105.156 115.556 96.189 108.517 96.3238 98.3402C96.4447 89.3454 103.826 81.9539 112.911 81.9297C122.102 81.9056 129.515 89.373 129.532 98.6478C129.553 108.175 121.097 115.58 112.859 115.027ZM110.765 109.536C115.568 104.332 120.399 99.1039 125.306 93.7893C124.207 92.6869 123.225 91.6986 122.209 90.6758C118.27 94.9987 114.445 99.1903 110.295 103.745C108.042 101.326 105.975 99.1074 104.078 97.0686C102.924 98.0673 101.891 98.9588 100.961 99.7639C104.265 103.057 107.468 106.25 110.765 109.536Z" fill="#AE1C9A"/>
<path d="M110.765 109.536C107.468 106.25 104.265 103.057 100.958 99.7605C101.891 98.9554 102.924 98.0604 104.075 97.0652C105.972 99.104 108.038 101.322 110.291 103.741C114.445 99.1869 118.267 94.9953 122.206 90.6724C123.222 91.6952 124.207 92.6835 125.302 93.7858C120.395 99.104 115.568 104.332 110.765 109.536Z" fill="white"/>
</svg>
