<svg width="28" height="28" viewBox="0 0 28 28" fill="none" xmlns="http://www.w3.org/2000/svg">
<path d="M14.0102 1.31527e-06C21.8606 0.00218823 28.0084 6.15834 28.0019 14.0115C27.9953 21.8527 21.8277 27.9914 13.9665 27.9804C6.12272 27.9695 -0.0120177 21.8035 1.7678e-05 13.9405C0.0131471 6.12991 6.17634 -0.00327905 14.0102 1.31527e-06ZM13.9851 2.18691C7.39846 2.19457 2.20139 7.39941 2.20029 13.9875C2.1992 20.5974 7.42473 25.8088 14.0365 25.7924C20.6373 25.7771 25.8136 20.5898 25.8136 13.9908C25.8136 7.3688 20.6133 2.17926 13.9851 2.18691Z" fill="black"/>
<path d="M13.0567 15.1013C12.7351 14.8378 12.3138 14.8345 11.9473 14.6847C9.735 13.7826 8.32138 11.4918 8.54458 9.11795C8.77216 6.69486 10.6256 4.67634 13.0141 4.25427C15.9835 3.72831 18.8392 5.66154 19.3633 8.55264C19.9191 11.622 18.0361 14.3884 14.9879 14.9865C14.9025 15.0029 14.8227 15.0521 14.7406 15.086C14.1793 15.0904 13.618 15.0959 13.0567 15.1013ZM14.0043 12.8969C15.7953 12.8969 17.2735 11.4306 17.2833 9.645C17.2932 7.82768 15.8161 6.34057 14.0021 6.34057C12.211 6.34057 10.7328 7.8069 10.723 9.59252C10.712 11.4098 12.1891 12.8969 14.0043 12.8969Z" fill="black"/>
<path d="M13.0558 15.1012C13.6171 15.0958 14.1784 15.0914 14.7386 15.0859C16.3951 15.3276 17.8919 15.9224 19.1435 17.0662C19.9335 17.7879 20.5517 18.632 20.9893 19.6063C21.3274 20.3586 21.1392 21.0114 20.5199 21.2738C19.905 21.534 19.3514 21.2596 19.0024 20.5204C17.4728 17.2827 13.5734 16.2603 10.733 18.3543C9.92337 18.9513 9.34786 19.7287 8.94304 20.6483C8.69796 21.206 8.2625 21.4225 7.71544 21.3318C7.23731 21.2519 6.87515 20.8572 6.82592 20.3597C6.79747 20.0754 6.90469 19.8206 7.02395 19.5779C8.23951 17.1088 10.1652 15.5878 12.9224 15.1822C12.9705 15.1756 13.0121 15.1286 13.0558 15.1012Z" fill="black"/>
</svg>
