<svg width="32" height="32" viewBox="0 0 32 32" fill="none" xmlns="http://www.w3.org/2000/svg">
<path d="M27.0227 4.97728C24.4217 2.35028 20.9675 0.739233 17.2833 0.434725C13.599 0.130216 9.92719 1.15229 6.93014 3.3166C3.9331 5.4809 1.80811 8.64496 0.93848 12.238C0.068849 15.8311 0.511824 19.6167 2.1875 22.9119L0.542615 30.8977C0.525547 30.9772 0.525064 31.0594 0.541195 31.139C0.557326 31.2187 0.589725 31.2942 0.636364 31.3608C0.704688 31.4619 0.802216 31.5397 0.915924 31.5838C1.02963 31.628 1.15411 31.6364 1.27273 31.608L9.09943 29.7528C12.3854 31.3861 16.1443 31.8006 19.7072 30.9226C23.27 30.0445 26.4059 27.9309 28.5567 24.9579C30.7075 21.9848 31.7338 18.3451 31.4529 14.6863C31.172 11.0276 29.6022 7.5872 27.0227 4.97728ZM24.5824 24.4545C22.7827 26.2491 20.4653 27.4338 17.9567 27.8415C15.4481 28.2493 12.8748 27.8595 10.5994 26.7273L9.50853 26.1875L4.71023 27.3239L4.72443 27.2642L5.71875 22.4347L5.18466 21.3807C4.02205 19.0974 3.61192 16.5047 4.01303 13.974C4.41414 11.4433 5.60591 9.10451 7.41762 7.29262C9.69405 5.01689 12.7811 3.73845 16 3.73845C19.2189 3.73845 22.306 5.01689 24.5824 7.29262C24.6018 7.31485 24.6227 7.33573 24.6449 7.35512C26.8931 9.63671 28.1482 12.7146 28.1365 15.9177C28.1248 19.1208 26.8472 22.1894 24.5824 24.4545Z" fill="white"/>
<path d="M24.1564 20.9119C23.5683 21.8381 22.6394 22.9716 21.4717 23.2528C19.4263 23.7472 16.2871 23.2699 12.3808 19.6278L12.3325 19.5852C8.89788 16.4006 8.00584 13.75 8.22175 11.6477C8.34107 10.4545 9.33538 9.37499 10.1735 8.67045C10.3059 8.55736 10.4631 8.47685 10.6322 8.43535C10.8014 8.39385 10.978 8.39251 11.1477 8.43143C11.3175 8.47036 11.4759 8.54848 11.6101 8.65953C11.7443 8.77059 11.8506 8.91151 11.9206 9.07101L13.1848 11.9119C13.267 12.0961 13.2974 12.2992 13.2729 12.4994C13.2484 12.6996 13.1698 12.8894 13.0456 13.0483L12.4064 13.8778C12.2693 14.0491 12.1865 14.2575 12.1688 14.4762C12.151 14.695 12.1992 14.914 12.307 15.1051C12.6649 15.7329 13.5229 16.6562 14.4746 17.5114C15.5428 18.4773 16.7274 19.3608 17.4774 19.6619C17.6781 19.7439 17.8988 19.7639 18.1109 19.7194C18.3231 19.6748 18.517 19.5677 18.6678 19.4119L19.4092 18.6648C19.5523 18.5237 19.7302 18.4231 19.9249 18.3732C20.1195 18.3233 20.3239 18.3258 20.5172 18.3807L23.52 19.2329C23.6857 19.2838 23.8375 19.3718 23.9639 19.4903C24.0903 19.6088 24.188 19.7546 24.2494 19.9166C24.3108 20.0786 24.3343 20.2525 24.3182 20.425C24.3021 20.5975 24.2468 20.7641 24.1564 20.9119Z" fill="white"/>
</svg>
