<svg width="173" height="157" viewBox="0 0 173 157" fill="none" xmlns="http://www.w3.org/2000/svg">
<path opacity="0.07" d="M67.5333 16.629C57.4961 17.2175 47.4611 16.5659 37.1031 18.1339C24.3479 20.0655 10.9657 26.6233 4.04026 38.0363C-4.52226 52.1503 1.80955 68.1328 11.0906 80.1785C19.472 91.0556 29.9715 100.274 37.7801 111.589C50.0417 129.351 58.0564 146.866 80.0886 154.164C112.847 165.016 151.59 143.762 151.855 106.557C151.911 98.7736 150.184 90.9862 151.113 83.2577C153.106 66.6678 168.065 55.6414 172.079 39.8166C176.738 21.4506 162.985 7.27152 146.629 2.11147C124.863 -4.75739 106.066 6.76077 85.8039 13.4426C79.6679 15.4645 73.6006 16.2738 67.5333 16.629Z" fill="#AE1C9A"/>
<path d="M99.1732 80.9499C97.7291 80.9499 96.5618 82.1201 96.5618 83.5613V94.0078C96.5618 95.4467 95.3917 96.6192 93.9499 96.6192H86.1153V57.446C86.1153 55.2158 84.6946 53.2231 82.5585 52.4815L81.7853 52.2228H93.9499C95.3917 52.2228 96.5618 53.3953 96.5618 54.8346V62.6693C96.5618 64.1105 97.7291 65.2807 99.1732 65.2807C100.617 65.2807 101.785 64.1105 101.785 62.6693V54.8346C101.785 50.5152 98.2694 47 93.9499 47H65.876C65.7765 47 65.6933 47.0445 65.5967 47.0574C65.471 47.0469 65.3509 47 65.2233 47C62.3426 47 60 49.3422 60 52.2228V99.2306C60 101.461 61.4207 103.454 63.5568 104.195L79.2734 109.434C79.8061 109.599 80.3359 109.677 80.8925 109.677C83.7731 109.677 86.1153 107.334 86.1153 104.454V101.842H93.9499C98.2694 101.842 101.785 98.3273 101.785 94.0078V83.5613C101.785 82.1201 100.617 80.9499 99.1732 80.9499Z" fill="#AE1C9A"/>
<path d="M121.912 71.269L111.466 60.823C110.719 60.0761 109.596 59.8513 108.62 60.2559C107.646 60.6609 107.008 61.6139 107.008 62.6693V70.5039H96.5621C95.1203 70.5039 93.9502 71.6736 93.9502 73.1153C93.9502 74.5571 95.1203 75.7267 96.5621 75.7267H107.008V83.5614C107.008 84.6167 107.646 85.5698 108.62 85.9748C109.596 86.3793 110.719 86.1546 111.466 85.4081L121.912 74.9616C122.933 73.9407 122.933 72.29 121.912 71.269Z" fill="#AE1C9A"/>
</svg>
